STARTFONT 2.1
COMMENT
COMMENT Converted from OpenType font "RobotoMono-Bold.ttf" by "otf2bdf 3.0".
COMMENT
FONT -FreeType-Roboto Mono-Bold-R-Normal--96-960-72-72-P-471-ISO10646-1
SIZE 96 72 72
FONTBOUNDINGBOX 123 125 -48 -24
STARTPROPERTIES 19
FOUNDRY "FreeType"
FAMILY_NAME "Roboto Mono"
WEIGHT_NAME "Bold"
SLANT "R"
SETWIDTH_NAME "Normal"
ADD_STYLE_NAME ""
PIXEL_SIZE 96
POINT_SIZE 960
RESOLUTION_X 72
RESOLUTION_Y 72
SPACING "P"
AVERAGE_WIDTH 471
CHARSET_REGISTRY "ISO10646"
CHARSET_ENCODING "1"
FONT_ASCENT 100
FONT_DESCENT 26
COPYRIGHT "Copyright 2015 The Roboto Mono Project Authors (https://github.com/googlefonts/robotomono)"
_OTF_FONTFILE "RobotoMono-Bold.ttf"
_OTF_PSNAME "RobotoMono-Bold"
ENDPROPERTIES
CHARS 876
STARTCHAR 000D
ENCODING 13
SWIDTH 604 0
DWIDTH 58 0
BBX 0 0 0 0
BITMAP
ENDCHAR
STARTCHAR 0020
ENCODING 32
SWIDTH 604 0
DWIDTH 58 0
BBX 0 0 0 0
BITMAP
ENDCHAR
STARTCHAR 0021
ENCODING 33
SWIDTH 593 0
DWIDTH 57 0
BBX 15 70 21 -1
BITMAP
7FFC
7FFC
7FFC
7FFC
7FFC
7FFC
7FFC
7FFC
7FFC
7FFC
7FFC
7FFC
7FFC
7FFC
7FFC
7FFC
7FFC
7FFC
7FFC
7FFC
7FFC
7FFC
7FFC
7FFC
7FFC
7FFC
7FFC
7FFC
7FFC
7FFC
7FFC
7FFC
7FFC
7FFC
7FFC
7FFC
7FFC
7FFC
7FFC
7FFC
7FFC
7FFC
7FFC
7FFC
7FFC
0000
0000
0000
0000
0000
0000
0000
0000
0000
0000
0000
0FE0
1FF0
3FF8
7FFC
FFFE
FFFE
FFFE
FFFE
FFFE
FFFE
7FFC
7FF8
1FF0
0FE0
ENDCHAR
STARTCHAR 0022
ENCODING 34
SWIDTH 604 0
DWIDTH 58 0
BBX 29 25 13 48
BITMAP
FFC01FF8
FFC01FF8
FFC01FF8
FFC01FF8
FFC01FF8
FFC01FF8
FFC01FF8
FFC01FF8
FFC01FF8
FF801FF8
FF801FF8
FF801FF8
FF801FF8
FF801FF8
FF801FF0
FF801FF0
FF801FF0
FF801FF0
FF801FF0
FF801FF0
FF801FF0
FF801FF0
FF801FF0
FF001FF0
FF001FF0
ENDCHAR
STARTCHAR 0023
ENCODING 35
SWIDTH 593 0
DWIDTH 57 0
BBX 52 70 2 -1
BITMAP
00001FF007FC00
00001FF007FC00
00001FE007F800
00001FE007F800
00003FE007F800
00003FE00FF800
00003FE00FF800
00003FC00FF800
00003FC00FF000
00003FC00FF000
00007FC01FF000
00007FC01FF000
00007FC01FF000
00007F801FE000
00007F801FE000
0000FF801FE000
0000FF803FE000
0000FF803FE000
0000FF003FE000
0000FF003FC000
1FFFFFFFFFFFF0
1FFFFFFFFFFFF0
1FFFFFFFFFFFF0
1FFFFFFFFFFFF0
1FFFFFFFFFFFF0
1FFFFFFFFFFFF0
1FFFFFFFFFFFF0
1FFFFFFFFFFFF0
0003FE00FF8000
0003FC00FF8000
0003FC00FF0000
0003FC00FF0000
0007FC01FF0000
0007FC01FF0000
0007FC01FF0000
0007F801FF0000
0007F801FE0000
0007F801FE0000
000FF803FE0000
000FF803FE0000
000FF803FE0000
000FF003FC0000
FFFFFFFFFFFF80
FFFFFFFFFFFF80
FFFFFFFFFFFF80
FFFFFFFFFFFF80
FFFFFFFFFFFF80
FFFFFFFFFFFF80
FFFFFFFFFFFF80
FFFFFFFFFFFF80
003FE00FF80000
003FE00FF80000
003FC00FF00000
003FC00FF00000
007FC00FF00000
007FC01FF00000
007FC01FF00000
007F801FF00000
007F801FE00000
007F801FE00000
00FF801FE00000
00FF803FE00000
00FF803FE00000
00FF003FE00000
00FF003FC00000
00FF003FC00000
01FF007FC00000
01FF007FC00000
01FF007FC00000
01FE007F800000
ENDCHAR
STARTCHAR 0024
ENCODING 36
SWIDTH 593 0
DWIDTH 57 0
BBX 47 90 6 -10
BITMAP
000007F80000
000007F80000
000007F80000
000007F80000
000007F80000
000007F80000
000007F80000
000007F80000
000007F80000
000007F80000
00001FFC0000
0001FFFFC000
0007FFFFF000
001FFFFFFC00
003FFFFFFE00
007FFFFFFF00
00FFFFFFFF80
01FFFFFFFFC0
03FFFFFFFFE0
07FFFFFFFFF0
07FFFFFFFFF0
0FFFF80FFFF8
0FFFE003FFF8
0FFFC001FFFC
1FFF8000FFFC
1FFF8000FFFC
1FFF00007FFC
1FFF00007FFE
1FFF00003FFE
1FFF00003FFE
1FFF00003FFE
1FFF00003FFE
1FFF00003FFE
1FFF80000000
0FFFC0000000
0FFFC0000000
0FFFF0000000
07FFF8000000
07FFFE000000
03FFFF800000
03FFFFF00000
01FFFFFC0000
00FFFFFF8000
007FFFFFE000
003FFFFFF800
000FFFFFFC00
0007FFFFFF00
0001FFFFFF80
00003FFFFFC0
00000FFFFFE0
000003FFFFF0
0000007FFFF0
0000001FFFF8
00000007FFF8
00000001FFFC
00000000FFFC
000000007FFC
000000007FFE
FFF800003FFE
FFF800003FFE
FFF800003FFE
FFF800003FFE
FFF800003FFE
FFFC00003FFE
7FFC00007FFE
7FFE00007FFE
7FFE0000FFFC
7FFF8000FFFC
3FFFC003FFFC
3FFFF00FFFFC
1FFFFFFFFFF8
0FFFFFFFFFF8
0FFFFFFFFFF0
07FFFFFFFFE0
03FFFFFFFFC0
01FFFFFFFF80
007FFFFFFF00
003FFFFFFC00
000FFFFFF000
0001FFFFC000
00000FF80000
000007F00000
000007F00000
000007F00000
000007F00000
000007F00000
000007F00000
000007F00000
000007F00000
000007F00000
ENDCHAR
STARTCHAR 0025
ENCODING 37
SWIDTH 604 0
DWIDTH 58 0
BBX 54 71 2 -1
BITMAP
007FC000000000
01FFF000000000
07FFFC00000000
0FFFFE00000000
1FFFFF00000000
3FFFFF80000000
3FFFFF80000000
7FFFFFC0000000
7FE0FFC0000000
FFC07FC0040000
FFC07FE0070000
FF803FE00FC000
FF803FE00FF000
FF803FE01FE000
FF803FE03FC000
FF803FE03FC000
FF803FE07F8000
FF803FE07F8000
FF803FE0FF0000
FF803FE0FF0000
FFC07FE1FE0000
FFC07FE1FE0000
7FE0FFC3FC0000
7FFFFFC3FC0000
3FFFFF87F80000
3FFFFF87F80000
1FFFFF0FF00000
0FFFFE0FF00000
07FFFC1FE00000
01FFF03FC00000
007FC03FC00000
0000007F800000
0000007F800000
000000FF000000
000000FF000000
000001FE000000
000001FE000000
000003FC000000
000003FC000000
000007F8000000
000007F8000000
00000FF00FF800
00000FF03FFF00
00001FE0FFFF80
00001FC1FFFFC0
00003FC3FFFFE0
00007F87FFFFF0
00007F87FFFFF0
0000FF0FFFFFF8
0000FF0FFC1FF8
0001FE1FF80FFC
0001FE1FF00FFC
0003FC1FF007FC
0003FC1FF007FC
0007F81FF007FC
0007F81FF007FC
000FF01FF007FC
000FF01FF007FC
0003E01FF007FC
0000C01FF007FC
0000001FF807FC
0000001FF80FFC
0000000FFC1FF8
0000000FFFFFF8
00000007FFFFF8
00000007FFFFF0
00000003FFFFE0
00000001FFFFC0
00000000FFFF80
000000003FFF00
000000000FF800
ENDCHAR
STARTCHAR 0026
ENCODING 38
SWIDTH 604 0
DWIDTH 58 0
BBX 54 71 4 -1
BITMAP
000003C0000000
00007FFC000000
0001FFFF000000
0007FFFFC00000
000FFFFFE00000
001FFFFFF00000
003FFFFFF80000
007FFFFFF80000
00FFFFFFFC0000
00FFFFFFFE0000
01FFFFFFFE0000
01FFFC3FFE0000
01FFF01FFF0000
03FFE00FFF0000
03FFE007FF0000
03FFC007FF0000
03FFC007FF0000
03FFC007FF0000
03FFC007FF0000
03FFC007FF0000
03FFC00FFE0000
03FFC00FFE0000
03FFE01FFE0000
01FFE03FFC0000
01FFF07FFC0000
01FFF1FFF80000
00FFFBFFF00000
00FFFFFFE00000
007FFFFFC00000
007FFFFF800000
003FFFFF000000
003FFFFE000000
001FFFF8000000
000FFFF0000000
000FFFE0000000
003FFFE0000000
007FFFF0000000
00FFFFF8003FF8
01FFFFF8003FF8
03FFFFFC003FF8
07FFFFFE003FF8
0FFFFFFF003FF8
1FFFBFFF807FF8
3FFF1FFF807FF8
3FFF0FFFC07FF0
7FFE0FFFE0FFF0
7FFC07FFF0FFF0
7FFC03FFF9FFF0
FFFC01FFF9FFE0
FFF801FFFFFFE0
FFF800FFFFFFE0
FFF8007FFFFFC0
FFF8003FFFFFC0
FFF8001FFFFF80
FFF8001FFFFF80
FFFC000FFFFF00
FFFC0007FFFF00
7FFE0003FFFE00
7FFF0007FFFC00
7FFF801FFFFE00
3FFFFFFFFFFE00
3FFFFFFFFFFF00
1FFFFFFFFFFF80
1FFFFFFFFFFFC0
0FFFFFFFFFFFE0
07FFFFFFFFFFE0
03FFFFFFF7FFF0
00FFFFFFC7FFF8
007FFFFF03FFFC
001FFFFC01FFFC
0001FFC0000000
ENDCHAR
STARTCHAR 0027
ENCODING 39
SWIDTH 604 0
DWIDTH 58 0
BBX 10 26 21 47
BITMAP
FFC0
FFC0
FFC0
FFC0
FFC0
FFC0
FFC0
FFC0
FFC0
FFC0
FFC0
FFC0
FFC0
FFC0
FFC0
FF80
FF80
FF80
FF80
FF80
FF80
FF80
FF80
FF80
FF80
FF80
ENDCHAR
STARTCHAR 0028
ENCODING 40
SWIDTH 593 0
DWIDTH 57 0
BBX 26 97 16 -22
BITMAP
00000600
00000F00
00003F00
00007F80
0000FF80
0001FF80
0003FFC0
0007FF80
000FFF00
000FFE00
001FFC00
003FF800
003FF000
007FF000
00FFE000
00FFC000
01FFC000
01FF8000
03FF8000
03FF0000
07FF0000
07FE0000
0FFE0000
0FFE0000
0FFC0000
1FFC0000
1FFC0000
1FF80000
1FF80000
3FF80000
3FF80000
3FF80000
3FF00000
7FF00000
7FF00000
7FF00000
7FF00000
7FF00000
7FE00000
FFE00000
FFE00000
FFE00000
FFE00000
FFE00000
FFE00000
FFE00000
FFE00000
FFE00000
FFE00000
FFE00000
FFE00000
FFE00000
FFE00000
FFE00000
FFE00000
FFE00000
FFE00000
FFE00000
7FE00000
7FF00000
7FF00000
7FF00000
7FF00000
7FF00000
3FF00000
3FF00000
3FF80000
3FF80000
3FF80000
1FF80000
1FFC0000
1FFC0000
0FFC0000
0FFE0000
0FFE0000
07FE0000
07FF0000
03FF0000
03FF8000
01FF8000
01FFC000
00FFC000
00FFE000
007FE000
007FF000
003FF800
001FFC00
000FFC00
000FFE00
0007FF80
0003FFC0
0001FF80
0000FF80
00007F80
00003F00
00000F00
00000700
ENDCHAR
STARTCHAR 0029
ENCODING 41
SWIDTH 593 0
DWIDTH 57 0
BBX 27 97 14 -22
BITMAP
38000000
3C000000
3F000000
7F800000
7FC00000
7FE00000
FFF00000
7FF80000
3FFC0000
1FFE0000
0FFE0000
07FF0000
03FF8000
03FF8000
01FFC000
00FFE000
00FFE000
007FF000
007FF000
003FF800
003FF800
001FFC00
001FFC00
001FFE00
000FFE00
000FFE00
000FFF00
0007FF00
0007FF00
0007FF80
0007FF80
0007FF80
0003FF80
0003FF80
0003FFC0
0003FFC0
0003FFC0
0003FFC0
0001FFC0
0001FFC0
0001FFE0
0001FFE0
0001FFE0
0001FFE0
0001FFE0
0001FFE0
0001FFE0
0001FFE0
0001FFE0
0001FFE0
0001FFE0
0001FFE0
0001FFE0
0001FFE0
0001FFE0
0001FFE0
0001FFE0
0001FFE0
0001FFC0
0003FFC0
0003FFC0
0003FFC0
0003FFC0
0003FFC0
0003FF80
0003FF80
0007FF80
0007FF80
0007FF00
0007FF00
000FFF00
000FFE00
000FFE00
001FFE00
001FFC00
001FFC00
003FF800
003FF800
007FF000
007FF000
00FFE000
00FFE000
01FFC000
01FFC000
03FF8000
07FF0000
0FFF0000
0FFE0000
1FFC0000
7FF80000
FFF00000
7FE00000
7FC00000
7F800000
3F000000
3E000000
38000000
ENDCHAR
STARTCHAR 002A
ENCODING 42
SWIDTH 604 0
DWIDTH 58 0
BBX 48 48 7 21
BITMAP
00001FF80000
00001FF80000
00001FF80000
00001FF80000
00000FF80000
00000FF80000
00000FF80000
00000FF80000
00000FF80000
00000FF80000
00000FF80000
00000FF00000
00000FF00000
1C000FF00008
1F000FF0003C
3FC00FF001FC
3FF007F007FC
3FFE07F01FFE
7FFF87F07FFE
7FFFE7F3FFFE
7FFFFFFFFFFE
FFFFFFFFFFFF
3FFFFFFFFFFF
03FFFFFFFFF8
003FFFFFFF80
0003FFFFF800
00003FFF0000
00003FFC0000
00007FFE0000
0000FFFE0000
0001FFFF0000
0001FFFF8000
0003FE7FC000
0007FC7FE000
000FFC3FF000
001FF83FF000
003FF81FF800
007FF00FFC00
007FE00FFE00
00FFE007FF00
01FFC007FF80
03FFC003FF80
03FF8003FFC0
00FF8001FF80
007F0001FE00
003E0000FC00
000E00007000
000400006000
ENDCHAR
STARTCHAR 002B
ENCODING 43
SWIDTH 604 0
DWIDTH 58 0
BBX 47 50 5 7
BITMAP
00007FFC0000
00007FFC0000
00007FFC0000
00007FFC0000
00007FFC0000
00007FFC0000
00007FFC0000
00007FFC0000
00007FFC0000
00007FFC0000
00007FFC0000
00007FFC0000
00007FFC0000
00007FFC0000
00007FFC0000
00007FFC0000
00007FFC0000
00007FFC0000
00007FFC0000
FFFFFFFFFFFE
FFFFFFFFFFFE
FFFFFFFFFFFE
FFFFFFFFFFFE
FFFFFFFFFFFE
FFFFFFFFFFFE
FFFFFFFFFFFE
FFFFFFFFFFFE
FFFFFFFFFFFE
FFFFFFFFFFFE
FFFFFFFFFFFE
FFFFFFFFFFFE
00007FFC0000
00007FFC0000
00007FFC0000
00007FFC0000
00007FFC0000
00007FFC0000
00007FFC0000
00007FFC0000
00007FFC0000
00007FFC0000
00007FFC0000
00007FFC0000
00007FFC0000
00007FFC0000
00007FFC0000
00007FFC0000
00007FFC0000
00007FFC0000
00007FFC0000
ENDCHAR
STARTCHAR 002C
ENCODING 44
SWIDTH 593 0
DWIDTH 57 0
BBX 16 31 17 -20
BITMAP
0FFF
0FFF
0FFF
0FFF
0FFF
0FFF
0FFF
0FFF
0FFF
0FFF
0FFF
0FFF
0FFF
0FFF
0FFF
0FFE
0FFE
1FFE
1FFE
1FFC
1FFC
3FF8
3FF8
7FF0
7FF0
7FE0
FFC0
7FC0
1F80
0F00
0200
ENDCHAR
STARTCHAR 002D
ENCODING 45
SWIDTH 593 0
DWIDTH 57 0
BBX 39 11 13 25
BITMAP
FFFFFFFFFE
FFFFFFFFFE
FFFFFFFFFE
FFFFFFFFFE
FFFFFFFFFE
FFFFFFFFFE
FFFFFFFFFE
FFFFFFFFFE
FFFFFFFFFE
FFFFFFFFFE
FFFFFFFFFE
ENDCHAR
STARTCHAR 002E
ENCODING 46
SWIDTH 604 0
DWIDTH 58 0
BBX 18 17 20 -1
BITMAP
03F000
0FFC00
3FFF00
3FFF00
7FFF80
FFFF80
FFFFC0
FFFFC0
FFFFC0
FFFFC0
FFFFC0
FFFFC0
7FFF80
7FFF80
3FFF00
0FFE00
07F000
ENDCHAR
STARTCHAR 002F
ENCODING 47
SWIDTH 604 0
DWIDTH 58 0
BBX 38 75 10 -6
BITMAP
0000003FFC
0000003FFC
0000007FF8
0000007FF8
000000FFF8
000000FFF0
000000FFF0
000001FFF0
000001FFE0
000001FFE0
000003FFE0
000003FFC0
000003FFC0
000007FFC0
000007FF80
000007FF80
00000FFF80
00000FFF00
00000FFF00
00001FFE00
00001FFE00
00001FFE00
00003FFC00
00003FFC00
00003FFC00
00007FF800
00007FF800
00007FF800
0000FFF000
0000FFF000
0000FFF000
0001FFE000
0001FFE000
0001FFE000
0003FFC000
0003FFC000
0003FFC000
0007FF8000
0007FF8000
000FFF8000
000FFF0000
000FFF0000
001FFF0000
001FFE0000
001FFE0000
003FFE0000
003FFC0000
003FFC0000
007FFC0000
007FF80000
007FF80000
00FFF80000
00FFF00000
00FFF00000
01FFE00000
01FFE00000
01FFE00000
03FFC00000
03FFC00000
03FFC00000
07FF800000
07FF800000
07FF800000
0FFF000000
0FFF000000
0FFF000000
1FFE000000
1FFE000000
1FFE000000
3FFC000000
3FFC000000
3FFC000000
7FF8000000
7FF8000000
FFF8000000
ENDCHAR
STARTCHAR 0030
ENCODING 48
SWIDTH 604 0
DWIDTH 58 0
BBX 44 71 7 -1
BITMAP
00000F000000
0001FFF80000
000FFFFF0000
003FFFFFC000
007FFFFFE000
00FFFFFFF000
01FFFFFFF800
03FFFFFFFC00
07FFFFFFFE00
0FFFFFFFFF00
0FFFFFFFFF00
1FFFE07FFF80
1FFF801FFF80
3FFF000FFFC0
3FFE0007FFC0
3FFE0007FFC0
7FFC0003FFE0
7FFC0003FFE0
7FFC0003FFE0
7FF80001FFE0
FFF80001FFF0
FFF80001FFF0
FFF80001FFF0
FFF80001FFF0
FFF80001FFF0
FFF80003FFF0
FFF80007FFF0
FFF8001FFFF0
FFF8003FFFF0
FFF8007FFFF0
FFF801FFFFF0
FFF803FFFFF0
FFF807FFFFF0
FFF81FFFFFF0
FFF83FFDFFF0
FFF87FF1FFF0
FFF9FFE1FFF0
FFFBFFC1FFF0
FFFFFF01FFF0
FFFFFE01FFF0
FFFFFC01FFF0
FFFFF001FFF0
FFFFE001FFF0
FFFFC001FFF0
FFFF0001FFF0
FFFE0001FFF0
FFFC0001FFF0
FFF80001FFF0
FFF80001FFF0
FFF80001FFF0
FFF80001FFF0
7FF80001FFE0
7FFC0003FFE0
7FFC0003FFE0
7FFC0003FFE0
7FFC0007FFE0
3FFE0007FFC0
3FFF000FFFC0
1FFF801FFF80
1FFFC03FFF80
0FFFFFFFFF80
0FFFFFFFFF00
07FFFFFFFE00
07FFFFFFFE00
03FFFFFFFC00
01FFFFFFF800
00FFFFFFF000
003FFFFFC000
001FFFFF8000
0003FFFE0000
00007FE00000
ENDCHAR
STARTCHAR 0031
ENCODING 49
SWIDTH 604 0
DWIDTH 58 0
BBX 30 69 8 0
BITMAP
00000004
0000003C
000001FC
000007FC
00003FFC
0001FFFC
000FFFFC
003FFFFC
01FFFFFC
0FFFFFFC
3FFFFFFC
FFFFFFFC
FFFFFFFC
FFFFFFFC
FFFFFFFC
FFFFFFFC
FFFF7FFC
FFFC7FFC
FFE07FFC
FF007FFC
FC007FFC
E0007FFC
00007FFC
00007FFC
00007FFC
00007FFC
00007FFC
00007FFC
00007FFC
00007FFC
00007FFC
00007FFC
00007FFC
00007FFC
00007FFC
00007FFC
00007FFC
00007FFC
00007FFC
00007FFC
00007FFC
00007FFC
00007FFC
00007FFC
00007FFC
00007FFC
00007FFC
00007FFC
00007FFC
00007FFC
00007FFC
00007FFC
00007FFC
00007FFC
00007FFC
00007FFC
00007FFC
00007FFC
00007FFC
00007FFC
00007FFC
00007FFC
00007FFC
00007FFC
00007FFC
00007FFC
00007FFC
00007FFC
00007FFC
ENDCHAR
STARTCHAR 0032
ENCODING 50
SWIDTH 604 0
DWIDTH 58 0
BBX 48 70 3 0
BITMAP
000003E00000
0000FFFF0000
0003FFFFE000
001FFFFFF800
003FFFFFFE00
00FFFFFFFF00
01FFFFFFFF80
03FFFFFFFFC0
07FFFFFFFFE0
0FFFFFFFFFE0
0FFFFFFFFFF0
1FFFF01FFFF0
3FFFC007FFF8
3FFF0003FFF8
3FFE0001FFF8
7FFE0000FFF8
7FFC0000FFFC
7FFC00007FFC
FFF800007FFC
FFF800007FFC
FFF800007FFC
FFF800007FFC
FFF800007FFC
000000007FFC
00000000FFFC
00000000FFF8
00000001FFF8
00000001FFF8
00000003FFF0
00000003FFF0
00000007FFE0
0000000FFFE0
0000001FFFC0
0000001FFFC0
0000003FFF80
0000007FFF00
000000FFFE00
000001FFFE00
000003FFFC00
000007FFF800
00000FFFF000
00001FFFE000
00003FFFC000
00007FFF8000
0000FFFF0000
0001FFFE0000
0001FFFC0000
0003FFF80000
0007FFF00000
000FFFE00000
001FFFE00000
003FFFC00000
007FFF800000
00FFFF000000
01FFFE000000
03FFFC000000
07FFF8000000
0FFFF0000000
1FFFE0000000
3FFFFFFFFFFF
7FFFFFFFFFFF
7FFFFFFFFFFF
7FFFFFFFFFFF
7FFFFFFFFFFF
7FFFFFFFFFFF
7FFFFFFFFFFF
7FFFFFFFFFFF
7FFFFFFFFFFF
7FFFFFFFFFFF
7FFFFFFFFFFF
ENDCHAR
STARTCHAR 0033
ENCODING 51
SWIDTH 604 0
DWIDTH 58 0
BBX 47 71 4 -1
BITMAP
000007800000
0001FFFF0000
0007FFFFE000
001FFFFFF800
007FFFFFFC00
00FFFFFFFF00
03FFFFFFFF80
07FFFFFFFFC0
07FFFFFFFFE0
0FFFFFFFFFE0
1FFFFFFFFFF0
1FFFF01FFFF0
3FFFC007FFF8
3FFF0001FFF8
3FFF0001FFF8
7FFE0000FFFC
7FFC0000FFFC
7FFC00007FFC
7FFC00007FFC
000000007FFC
000000007FFC
000000007FFC
000000007FFC
00000000FFFC
00000000FFF8
00000000FFF8
00000001FFF8
00000003FFF0
00000007FFE0
0000003FFFE0
0001FFFFFFC0
0001FFFFFF80
0001FFFFFF00
0001FFFFFE00
0001FFFFF800
0001FFFFF800
0001FFFFFE00
0001FFFFFF80
0001FFFFFFC0
0001FFFFFFE0
0001FFFFFFF0
0000000FFFF0
00000003FFF8
00000001FFFC
00000000FFFC
000000007FFC
000000007FFE
000000003FFE
000000003FFE
000000003FFE
000000003FFE
000000003FFE
FFF800003FFE
FFF800003FFE
FFFC00007FFE
FFFC00007FFE
7FFE0000FFFC
7FFF0001FFFC
7FFF8003FFFC
3FFFE00FFFF8
3FFFFFFFFFF8
1FFFFFFFFFF0
1FFFFFFFFFE0
0FFFFFFFFFE0
07FFFFFFFFC0
03FFFFFFFF00
00FFFFFFFE00
007FFFFFFC00
001FFFFFF000
0007FFFF8000
00003FF80000
ENDCHAR
STARTCHAR 0034
ENCODING 52
SWIDTH 604 0
DWIDTH 58 0
BBX 50 69 3 0
BITMAP
0000000FFFC000
0000000FFFC000
0000001FFFC000
0000001FFFC000
0000003FFFC000
0000007FFFC000
0000007FFFC000
000000FFFFC000
000001FFFFC000
000001FFFFC000
000003FFFFC000
000003FFFFC000
000007FFFFC000
00000FFFFFC000
00000FFFFFC000
00001FFFFFC000
00003FFFFFC000
00003FFFFFC000
00007FFFFFC000
00007FF7FFC000
0000FFE7FFC000
0001FFE7FFC000
0001FFC7FFC000
0003FF87FFC000
0007FF87FFC000
0007FF07FFC000
000FFF07FFC000
000FFE07FFC000
001FFC07FFC000
003FFC07FFC000
003FF807FFC000
007FF007FFC000
00FFF007FFC000
00FFE007FFC000
01FFC007FFC000
03FFC007FFC000
03FF8007FFC000
07FF8007FFC000
07FF0007FFC000
0FFE0007FFC000
1FFE0007FFC000
1FFC0007FFC000
3FF80007FFC000
7FFFFFFFFFFFC0
7FFFFFFFFFFFC0
FFFFFFFFFFFFC0
FFFFFFFFFFFFC0
FFFFFFFFFFFFC0
FFFFFFFFFFFFC0
FFFFFFFFFFFFC0
FFFFFFFFFFFFC0
FFFFFFFFFFFFC0
FFFFFFFFFFFFC0
FFFFFFFFFFFFC0
00000007FFC000
00000007FFC000
00000007FFC000
00000007FFC000
00000007FFC000
00000007FFC000
00000007FFC000
00000007FFC000
00000007FFC000
00000007FFC000
00000007FFC000
00000007FFC000
00000007FFC000
00000007FFC000
00000007FFC000
ENDCHAR
STARTCHAR 0035
ENCODING 53
SWIDTH 604 0
DWIDTH 58 0
BBX 46 70 5 -1
BITMAP
03FFFFFFFFF0
03FFFFFFFFF0
03FFFFFFFFF0
03FFFFFFFFF0
03FFFFFFFFF0
03FFFFFFFFF0
07FFFFFFFFF0
07FFFFFFFFF0
07FFFFFFFFF0
07FFFFFFFFF0
07FFFFFFFFF0
07FF80000000
07FF80000000
07FF00000000
07FF00000000
0FFF00000000
0FFF00000000
0FFF00000000
0FFF00000000
0FFF00000000
0FFF00000000
0FFF00000000
0FFF00000000
0FFE01E00000
1FFE1FFF8000
1FFEFFFFE000
1FFFFFFFF800
1FFFFFFFFC00
1FFFFFFFFE00
1FFFFFFFFF00
1FFFFFFFFF80
1FFFFFFFFFC0
1FFFFFFFFFE0
3FFFFFFFFFE0
3FFFC03FFFF0
1FFE000FFFF0
01FC0007FFF0
00180003FFF8
00000001FFF8
00000000FFF8
00000000FFF8
00000000FFFC
000000007FFC
000000007FFC
000000007FFC
000000007FFC
000000007FFC
000000007FFC
000000007FFC
000000007FFC
FFF800007FFC
7FF80000FFFC
7FFC0000FFF8
7FFC0000FFF8
7FFC0001FFF8
7FFE0001FFF8
3FFF0003FFF0
3FFF8007FFF0
3FFFE00FFFF0
1FFFFFFFFFE0
0FFFFFFFFFC0
0FFFFFFFFFC0
07FFFFFFFF80
03FFFFFFFF00
01FFFFFFFE00
007FFFFFFC00
003FFFFFF800
000FFFFFE000
0003FFFF8000
00003FF80000
ENDCHAR
STARTCHAR 0036
ENCODING 54
SWIDTH 604 0
DWIDTH 58 0
BBX 47 70 5 -1
BITMAP
0000000FF000
000001FFF000
00000FFFF000
00003FFFF000
0000FFFFF000
0001FFFFF000
0007FFFFF000
000FFFFFF000
001FFFFFF000
003FFFFFF000
007FFFFFF000
00FFFFF00000
01FFFF800000
01FFFE000000
03FFFC000000
07FFF0000000
07FFE0000000
0FFFC0000000
0FFF80000000
1FFF80000000
1FFF00000000
1FFF00000000
3FFE00000000
3FFE00380000
3FFC07FFC000
7FFC1FFFF000
7FFC7FFFFC00
7FFCFFFFFE00
7FF9FFFFFF00
7FFBFFFFFF80
FFFFFFFFFFC0
FFFFFFFFFFE0
FFFFFFFFFFF0
FFFFFFFFFFF0
FFFFF01FFFF8
FFFFC007FFF8
FFFF0003FFF8
FFFE0001FFFC
FFFC0000FFFC
FFFC0000FFFC
FFF800007FFC
FFF800007FFE
FFF800007FFE
FFF800003FFE
FFF800003FFE
FFF800003FFE
FFF800003FFE
FFF800003FFE
FFF800003FFE
7FF800003FFE
7FFC00003FFE
7FFC00007FFE
7FFC00007FFC
3FFE00007FFC
3FFE0000FFFC
3FFF0001FFFC
1FFF8001FFF8
1FFFC007FFF8
0FFFE00FFFF0
0FFFFFFFFFF0
07FFFFFFFFE0
03FFFFFFFFC0
01FFFFFFFF80
00FFFFFFFF80
007FFFFFFF00
003FFFFFFC00
001FFFFFF800
0007FFFFE000
0001FFFF8000
00001FF80000
ENDCHAR
STARTCHAR 0037
ENCODING 55
SWIDTH 604 0
DWIDTH 58 0
BBX 48 69 3 0
BITMAP
FFFFFFFFFFFF
FFFFFFFFFFFF
FFFFFFFFFFFF
FFFFFFFFFFFF
FFFFFFFFFFFF
FFFFFFFFFFFF
FFFFFFFFFFFF
FFFFFFFFFFFF
FFFFFFFFFFFF
FFFFFFFFFFFE
FFFFFFFFFFFE
000000003FFC
000000003FFC
000000007FF8
000000007FF8
00000000FFF8
00000000FFF0
00000001FFF0
00000001FFE0
00000003FFE0
00000003FFC0
00000007FFC0
00000007FFC0
00000007FF80
0000000FFF80
0000000FFF00
0000001FFF00
0000001FFE00
0000003FFE00
0000003FFE00
0000007FFC00
0000007FFC00
000000FFF800
000000FFF800
000001FFF000
000001FFF000
000001FFE000
000003FFE000
000003FFE000
000007FFC000
000007FFC000
00000FFF8000
00000FFF8000
00001FFF0000
00001FFF0000
00003FFF0000
00003FFE0000
00003FFE0000
00007FFC0000
00007FFC0000
0000FFF80000
0000FFF80000
0001FFF80000
0001FFF00000
0003FFF00000
0003FFE00000
0007FFE00000
0007FFC00000
000FFFC00000
000FFFC00000
000FFF800000
001FFF800000
001FFF000000
003FFF000000
003FFE000000
007FFE000000
007FFC000000
00FFFC000000
00FFFC000000
ENDCHAR
STARTCHAR 0038
ENCODING 56
SWIDTH 604 0
DWIDTH 58 0
BBX 46 71 5 -1
BITMAP
000007800000
0001FFFE0000
000FFFFF8000
003FFFFFE000
007FFFFFF800
00FFFFFFFC00
01FFFFFFFE00
03FFFFFFFF00
07FFFFFFFF80
0FFFFFFFFF80
0FFFFFFFFFC0
1FFFF03FFFE0
1FFFC00FFFE0
1FFF8007FFE0
3FFF0007FFF0
3FFF0003FFF0
3FFE0003FFF0
3FFE0001FFF0
3FFE0001FFF0
3FFE0001FFF0
3FFE0001FFF0
3FFE0001FFF0
3FFE0001FFF0
3FFE0001FFF0
1FFF0003FFE0
1FFF0003FFE0
1FFF8007FFE0
0FFFC00FFFC0
0FFFE01FFFC0
07FFFFFFFF80
03FFFFFFFF00
01FFFFFFFE00
00FFFFFFFC00
007FFFFFF800
001FFFFFE000
007FFFFFF800
00FFFFFFFC00
03FFFFFFFF00
07FFFFFFFF80
0FFFFFFFFFC0
1FFFF01FFFE0
1FFF8007FFE0
3FFF0003FFF0
3FFE0001FFF0
7FFC0000FFF8
7FFC0000FFF8
7FFC0000FFF8
FFF800007FFC
FFF800007FFC
FFF800007FFC
FFF800007FFC
FFF800007FFC
FFF800007FFC
FFF800007FFC
FFFC0000FFFC
FFFC0000FFFC
7FFE0001FFF8
7FFE0003FFF8
7FFF8007FFF8
3FFFC00FFFF0
3FFFFFFFFFF0
1FFFFFFFFFE0
1FFFFFFFFFE0
0FFFFFFFFFC0
07FFFFFFFF80
03FFFFFFFF00
01FFFFFFFE00
007FFFFFF800
001FFFFFE000
0007FFFF8000
00007FF80000
ENDCHAR
STARTCHAR 0039
ENCODING 57
SWIDTH 604 0
DWIDTH 58 0
BBX 46 70 5 -1
BITMAP
00003FF00000
0003FFFE0000
000FFFFF8000
003FFFFFE000
007FFFFFF000
00FFFFFFFC00
01FFFFFFFE00
03FFFFFFFF00
07FFFFFFFF00
0FFFFFFFFF80
0FFFFFFFFFC0
1FFFE01FFFC0
1FFF800FFFE0
3FFF0007FFE0
3FFF0003FFF0
7FFE0001FFF0
7FFE0001FFF0
7FFC0000FFF8
7FFC0000FFF8
FFFC0000FFF8
FFF800007FF8
FFF800007FF8
FFF800007FFC
FFF800007FFC
FFF800007FFC
FFF800007FFC
FFF800007FFC
FFF800007FFC
FFFC00007FFC
FFFC00007FFC
7FFC00007FFC
7FFE0000FFFC
7FFE0000FFFC
7FFF0001FFFC
3FFF8003FFFC
3FFFC007FFFC
3FFFF03FFFFC
1FFFFFFFFFFC
1FFFFFFFFFFC
0FFFFFFFFFFC
07FFFFFFFFF8
03FFFFFFFFF8
01FFFFFFFFF8
00FFFFFF7FF8
007FFFFCFFF8
001FFFF8FFF8
0007FFE0FFF0
00001C00FFF0
00000001FFF0
00000001FFE0
00000003FFE0
00000003FFE0
00000007FFC0
0000000FFFC0
0000001FFF80
0000003FFF00
0000007FFF00
000003FFFE00
00001FFFFC00
003FFFFFFC00
003FFFFFF800
003FFFFFF000
003FFFFFE000
003FFFFF8000
003FFFFF0000
003FFFFC0000
003FFFF00000
003FFFC00000
003FFE000000
003FE0000000
ENDCHAR
STARTCHAR 003A
ENCODING 58
SWIDTH 593 0
DWIDTH 57 0
BBX 18 56 20 -1
BITMAP
03F000
0FFC00
3FFF00
3FFF00
7FFF80
FFFF80
FFFFC0
FFFFC0
FFFFC0
FFFFC0
FFFFC0
FFFFC0
7FFF80
7FFF80
3FFF00
0FFE00
07F000
000000
000000
000000
000000
000000
000000
000000
000000
000000
000000
000000
000000
000000
000000
000000
000000
000000
000000
000000
000000
000000
000000
03F000
0FFC00
3FFF00
3FFF00
7FFF80
FFFF80
FFFFC0
FFFFC0
FFFFC0
FFFFC0
FFFFC0
FFFFC0
7FFF80
7FFF80
3FFF00
0FFE00
07F000
ENDCHAR
STARTCHAR 003B
ENCODING 59
SWIDTH 593 0
DWIDTH 57 0
BBX 20 74 20 -19
BITMAP
00FC00
03FF00
0FFFC0
0FFFC0
1FFFE0
3FFFE0
3FFFF0
3FFFF0
3FFFF0
3FFFF0
3FFFF0
3FFFF0
1FFFE0
1FFFE0
0FFFC0
03FF80
01FC00
000000
000000
000000
000000
000000
000000
000000
000000
000000
000000
000000
000000
000000
000000
000000
000000
000000
000000
000000
000000
000000
000000
000000
000000
000000
000000
0FFF00
0FFF00
0FFF00
0FFF00
0FFF00
0FFF00
0FFF00
0FFF00
0FFF00
0FFF00
0FFF00
0FFF00
0FFF00
0FFF00
0FFF00
0FFF00
0FFE00
0FFE00
1FFE00
1FFC00
1FFC00
1FFC00
3FF800
3FF800
7FF000
7FE000
7FE000
FFC000
3F8000
0F0000
060000
ENDCHAR
STARTCHAR 003C
ENCODING 60
SWIDTH 593 0
DWIDTH 57 0
BBX 42 45 7 7
BITMAP
0000000000C0
0000000003C0
000000001FC0
000000007FC0
00000001FFC0
0000000FFFC0
0000003FFFC0
000001FFFFC0
000007FFFFC0
00001FFFFFC0
0000FFFFFFC0
0003FFFFFFC0
001FFFFFFFC0
007FFFFFFE00
01FFFFFFF000
0FFFFFFF8000
3FFFFFFC0000
FFFFFFE00000
FFFFFF800000
FFFFFC000000
FFFFE0000000
FFFF00000000
FFF800000000
FFFE00000000
FFFFC0000000
FFFFF8000000
FFFFFF000000
FFFFFFE00000
7FFFFFFC0000
0FFFFFFF8000
03FFFFFFF000
007FFFFFFE00
001FFFFFFFC0
0007FFFFFFC0
0000FFFFFFC0
00003FFFFFC0
000007FFFFC0
000001FFFFC0
0000007FFFC0
0000000FFFC0
00000003FFC0
000000007FC0
000000001FC0
0000000007C0
0000000000C0
ENDCHAR
STARTCHAR 003D
ENCODING 61
SWIDTH 593 0
DWIDTH 57 0
BBX 44 31 7 14
BITMAP
FFFFFFFFFFF0
FFFFFFFFFFF0
FFFFFFFFFFF0
FFFFFFFFFFF0
FFFFFFFFFFF0
FFFFFFFFFFF0
FFFFFFFFFFF0
FFFFFFFFFFF0
FFFFFFFFFFF0
FFFFFFFFFFF0
FFFFFFFFFFF0
000000000000
000000000000
000000000000
000000000000
000000000000
000000000000
000000000000
000000000000
000000000000
FFFFFFFFFFF0
FFFFFFFFFFF0
FFFFFFFFFFF0
FFFFFFFFFFF0
FFFFFFFFFFF0
FFFFFFFFFFF0
FFFFFFFFFFF0
FFFFFFFFFFF0
FFFFFFFFFFF0
FFFFFFFFFFF0
FFFFFFFFFFF0
ENDCHAR
STARTCHAR 003E
ENCODING 62
SWIDTH 604 0
DWIDTH 58 0
BBX 42 45 8 7
BITMAP
800000000000
F00000000000
FC0000000000
FF8000000000
FFE000000000
FFFC00000000
FFFF00000000
FFFFC0000000
FFFFF8000000
FFFFFE000000
FFFFFFC00000
FFFFFFF00000
FFFFFFFE0000
1FFFFFFF8000
03FFFFFFE000
007FFFFFFC00
000FFFFFFF00
0001FFFFFFC0
00003FFFFFC0
000007FFFFC0
000000FFFFC0
0000001FFFC0
00000003FFC0
0000001FFFC0
000000FFFFC0
000007FFFFC0
00003FFFFFC0
0001FFFFFFC0
000FFFFFFF80
007FFFFFFC00
03FFFFFFF000
1FFFFFFF8000
FFFFFFFE0000
FFFFFFF80000
FFFFFFC00000
FFFFFF000000
FFFFF8000000
FFFFE0000000
FFFF00000000
FFFC00000000
FFF000000000
FF8000000000
FE0000000000
F00000000000
C00000000000
ENDCHAR
STARTCHAR 003F
ENCODING 63
SWIDTH 593 0
DWIDTH 57 0
BBX 44 70 7 -1
BITMAP
0000FFF00000
000FFFFF0000
003FFFFFE000
00FFFFFFF800
01FFFFFFFC00
07FFFFFFFE00
0FFFFFFFFF00
0FFFFFFFFF80
1FFFFFFFFF80
3FFFFFFFFFC0
3FFFFFFFFFE0
7FFF801FFFE0
7FFF0007FFE0
7FFE0003FFE0
FFFC0003FFF0
FFFC0003FFF0
FFF80001FFF0
FFF80001FFF0
FFF80001FFF0
00000001FFF0
00000001FFF0
00000001FFF0
00000003FFF0
00000003FFE0
00000007FFE0
00000007FFE0
0000000FFFC0
0000001FFFC0
0000003FFF80
0000007FFF00
000000FFFF00
000001FFFE00
000003FFFC00
000007FFF800
00000FFFF000
00001FFFE000
00003FFFC000
00003FFF8000
00007FFF0000
00007FFE0000
00007FFC0000
0000FFF80000
0000FFF80000
0000FFF00000
0000FFF00000
0000FFF00000
0000FFF00000
0000FFF00000
0000FFF00000
000000000000
000000000000
000000000000
000000000000
000000000000
000000000000
000000000000
00003F000000
00007FC00000
0000FFE00000
0001FFF00000
0003FFF80000
0003FFF80000
0003FFF80000
0003FFF80000
0003FFF80000
0003FFF80000
0001FFF00000
0001FFE00000
0000FFC00000
00003F800000
ENDCHAR
STARTCHAR 0040
ENCODING 64
SWIDTH 604 0
DWIDTH 58 0
BBX 53 68 2 0
BITMAP
000000FFC00000
00000FFFFC0000
00003FFFFF0000
0000FFFFFFC000
0001FFFFFFE000
0007FFFFFFF000
000FFFFFFFFC00
001FFF803FFC00
003FFC0007FE00
007FF00001FF00
00FFC00000FF80
00FF8000007F80
01FF0000003FC0
03FE0000001FC0
03FC003FE01FE0
07FC00FFF80FE0
0FF803FFFE0FE0
0FF007FFFF0FF0
1FF00FFFFF07F0
1FE01FFFFF07F0
1FE03FFFFF07F0
3FC03FF0FF07F0
3FC07FC0FF03F8
3FC07F80FF03F8
7F80FF80FE03F8
7F80FF00FE03F8
7F81FF00FE03F8
7F81FE00FE03F8
7F81FE00FE03F8
FF01FE00FE03F8
FF03FC00FE03F8
FF03FC00FE03F8
FF03FC01FE03F8
FF03FC01FE03F8
FF03FC01FE03F8
FF03FC01FE03F8
FF07FC01FC07F0
FF07FC01FC07F0
FF07FC01FC07F0
FF07FC01FC07F0
FF03FC01FC07E0
FF03FC01FC0FE0
FF03FC01FC0FE0
FF03FE03FC1FC0
7F83FF07FC1FC0
7F83FF9FFE3FC0
7F81FFFFFFFF80
7F81FFFFFFFF00
7FC0FFFFFFFF00
3FC0FFFEFFFE00
3FC07FFC7FFC00
3FE01FF83FF800
3FE007E00FC000
1FF00000000000
1FF00000000000
0FF80000000000
0FFC0000000000
07FE0000000000
03FF0000040000
03FFC0001C0000
01FFFC01FC0000
00FFFFFFFC0000
007FFFFFFE0000
003FFFFFFE0000
000FFFFFFE0000
0003FFFFFC0000
0000FFFFE00000
00000FFE000000
ENDCHAR
STARTCHAR 0041
ENCODING 65
SWIDTH 604 0
DWIDTH 58 0
BBX 57 70 1 -1
BITMAP
000001FFE0000000
000003FFE0000000
000003FFE0000000
000003FFF0000000
000007FFF0000000
000007FFF0000000
000007FFF8000000
00000FFFF8000000
00000FFFF8000000
00000FFFFC000000
00001FFFFC000000
00001FFFFC000000
00001FFFFC000000
00003FFFFE000000
00003FFFFE000000
00003FFFFE000000
00007FFFFF000000
00007FFFFF000000
00007FFFFF000000
00007FF7FF800000
0000FFF7FF800000
0000FFF7FF800000
0000FFE3FFC00000
0001FFE3FFC00000
0001FFE3FFC00000
0001FFE1FFE00000
0003FFC1FFE00000
0003FFC1FFE00000
0003FFC1FFF00000
0007FFC0FFF00000
0007FF80FFF00000
0007FF80FFF00000
000FFF80FFF80000
000FFF007FF80000
000FFF007FF80000
001FFF007FFC0000
001FFF003FFC0000
001FFE003FFC0000
003FFE003FFE0000
003FFE003FFE0000
003FFC001FFE0000
007FFC001FFF0000
007FFC001FFF0000
007FFC001FFF0000
00FFFFFFFFFF8000
00FFFFFFFFFF8000
00FFFFFFFFFF8000
01FFFFFFFFFFC000
01FFFFFFFFFFC000
01FFFFFFFFFFC000
03FFFFFFFFFFE000
03FFFFFFFFFFE000
03FFFFFFFFFFE000
07FFFFFFFFFFE000
07FFFFFFFFFFF000
07FFC00001FFF000
07FFC00001FFF000
0FFFC00001FFF800
0FFF800000FFF800
0FFF800000FFF800
1FFF800000FFFC00
1FFF000000FFFC00
1FFF0000007FFC00
3FFF0000007FFE00
3FFF0000007FFE00
3FFE0000003FFE00
7FFE0000003FFF00
7FFE0000003FFF00
7FFC0000003FFF00
FFFC0000001FFF80
ENDCHAR
STARTCHAR 0042
ENCODING 66
SWIDTH 593 0
DWIDTH 57 0
BBX 49 69 6 0
BITMAP
FFFFFFC0000000
FFFFFFFF800000
FFFFFFFFF00000
FFFFFFFFFE0000
FFFFFFFFFF0000
FFFFFFFFFFC000
FFFFFFFFFFE000
FFFFFFFFFFF000
FFFFFFFFFFF800
FFFFFFFFFFF800
FFFFFFFFFFFC00
FFF8000FFFFE00
FFF80001FFFE00
FFF80000FFFE00
FFF800007FFF00
FFF800003FFF00
FFF800003FFF00
FFF800001FFF00
FFF800001FFF00
FFF800001FFF00
FFF800001FFF00
FFF800001FFF00
FFF800001FFF00
FFF800003FFE00
FFF800003FFE00
FFF800007FFE00
FFF80000FFFC00
FFF80001FFFC00
FFF8000FFFF800
FFFFFFFFFFF000
FFFFFFFFFFE000
FFFFFFFFFFC000
FFFFFFFFFF0000
FFFFFFFFFC0000
FFFFFFFFFF0000
FFFFFFFFFFC000
FFFFFFFFFFF000
FFFFFFFFFFF800
FFFFFFFFFFFC00
FFF80003FFFC00
FFF80000FFFE00
FFF800007FFF00
FFF800003FFF00
FFF800001FFF00
FFF800001FFF80
FFF800000FFF80
FFF800000FFF80
FFF800000FFF80
FFF800000FFF80
FFF800000FFF80
FFF800000FFF80
FFF800000FFF80
FFF800001FFF80
FFF800001FFF80
FFF800003FFF00
FFF800007FFF00
FFF80000FFFF00
FFF80003FFFE00
FFFFFFFFFFFE00
FFFFFFFFFFFC00
FFFFFFFFFFFC00
FFFFFFFFFFF800
FFFFFFFFFFF000
FFFFFFFFFFE000
FFFFFFFFFFC000
FFFFFFFFFF0000
FFFFFFFFFC0000
FFFFFFFFF00000
FFFFFFFE000000
ENDCHAR
STARTCHAR 0043
ENCODING 67
SWIDTH 604 0
DWIDTH 58 0
BBX 50 71 4 -1
BITMAP
000001F0000000
00003FFFC00000
0001FFFFF80000
0007FFFFFE0000
000FFFFFFF0000
003FFFFFFFC000
007FFFFFFFE000
00FFFFFFFFF000
01FFFFFFFFF800
03FFFFFFFFFC00
03FFFFFFFFFC00
07FFFC03FFFE00
0FFFF000FFFE00
0FFFC0007FFF00
1FFF80003FFF00
1FFF80001FFF80
1FFF00000FFF80
3FFE00000FFF80
3FFE00000FFF80
3FFE000007FFC0
7FFC000007FFC0
7FFC000007FFC0
7FFC000007FFC0
7FFC0000000000
FFF80000000000
FFF80000000000
FFF80000000000
FFF80000000000
FFF80000000000
FFF80000000000
FFF80000000000
FFF80000000000
FFF80000000000
FFF80000000000
FFF80000000000
FFF80000000000
FFF80000000000
FFF80000000000
FFF80000000000
FFF80000000000
FFF80000000000
FFF80000000000
FFF80000000000
FFF80000000000
FFF80000000000
FFF80000000000
FFF80000000000
FFF80000000000
7FFC0000000000
7FFC000007FFC0
7FFC000007FFC0
7FFC000007FFC0
3FFE000007FFC0
3FFE00000FFFC0
3FFE00000FFF80
1FFF00001FFF80
1FFF80001FFF80
1FFF80003FFF00
0FFFE0007FFF00
07FFF001FFFE00
07FFFFFFFFFE00
03FFFFFFFFFC00
01FFFFFFFFF800
01FFFFFFFFF000
00FFFFFFFFE000
003FFFFFFFC000
001FFFFFFF8000
000FFFFFFE0000
0003FFFFFC0000
0000FFFFE00000
00000FFE000000
ENDCHAR
STARTCHAR 0044
ENCODING 68
SWIDTH 593 0
DWIDTH 57 0
BBX 47 69 6 0
BITMAP
FFFFE0000000
FFFFFFC00000
FFFFFFF80000
FFFFFFFE0000
FFFFFFFF8000
FFFFFFFFE000
FFFFFFFFF000
FFFFFFFFF800
FFFFFFFFFC00
FFFFFFFFFE00
FFFFFFFFFF00
FFF803FFFF80
FFF800FFFF80
FFF8003FFFC0
FFF8000FFFE0
FFF80007FFE0
FFF80003FFF0
FFF80003FFF0
FFF80001FFF8
FFF80001FFF8
FFF80000FFF8
FFF80000FFFC
FFF800007FFC
FFF800007FFC
FFF800007FFC
FFF800007FFE
FFF800003FFE
FFF800003FFE
FFF800003FFE
FFF800003FFE
FFF800003FFE
FFF800003FFE
FFF800003FFE
FFF800003FFE
FFF800003FFE
FFF800003FFE
FFF800003FFE
FFF800003FFE
FFF800003FFE
FFF800003FFE
FFF800003FFE
FFF800003FFE
FFF800003FFE
FFF800003FFE
FFF800007FFC
FFF800007FFC
FFF800007FFC
FFF800007FFC
FFF80000FFF8
FFF80000FFF8
FFF80001FFF8
FFF80001FFF0
FFF80003FFF0
FFF80007FFF0
FFF8000FFFE0
FFF8001FFFC0
FFF8003FFFC0
FFF800FFFF80
FFFFFFFFFF00
FFFFFFFFFF00
FFFFFFFFFE00
FFFFFFFFFC00
FFFFFFFFF800
FFFFFFFFE000
FFFFFFFFC000
FFFFFFFF0000
FFFFFFFC0000
FFFFFFF00000
FFFFFF000000
ENDCHAR
STARTCHAR 0045
ENCODING 69
SWIDTH 604 0
DWIDTH 58 0
BBX 46 69 7 0
BITMAP
FFFFFFFFFFFC
FFFFFFFFFFFC
FFFFFFFFFFFC
FFFFFFFFFFFC
FFFFFFFFFFFC
FFFFFFFFFFFC
FFFFFFFFFFFC
FFFFFFFFFFFC
FFFFFFFFFFFC
FFFFFFFFFFFC
FFFFFFFFFFFC
FFF800000000
FFF800000000
FFF800000000
FFF800000000
FFF800000000
FFF800000000
FFF800000000
FFF800000000
FFF800000000
FFF800000000
FFF800000000
FFF800000000
FFF800000000
FFF800000000
FFF800000000
FFF800000000
FFF800000000
FFFFFFFFFFC0
FFFFFFFFFFC0
FFFFFFFFFFC0
FFFFFFFFFFC0
FFFFFFFFFFC0
FFFFFFFFFFC0
FFFFFFFFFFC0
FFFFFFFFFFC0
FFFFFFFFFFC0
FFFFFFFFFFC0
FFFFFFFFFFC0
FFF800000000
FFF800000000
FFF800000000
FFF800000000
FFF800000000
FFF800000000
FFF800000000
FFF800000000
FFF800000000
FFF800000000
FFF800000000
FFF800000000
FFF800000000
FFF800000000
FFF800000000
FFF800000000
FFF800000000
FFF800000000
FFF800000000
FFFFFFFFFFFC
FFFFFFFFFFFC
FFFFFFFFFFFC
FFFFFFFFFFFC
FFFFFFFFFFFC
FFFFFFFFFFFC
FFFFFFFFFFFC
FFFFFFFFFFFC
FFFFFFFFFFFC
FFFFFFFFFFFC
FFFFFFFFFFFC
ENDCHAR
STARTCHAR 0046
ENCODING 70
SWIDTH 604 0
DWIDTH 58 0
BBX 46 69 7 -1
BITMAP
FFFFFFFFFFFC
FFFFFFFFFFFC
FFFFFFFFFFFC
FFFFFFFFFFFC
FFFFFFFFFFFC
FFFFFFFFFFFC
FFFFFFFFFFFC
FFFFFFFFFFFC
FFFFFFFFFFFC
FFFFFFFFFFFC
FFFFFFFFFFFC
FFF800000000
FFF800000000
FFF800000000
FFF800000000
FFF800000000
FFF800000000
FFF800000000
FFF800000000
FFF800000000
FFF800000000
FFF800000000
FFF800000000
FFF800000000
FFF800000000
FFF800000000
FFF800000000
FFF800000000
FFF800000000
FFFFFFFFFFE0
FFFFFFFFFFE0
FFFFFFFFFFE0
FFFFFFFFFFE0
FFFFFFFFFFE0
FFFFFFFFFFE0
FFFFFFFFFFE0
FFFFFFFFFFE0
FFFFFFFFFFE0
FFFFFFFFFFE0
FFFFFFFFFFE0
FFF800000000
FFF800000000
FFF800000000
FFF800000000
FFF800000000
FFF800000000
FFF800000000
FFF800000000
FFF800000000
FFF800000000
FFF800000000
FFF800000000
FFF800000000
FFF800000000
FFF800000000
FFF800000000
FFF800000000
FFF800000000
FFF800000000
FFF800000000
FFF800000000
FFF800000000
FFF800000000
FFF800000000
FFF800000000
FFF800000000
FFF800000000
FFF800000000
FFF800000000
ENDCHAR
STARTCHAR 0047
ENCODING 71
SWIDTH 604 0
DWIDTH 58 0
BBX 49 71 4 -1
BITMAP
000001E0000000
00003FFFC00000
0001FFFFF00000
0007FFFFFE0000
000FFFFFFF0000
003FFFFFFF8000
007FFFFFFFE000
00FFFFFFFFF000
01FFFFFFFFF000
03FFFFFFFFF800
03FFFFFFFFFC00
07FFFC07FFFC00
0FFFF000FFFE00
0FFFE0007FFE00
1FFFC0003FFE00
1FFF80003FFF00
3FFF00001FFF00
3FFF00001FFF00
3FFE00000FFF00
7FFE00000FFF80
7FFE00000FFF80
7FFC00000FFF80
7FFC0000000000
7FFC0000000000
FFFC0000000000
FFF80000000000
FFF80000000000
FFF80000000000
FFF80000000000
FFF80000000000
FFF80000000000
FFF80000000000
FFF80000000000
FFF80000000000
FFF80000000000
FFF800FFFFFF80
FFF800FFFFFF80
FFF800FFFFFF80
FFF800FFFFFF80
FFF800FFFFFF80
FFF800FFFFFF80
FFF800FFFFFF80
FFF800FFFFFF80
FFF800FFFFFF80
FFF800FFFFFF80
FFF800000FFF80
FFF800000FFF80
FFFC00000FFF80
7FFC00000FFF80
7FFC00000FFF80
7FFC00000FFF80
7FFC00000FFF80
3FFE00000FFF80
3FFE00000FFF80
3FFF00000FFF80
1FFF00000FFF80
1FFF80000FFF80
1FFFC0000FFF80
0FFFE0001FFF80
0FFFF800FFFF80
07FFFFFFFFFF80
03FFFFFFFFFF80
01FFFFFFFFFF80
01FFFFFFFFFF00
00FFFFFFFFFE00
007FFFFFFFF800
001FFFFFFFF000
000FFFFFFFC000
0003FFFFFE0000
0000FFFFF00000
00000FFF000000
ENDCHAR
STARTCHAR 0048
ENCODING 72
SWIDTH 593 0
DWIDTH 57 0
BBX 45 69 6 0
BITMAP
FFF80000FFF8
FFF80000FFF8
FFF80000FFF8
FFF80000FFF8
FFF80000FFF8
FFF80000FFF8
FFF80000FFF8
FFF80000FFF8
FFF80000FFF8
FFF80000FFF8
FFF80000FFF8
FFF80000FFF8
FFF80000FFF8
FFF80000FFF8
FFF80000FFF8
FFF80000FFF8
FFF80000FFF8
FFF80000FFF8
FFF80000FFF8
FFF80000FFF8
FFF80000FFF8
FFF80000FFF8
FFF80000FFF8
FFF80000FFF8
FFF80000FFF8
FFF80000FFF8
FFF80000FFF8
FFF80000FFF8
FFFFFFFFFFF8
FFFFFFFFFFF8
FFFFFFFFFFF8
FFFFFFFFFFF8
FFFFFFFFFFF8
FFFFFFFFFFF8
FFFFFFFFFFF8
FFFFFFFFFFF8
FFFFFFFFFFF8
FFFFFFFFFFF8
FFFFFFFFFFF8
FFF80000FFF8
FFF80000FFF8
FFF80000FFF8
FFF80000FFF8
FFF80000FFF8
FFF80000FFF8
FFF80000FFF8
FFF80000FFF8
FFF80000FFF8
FFF80000FFF8
FFF80000FFF8
FFF80000FFF8
FFF80000FFF8
FFF80000FFF8
FFF80000FFF8
FFF80000FFF8
FFF80000FFF8
FFF80000FFF8
FFF80000FFF8
FFF80000FFF8
FFF80000FFF8
FFF80000FFF8
FFF80000FFF8
FFF80000FFF8
FFF80000FFF8
FFF80000FFF8
FFF80000FFF8
FFF80000FFF8
FFF80000FFF8
FFF80000FFF8
ENDCHAR
STARTCHAR 0049
ENCODING 73
SWIDTH 593 0
DWIDTH 57 0
BBX 39 69 9 0
BITMAP
FFFFFFFFFE
FFFFFFFFFE
FFFFFFFFFE
FFFFFFFFFE
FFFFFFFFFE
FFFFFFFFFE
FFFFFFFFFE
FFFFFFFFFE
FFFFFFFFFE
FFFFFFFFFE
FFFFFFFFFE
0007FFC000
0007FFC000
0007FFC000
0007FFC000
0007FFC000
0007FFC000
0007FFC000
0007FFC000
0007FFC000
0007FFC000
0007FFC000
0007FFC000
0007FFC000
0007FFC000
0007FFC000
0007FFC000
0007FFC000
0007FFC000
0007FFC000
0007FFC000
0007FFC000
0007FFC000
0007FFC000
0007FFC000
0007FFC000
0007FFC000
0007FFC000
0007FFC000
0007FFC000
0007FFC000
0007FFC000
0007FFC000
0007FFC000
0007FFC000
0007FFC000
0007FFC000
0007FFC000
0007FFC000
0007FFC000
0007FFC000
0007FFC000
0007FFC000
0007FFC000
0007FFC000
0007FFC000
0007FFC000
0007FFC000
FFFFFFFFFE
FFFFFFFFFE
FFFFFFFFFE
FFFFFFFFFE
FFFFFFFFFE
FFFFFFFFFE
FFFFFFFFFE
FFFFFFFFFE
FFFFFFFFFE
FFFFFFFFFE
FFFFFFFFFE
ENDCHAR
STARTCHAR 004A
ENCODING 74
SWIDTH 593 0
DWIDTH 57 0
BBX 46 70 5 -1
BITMAP
000000007FFC
000000007FFC
000000007FFC
000000007FFC
000000007FFC
000000007FFC
000000007FFC
000000007FFC
000000007FFC
000000007FFC
000000007FFC
000000007FFC
000000007FFC
000000007FFC
000000007FFC
000000007FFC
000000007FFC
000000007FFC
000000007FFC
000000007FFC
000000007FFC
000000007FFC
000000007FFC
000000007FFC
000000007FFC
000000007FFC
000000007FFC
000000007FFC
000000007FFC
000000007FFC
000000007FFC
000000007FFC
000000007FFC
000000007FFC
000000007FFC
000000007FFC
000000007FFC
000000007FFC
000000007FFC
000000007FFC
000000007FFC
000000007FFC
000000007FFC
000000007FFC
000000007FFC
000000007FFC
000000007FFC
000000007FFC
000000007FFC
FFF800007FFC
FFF800007FFC
FFF800007FFC
FFF80000FFFC
FFFC0000FFF8
FFFC0001FFF8
7FFC0001FFF8
7FFE0003FFF0
7FFF0007FFF0
3FFFC01FFFE0
3FFFFFFFFFE0
1FFFFFFFFFC0
1FFFFFFFFFC0
0FFFFFFFFF80
07FFFFFFFF00
03FFFFFFFE00
01FFFFFFF800
007FFFFFF000
003FFFFFC000
0007FFFF0000
00007FF00000
ENDCHAR
STARTCHAR 004B
ENCODING 75
SWIDTH 593 0
DWIDTH 57 0
BBX 52 69 6 0
BITMAP
FFF800001FFFF0
FFF800001FFFE0
FFF800003FFFC0
FFF800007FFF80
FFF800007FFF80
FFF80000FFFF00
FFF80001FFFE00
FFF80003FFFC00
FFF80003FFFC00
FFF80007FFF800
FFF8000FFFF000
FFF8000FFFE000
FFF8001FFFE000
FFF8003FFFC000
FFF8007FFF8000
FFF8007FFF0000
FFF800FFFF0000
FFF801FFFE0000
FFF801FFFC0000
FFF803FFF80000
FFF807FFF80000
FFF80FFFF00000
FFF80FFFE00000
FFF81FFFC00000
FFF83FFFC00000
FFF83FFF800000
FFF87FFF000000
FFF8FFFE000000
FFF9FFFC000000
FFF9FFFC000000
FFFBFFF8000000
FFFFFFFC000000
FFFFFFFC000000
FFFFFFFE000000
FFFFFFFE000000
FFFFFFFF000000
FFFFFFFF800000
FFFFFFFF800000
FFFFFFFFC00000
FFFFFFFFE00000
FFFFFFFFE00000
FFFFF7FFF00000
FFFFE7FFF00000
FFFFC3FFF80000
FFFF83FFFC0000
FFFF01FFFC0000
FFFE00FFFE0000
FFFC00FFFE0000
FFF8007FFF0000
FFF8007FFF8000
FFF8003FFF8000
FFF8001FFFC000
FFF8001FFFE000
FFF8000FFFE000
FFF8000FFFF000
FFF80007FFF000
FFF80003FFF800
FFF80003FFFC00
FFF80001FFFC00
FFF80001FFFE00
FFF80000FFFF00
FFF800007FFF00
FFF800007FFF80
FFF800003FFF80
FFF800003FFFC0
FFF800001FFFE0
FFF800000FFFE0
FFF800000FFFF0
FFF8000007FFF0
ENDCHAR
STARTCHAR 004C
ENCODING 76
SWIDTH 593 0
DWIDTH 57 0
BBX 45 69 7 0
BITMAP
FFF800000000
FFF800000000
FFF800000000
FFF800000000
FFF800000000
FFF800000000
FFF800000000
FFF800000000
FFF800000000
FFF800000000
FFF800000000
FFF800000000
FFF800000000
FFF800000000
FFF800000000
FFF800000000
FFF800000000
FFF800000000
FFF800000000
FFF800000000
FFF800000000
FFF800000000
FFF800000000
FFF800000000
FFF800000000
FFF800000000
FFF800000000
FFF800000000
FFF800000000
FFF800000000
FFF800000000
FFF800000000
FFF800000000
FFF800000000
FFF800000000
FFF800000000
FFF800000000
FFF800000000
FFF800000000
FFF800000000
FFF800000000
FFF800000000
FFF800000000
FFF800000000
FFF800000000
FFF800000000
FFF800000000
FFF800000000
FFF800000000
FFF800000000
FFF800000000
FFF800000000
FFF800000000
FFF800000000
FFF800000000
FFF800000000
FFF800000000
FFF800000000
FFFFFFFFFFF8
FFFFFFFFFFF8
FFFFFFFFFFF8
FFFFFFFFFFF8
FFFFFFFFFFF8
FFFFFFFFFFF8
FFFFFFFFFFF8
FFFFFFFFFFF8
FFFFFFFFFFF8
FFFFFFFFFFF8
FFFFFFFFFFF8
ENDCHAR
STARTCHAR 004D
ENCODING 77
SWIDTH 604 0
DWIDTH 58 0
BBX 47 69 6 0
BITMAP
FFFF8003FFFE
FFFF8003FFFE
FFFF8003FFFE
FFFF8007FFFE
FFFFC007FFFE
FFFFC007FFFE
FFFFC007FFFE
FFFFC00FFFFE
FFFFE00FFFFE
FFFFE00FFFFE
FFFFE01FFFFE
FFFFE01FFFFE
FFFFF01FFFFE
FFFFF01FFFFE
FFFFF03FFFFE
FFFFF03FFFFE
FFFFF83FFFFE
FFFFF87FFFFE
FFFFF87FDFFE
FFF7F87FDFFE
FFF7FC7FDFFE
FFF7FCFF9FFE
FFF7FCFF9FFE
FFF3FCFF9FFE
FFF3FFFF9FFE
FFF3FFFF1FFE
FFF3FFFF1FFE
FFF1FFFF1FFE
FFF1FFFE1FFE
FFF1FFFE1FFE
FFF1FFFE1FFE
FFF0FFFE1FFE
FFF0FFFC1FFE
FFF0FFFC1FFE
FFF07FFC1FFE
FFF07FF81FFE
FFF07FF81FFE
FFF07FF81FFE
FFF03FF81FFE
FFF03FF01FFE
FFF03FF01FFE
FFF03FF01FFE
FFF01FE01FFE
FFF01FE01FFE
FFF01FE01FFE
FFF00FE01FFE
FFF000001FFE
FFF000001FFE
FFF000001FFE
FFF000001FFE
FFF000001FFE
FFF000001FFE
FFF000001FFE
FFF000001FFE
FFF000001FFE
FFF000001FFE
FFF000001FFE
FFF000001FFE
FFF000001FFE
FFF000001FFE
FFF000001FFE
FFF000001FFE
FFF000001FFE
FFF000001FFE
FFF000001FFE
FFF000001FFE
FFF000001FFE
FFF000001FFE
FFF000001FFE
ENDCHAR
STARTCHAR 004E
ENCODING 78
SWIDTH 604 0
DWIDTH 58 0
BBX 45 69 6 0
BITMAP
FFF80000FFF8
FFFC0000FFF8
FFFC0000FFF8
FFFE0000FFF8
FFFE0000FFF8
FFFE0000FFF8
FFFF0000FFF8
FFFF0000FFF8
FFFF8000FFF8
FFFF8000FFF8
FFFFC000FFF8
FFFFC000FFF8
FFFFC000FFF8
FFFFE000FFF8
FFFFE000FFF8
FFFFF000FFF8
FFFFF000FFF8
FFFFF800FFF8
FFFFF800FFF8
FFFFF800FFF8
FFFFFC00FFF8
FFFFFC00FFF8
FFFFFE00FFF8
FFFFFE00FFF8
FFFFFF00FFF8
FFFFFF00FFF8
FFFBFF00FFF8
FFFBFF80FFF8
FFF9FF80FFF8
FFF9FFC0FFF8
FFF8FFC0FFF8
FFF8FFE0FFF8
FFF8FFE0FFF8
FFF87FE0FFF8
FFF87FF0FFF8
FFF83FF0FFF8
FFF83FF8FFF8
FFF81FF8FFF8
FFF81FFCFFF8
FFF81FFCFFF8
FFF80FFCFFF8
FFF80FFEFFF8
FFF807FEFFF8
FFF807FFFFF8
FFF803FFFFF8
FFF803FFFFF8
FFF803FFFFF8
FFF801FFFFF8
FFF801FFFFF8
FFF800FFFFF8
FFF800FFFFF8
FFF8007FFFF8
FFF8007FFFF8
FFF8007FFFF8
FFF8003FFFF8
FFF8003FFFF8
FFF8001FFFF8
FFF8001FFFF8
FFF8000FFFF8
FFF8000FFFF8
FFF8000FFFF8
FFF80007FFF8
FFF80007FFF8
FFF80003FFF8
FFF80003FFF8
FFF80001FFF8
FFF80001FFF8
FFF80001FFF8
FFF80000FFF8
ENDCHAR
STARTCHAR 004F
ENCODING 79
SWIDTH 604 0
DWIDTH 58 0
BBX 50 71 4 -1
BITMAP
000003E0000000
00007FFF000000
0003FFFFE00000
0007FFFFF80000
001FFFFFFC0000
003FFFFFFF0000
007FFFFFFF8000
00FFFFFFFFC000
01FFFFFFFFE000
03FFFFFFFFF000
07FFFFFFFFF000
07FFF80FFFF800
0FFFE003FFFC00
0FFFC000FFFC00
1FFF80007FFE00
1FFF00007FFE00
3FFF00003FFF00
3FFE00001FFF00
3FFE00001FFF00
7FFC00001FFF80
7FFC00000FFF80
7FFC00000FFF80
7FFC00000FFF80
7FF800000FFF80
FFF8000007FFC0
FFF8000007FFC0
FFF8000007FFC0
FFF8000007FFC0
FFF8000007FFC0
FFF8000007FFC0
FFF8000007FFC0
FFF8000007FFC0
FFF8000007FFC0
FFF8000007FFC0
FFF8000007FFC0
FFF8000007FFC0
FFF8000007FFC0
FFF8000007FFC0
FFF8000007FFC0
FFF8000007FFC0
FFF8000007FFC0
FFF8000007FFC0
FFF8000007FFC0
FFF8000007FFC0
FFF8000007FFC0
FFF8000007FFC0
FFF8000007FFC0
FFF800000FFFC0
7FFC00000FFF80
7FFC00000FFF80
7FFC00000FFF80
7FFC00001FFF80
3FFE00001FFF00
3FFE00001FFF00
3FFE00003FFF00
3FFF00003FFE00
1FFF80007FFE00
1FFF8000FFFC00
0FFFC001FFFC00
0FFFF007FFF800
07FFFFFFFFF800
03FFFFFFFFF000
03FFFFFFFFE000
01FFFFFFFFC000
00FFFFFFFF8000
007FFFFFFF0000
003FFFFFFE0000
000FFFFFFC0000
0003FFFFF00000
0000FFFFC00000
00000FFC000000
ENDCHAR
STARTCHAR 0050
ENCODING 80
SWIDTH 604 0
DWIDTH 58 0
BBX 48 69 7 0
BITMAP
FFFFFFC00000
FFFFFFFF0000
FFFFFFFFE000
FFFFFFFFF800
FFFFFFFFFE00
FFFFFFFFFF00
FFFFFFFFFF80
FFFFFFFFFFC0
FFFFFFFFFFE0
FFFFFFFFFFF0
FFFFFFFFFFF8
FFF8001FFFF8
FFF80003FFFC
FFF80001FFFC
FFF80000FFFE
FFF800007FFE
FFF800003FFE
FFF800003FFE
FFF800003FFF
FFF800001FFF
FFF800001FFF
FFF800001FFF
FFF800001FFF
FFF800001FFF
FFF800001FFF
FFF800001FFF
FFF800003FFF
FFF800003FFE
FFF800007FFE
FFF800007FFE
FFF80000FFFE
FFF80001FFFC
FFF80007FFFC
FFFFFFFFFFF8
FFFFFFFFFFF0
FFFFFFFFFFF0
FFFFFFFFFFE0
FFFFFFFFFFC0
FFFFFFFFFF80
FFFFFFFFFE00
FFFFFFFFFC00
FFFFFFFFF000
FFFFFFFF8000
FFFFFFF80000
FFF800000000
FFF800000000
FFF800000000
FFF800000000
FFF800000000
FFF800000000
FFF800000000
FFF800000000
FFF800000000
FFF800000000
FFF800000000
FFF800000000
FFF800000000
FFF800000000
FFF800000000
FFF800000000
FFF800000000
FFF800000000
FFF800000000
FFF800000000
FFF800000000
FFF800000000
FFF800000000
FFF800000000
FFF800000000
ENDCHAR
STARTCHAR 0051
ENCODING 81
SWIDTH 593 0
DWIDTH 57 0
BBX 53 82 4 -12
BITMAP
000001E0000000
00007FFF000000
0001FFFFE00000
0007FFFFF80000
001FFFFFFC0000
003FFFFFFF0000
007FFFFFFF8000
00FFFFFFFFC000
01FFFFFFFFE000
03FFFFFFFFF000
07FFFFFFFFF000
07FFF80FFFF800
0FFFE003FFFC00
0FFFC000FFFC00
1FFF80007FFE00
1FFF00007FFE00
3FFF00003FFE00
3FFE00001FFF00
3FFE00001FFF00
7FFC00001FFF00
7FFC00000FFF80
7FFC00000FFF80
7FFC00000FFF80
7FFC00000FFF80
FFF8000007FFC0
FFF8000007FFC0
FFF8000007FFC0
FFF8000007FFC0
FFF8000007FFC0
FFF8000007FFC0
FFF8000007FFC0
FFF8000007FFC0
FFF8000007FFC0
FFF8000007FFC0
FFF8000007FFC0
FFF8000007FFC0
FFF8000007FFC0
FFF8000007FFC0
FFF8000007FFC0
FFF8000007FFC0
FFF8000007FFC0
FFF8000007FFC0
FFF8000007FFC0
FFF8000007FFC0
FFF8000007FFC0
FFF8000007FFC0
FFF8000007FFC0
FFF8000007FFC0
FFF800000FFFC0
7FFC00000FFF80
7FFC00000FFF80
7FFC00000FFF80
7FFC00001FFF80
3FFE00001FFF00
3FFE00003FFF00
3FFF00003FFF00
1FFF80007FFE00
1FFF8000FFFE00
0FFFC001FFFC00
0FFFF007FFFC00
07FFFFFFFFF800
03FFFFFFFFF000
03FFFFFFFFF000
01FFFFFFFFE000
00FFFFFFFFC000
007FFFFFFFE000
003FFFFFFFF000
000FFFFFFFF800
0003FFFFFFFC00
0000FFFFFFFE00
00000FFCFFFF00
000000007FFFC0
000000003FFFE0
000000001FFFF0
000000000FFFF8
0000000007FFF0
0000000003FFE0
0000000001FFC0
00000000007F80
00000000003F00
00000000001C00
00000000000800
ENDCHAR
STARTCHAR 0052
ENCODING 82
SWIDTH 604 0
DWIDTH 58 0
BBX 50 69 6 0
BITMAP
FFFFFFF8000000
FFFFFFFFC00000
FFFFFFFFF00000
FFFFFFFFFE0000
FFFFFFFFFF0000
FFFFFFFFFF8000
FFFFFFFFFFE000
FFFFFFFFFFF000
FFFFFFFFFFF000
FFFFFFFFFFF800
FFFFFFFFFFFC00
FFF80007FFFC00
FFF80001FFFE00
FFF80000FFFE00
FFF800007FFE00
FFF800003FFE00
FFF800003FFF00
FFF800003FFF00
FFF800001FFF00
FFF800001FFF00
FFF800001FFF00
FFF800001FFF00
FFF800001FFF00
FFF800001FFF00
FFF800001FFF00
FFF800003FFF00
FFF800003FFE00
FFF800003FFE00
FFF800007FFE00
FFF80000FFFC00
FFF80001FFFC00
FFF80007FFF800
FFFFFFFFFFF800
FFFFFFFFFFF000
FFFFFFFFFFE000
FFFFFFFFFFC000
FFFFFFFFFF8000
FFFFFFFFFF0000
FFFFFFFFFC0000
FFFFFFFFF00000
FFFFFFFFF00000
FFFFFFFFF80000
FFFFFFFFF80000
FFF800FFFC0000
FFF800FFFC0000
FFF8007FFE0000
FFF8007FFE0000
FFF8003FFF0000
FFF8003FFF0000
FFF8001FFF8000
FFF8001FFF8000
FFF8000FFFC000
FFF8000FFFC000
FFF80007FFE000
FFF80007FFE000
FFF80003FFF000
FFF80003FFF000
FFF80001FFF800
FFF80001FFFC00
FFF80000FFFC00
FFF80000FFFE00
FFF800007FFE00
FFF800007FFF00
FFF800003FFF00
FFF800003FFF80
FFF800001FFF80
FFF800001FFFC0
FFF800000FFFC0
FFF800000FFFC0
ENDCHAR
STARTCHAR 0053
ENCODING 83
SWIDTH 593 0
DWIDTH 57 0
BBX 50 71 4 -1
BITMAP
000000F0000000
00007FFFC00000
0003FFFFF80000
000FFFFFFE0000
003FFFFFFF8000
007FFFFFFFC000
00FFFFFFFFF000
01FFFFFFFFF000
03FFFFFFFFF800
07FFFFFFFFFC00
0FFFFFFFFFFE00
0FFFFC03FFFE00
1FFFE000FFFF00
1FFFC0003FFF00
1FFF80001FFF80
3FFF00001FFF80
3FFF00000FFF80
3FFE00000FFFC0
3FFE000007FFC0
3FFE000007FFC0
3FFE000007FFC0
3FFE000007FFC0
3FFF0000000000
3FFF0000000000
1FFF8000000000
1FFFC000000000
1FFFF000000000
0FFFF800000000
0FFFFF00000000
07FFFFE0000000
03FFFFFC000000
01FFFFFF800000
00FFFFFFE00000
007FFFFFFC0000
003FFFFFFE0000
001FFFFFFF8000
0007FFFFFFC000
0001FFFFFFE000
00007FFFFFF000
00001FFFFFF800
000001FFFFFC00
0000003FFFFE00
00000007FFFE00
00000001FFFF00
000000007FFF00
000000003FFF80
000000001FFF80
000000000FFFC0
000000000FFFC0
FFF8000007FFC0
FFF8000007FFC0
FFF8000007FFC0
FFF8000007FFC0
FFFC000007FFC0
7FFC000007FFC0
7FFE00000FFFC0
7FFF00000FFFC0
3FFF00001FFF80
3FFFC0003FFF80
1FFFF000FFFF80
1FFFFFFFFFFF00
0FFFFFFFFFFE00
07FFFFFFFFFE00
03FFFFFFFFFC00
01FFFFFFFFF800
00FFFFFFFFF000
003FFFFFFFE000
001FFFFFFF8000
0003FFFFFE0000
0000FFFFF80000
000007FF000000
ENDCHAR
STARTCHAR 0054
ENCODING 84
SWIDTH 593 0
DWIDTH 57 0
BBX 55 69 1 0
BITMAP
FFFFFFFFFFFFFE
FFFFFFFFFFFFFE
FFFFFFFFFFFFFE
FFFFFFFFFFFFFE
FFFFFFFFFFFFFE
FFFFFFFFFFFFFE
FFFFFFFFFFFFFE
FFFFFFFFFFFFFE
FFFFFFFFFFFFFE
FFFFFFFFFFFFFE
FFFFFFFFFFFFFE
000007FFC00000
000007FFC00000
000007FFC00000
000007FFC00000
000007FFC00000
000007FFC00000
000007FFC00000
000007FFC00000
000007FFC00000
000007FFC00000
000007FFC00000
000007FFC00000
000007FFC00000
000007FFC00000
000007FFC00000
000007FFC00000
000007FFC00000
000007FFC00000
000007FFC00000
000007FFC00000
000007FFC00000
000007FFC00000
000007FFC00000
000007FFC00000
000007FFC00000
000007FFC00000
000007FFC00000
000007FFC00000
000007FFC00000
000007FFC00000
000007FFC00000
000007FFC00000
000007FFC00000
000007FFC00000
000007FFC00000
000007FFC00000
000007FFC00000
000007FFC00000
000007FFC00000
000007FFC00000
000007FFC00000
000007FFC00000
000007FFC00000
000007FFC00000
000007FFC00000
000007FFC00000
000007FFC00000
000007FFC00000
000007FFC00000
000007FFC00000
000007FFC00000
000007FFC00000
000007FFC00000
000007FFC00000
000007FFC00000
000007FFC00000
000007FFC00000
000007FFC00000
ENDCHAR
STARTCHAR 0055
ENCODING 85
SWIDTH 604 0
DWIDTH 58 0
BBX 46 70 6 -1
BITMAP
FFF800007FFC
FFF800007FFC
FFF800007FFC
FFF800007FFC
FFF800007FFC
FFF800007FFC
FFF800007FFC
FFF800007FFC
FFF800007FFC
FFF800007FFC
FFF800007FFC
FFF800007FFC
FFF800007FFC
FFF800007FFC
FFF800007FFC
FFF800007FFC
FFF800007FFC
FFF800007FFC
FFF800007FFC
FFF800007FFC
FFF800007FFC
FFF800007FFC
FFF800007FFC
FFF800007FFC
FFF800007FFC
FFF800007FFC
FFF800007FFC
FFF800007FFC
FFF800007FFC
FFF800007FFC
FFF800007FFC
FFF800007FFC
FFF800007FFC
FFF800007FFC
FFF800007FFC
FFF800007FFC
FFF800007FFC
FFF800007FFC
FFF800007FFC
FFF800007FFC
FFF800007FFC
FFF800007FFC
FFF800007FFC
FFF800007FFC
FFF800007FFC
FFF800007FFC
FFF800007FFC
FFF800007FFC
FFF800007FFC
FFF800007FFC
FFF800007FFC
FFFC0000FFFC
7FFC0000FFF8
7FFC0000FFF8
7FFE0001FFF8
7FFE0001FFF8
3FFF0003FFF0
3FFF8007FFF0
1FFFC01FFFE0
1FFFFFFFFFE0
0FFFFFFFFFC0
0FFFFFFFFFC0
07FFFFFFFF80
03FFFFFFFF00
01FFFFFFFE00
00FFFFFFFC00
003FFFFFF000
001FFFFFE000
0003FFFF0000
00007FF80000
ENDCHAR
STARTCHAR 0056
ENCODING 86
SWIDTH 604 0
DWIDTH 58 0
BBX 55 69 1 0
BITMAP
FFFE0000007FFE
7FFE000000FFFE
7FFF000000FFFE
7FFF000000FFFC
3FFF000000FFFC
3FFF000001FFFC
3FFF800001FFF8
1FFF800001FFF8
1FFF800001FFF8
1FFF800003FFF0
1FFFC00003FFF0
0FFFC00003FFF0
0FFFC00003FFF0
0FFFC00007FFE0
07FFE00007FFE0
07FFE00007FFE0
07FFE0000FFFC0
03FFE0000FFFC0
03FFF0000FFFC0
03FFF0000FFF80
03FFF0001FFF80
01FFF0001FFF80
01FFF8001FFF80
01FFF8001FFF00
00FFF8003FFF00
00FFF8003FFF00
00FFFC003FFE00
007FFC003FFE00
007FFC007FFE00
007FFE007FFC00
007FFE007FFC00
003FFE007FFC00
003FFE00FFFC00
003FFF00FFF800
001FFF00FFF800
001FFF00FFF800
001FFF01FFF000
000FFF81FFF000
000FFF81FFF000
000FFF83FFE000
000FFF83FFE000
0007FFC3FFE000
0007FFC3FFC000
0007FFC7FFC000
0003FFC7FFC000
0003FFE7FFC000
0003FFE7FF8000
0001FFEFFF8000
0001FFEFFF8000
0001FFFFFF0000
0001FFFFFF0000
0000FFFFFF0000
0000FFFFFE0000
0000FFFFFE0000
00007FFFFE0000
00007FFFFE0000
00007FFFFC0000
00003FFFFC0000
00003FFFFC0000
00003FFFF80000
00001FFFF80000
00001FFFF80000
00001FFFF00000
00001FFFF00000
00000FFFF00000
00000FFFF00000
00000FFFE00000
000007FFE00000
000007FFE00000
ENDCHAR
STARTCHAR 0057
ENCODING 87
SWIDTH 604 0
DWIDTH 58 0
BBX 56 69 1 0
BITMAP
FFF001FF001FFF
FFF001FF801FFE
7FF801FF801FFE
7FF803FF801FFE
7FF803FF801FFE
7FF803FF801FFE
7FF803FF801FFE
7FF803FF801FFE
7FF803FFC03FFC
7FF803FFC03FFC
3FFC07FFC03FFC
3FFC07FFC03FFC
3FFC07FFC03FFC
3FFC07FFC03FFC
3FFC07FFE03FFC
3FFC07FFE03FF8
3FFC07FFE03FF8
1FFC0FFFE07FF8
1FFC0FFFE07FF8
1FFE0FFFE07FF8
1FFE0FFFE07FF8
1FFE0FFFF07FF8
1FFE0FFFF07FF0
1FFE0FFFF07FF0
0FFE0FFFF07FF0
0FFE1FFFF0FFF0
0FFE1FFFF0FFF0
0FFF1FFFF0FFF0
0FFF1FFFF8FFF0
0FFF1FFFF8FFF0
0FFF1FEFF8FFE0
0FFF1FEFF8FFE0
07FF3FEFF8FFE0
07FF3FE7F9FFE0
07FF3FE7F9FFE0
07FF3FE7FDFFE0
07FFBFC7FDFFE0
07FFBFC7FDFFC0
07FFBFC7FDFFC0
03FFFFC7FDFFC0
03FFFFC3FDFFC0
03FFFFC3FFFFC0
03FFFFC3FFFFC0
03FFFF83FFFFC0
03FFFF83FFFF80
03FFFF83FFFF80
01FFFF81FFFF80
01FFFF81FFFF80
01FFFF81FFFF80
01FFFF01FFFF80
01FFFF01FFFF80
01FFFF01FFFF80
01FFFF00FFFF00
01FFFF00FFFF00
00FFFF00FFFF00
00FFFF00FFFF00
00FFFE00FFFF00
00FFFE00FFFF00
00FFFE007FFF00
00FFFE007FFE00
00FFFE007FFE00
007FFE007FFE00
007FFE007FFE00
007FFC007FFE00
007FFC007FFE00
007FFC003FFE00
007FFC003FFC00
007FFC003FFC00
003FFC003FFC00
ENDCHAR
STARTCHAR 0058
ENCODING 88
SWIDTH 604 0
DWIDTH 58 0
BBX 55 69 2 0
BITMAP
FFFF000001FFFE
7FFF000001FFFC
7FFF800003FFF8
3FFF800003FFF8
3FFF800007FFF0
1FFFC00007FFF0
0FFFC0000FFFE0
0FFFE0000FFFE0
07FFE0001FFFC0
07FFF0001FFFC0
03FFF0003FFF80
03FFF8003FFF00
01FFF8007FFF00
01FFFC007FFE00
00FFFC00FFFE00
007FFE00FFFC00
007FFE01FFFC00
003FFF01FFF800
003FFF03FFF000
001FFF83FFF000
001FFF87FFE000
000FFFC7FFE000
0007FFCFFFC000
0007FFEFFFC000
0003FFFFFF8000
0003FFFFFF8000
0001FFFFFF0000
0001FFFFFE0000
0000FFFFFE0000
0000FFFFFC0000
00007FFFFC0000
00003FFFF80000
00003FFFF80000
00001FFFF00000
00001FFFF00000
00003FFFF00000
00003FFFF80000
00007FFFFC0000
00007FFFFC0000
0000FFFFFE0000
0000FFFFFE0000
0001FFFFFF0000
0003FFFFFF0000
0003FFFFFF8000
0007FFEFFF8000
0007FFEFFFC000
000FFFC7FFE000
000FFFC7FFE000
001FFF83FFF000
003FFF83FFF000
003FFF01FFF800
007FFF01FFF800
007FFE00FFFC00
00FFFE00FFFE00
00FFFC007FFE00
01FFFC007FFF00
03FFF8003FFF00
03FFF8003FFF80
07FFF0001FFF80
07FFF0001FFFC0
0FFFE0000FFFE0
0FFFE0000FFFE0
1FFFC00007FFF0
1FFFC00007FFF0
3FFF800003FFF8
7FFF800003FFF8
7FFF000001FFFC
FFFF000001FFFC
FFFE000000FFFE
ENDCHAR
STARTCHAR 0059
ENCODING 89
SWIDTH 604 0
DWIDTH 58 0
BBX 56 69 2 0
BITMAP
FFFC0000007FFF
FFFE0000007FFE
7FFE000000FFFE
7FFF000000FFFC
3FFF000001FFFC
3FFF000001FFF8
1FFF800001FFF8
1FFF800003FFF0
0FFFC00003FFF0
0FFFC00007FFE0
07FFE00007FFE0
07FFE0000FFFC0
03FFE0000FFFC0
03FFF0000FFF80
01FFF0001FFF80
01FFF8001FFF00
01FFF8003FFF00
00FFF8003FFE00
00FFFC007FFE00
007FFC007FFC00
007FFE007FFC00
003FFE00FFF800
003FFF00FFF800
001FFF01FFF800
001FFF01FFF000
000FFF83FFF000
000FFF83FFE000
0007FFC3FFE000
0007FFC7FFC000
0003FFE7FFC000
0003FFEFFF8000
0001FFEFFF8000
0001FFFFFF0000
0000FFFFFF0000
0000FFFFFE0000
00007FFFFE0000
00007FFFFC0000
00003FFFFC0000
00003FFFF80000
00003FFFF80000
00001FFFF00000
00001FFFF00000
00000FFFE00000
00000FFFE00000
000007FFC00000
000007FFC00000
000007FFC00000
000007FFC00000
000007FFC00000
000007FFC00000
000007FFC00000
000007FFC00000
000007FFC00000
000007FFC00000
000007FFC00000
000007FFC00000
000007FFC00000
000007FFC00000
000007FFC00000
000007FFC00000
000007FFC00000
000007FFC00000
000007FFC00000
000007FFC00000
000007FFC00000
000007FFC00000
000007FFC00000
000007FFC00000
000007FFC00000
ENDCHAR
STARTCHAR 005A
ENCODING 90
SWIDTH 604 0
DWIDTH 58 0
BBX 50 69 4 0
BITMAP
FFFFFFFFFFFF80
FFFFFFFFFFFF80
FFFFFFFFFFFF80
FFFFFFFFFFFF80
FFFFFFFFFFFF80
FFFFFFFFFFFF80
FFFFFFFFFFFF80
FFFFFFFFFFFF80
FFFFFFFFFFFF80
FFFFFFFFFFFF00
FFFFFFFFFFFE00
000000007FFE00
00000000FFFC00
00000001FFF800
00000001FFF800
00000003FFF000
00000007FFF000
00000007FFE000
0000000FFFC000
0000001FFFC000
0000001FFF8000
0000003FFF0000
0000007FFF0000
0000007FFE0000
000000FFFC0000
000001FFFC0000
000001FFF80000
000003FFF00000
000007FFF00000
000007FFE00000
00000FFFC00000
00001FFFC00000
00001FFF800000
00003FFF000000
00003FFF000000
00007FFE000000
0000FFFC000000
0000FFFC000000
0001FFF8000000
0003FFF0000000
0003FFF0000000
0007FFE0000000
000FFFC0000000
000FFFC0000000
001FFF80000000
003FFF00000000
003FFF00000000
007FFE00000000
00FFFC00000000
00FFFC00000000
01FFF800000000
03FFF800000000
03FFF000000000
07FFE000000000
0FFFE000000000
0FFFC000000000
1FFF8000000000
3FFF8000000000
3FFFFFFFFFFFC0
7FFFFFFFFFFFC0
FFFFFFFFFFFFC0
FFFFFFFFFFFFC0
FFFFFFFFFFFFC0
FFFFFFFFFFFFC0
FFFFFFFFFFFFC0
FFFFFFFFFFFFC0
FFFFFFFFFFFFC0
FFFFFFFFFFFFC0
FFFFFFFFFFFFC0
ENDCHAR
STARTCHAR 005B
ENCODING 91
SWIDTH 604 0
DWIDTH 58 0
BBX 21 96 19 -16
BITMAP
FFFFF8
FFFFF8
FFFFF8
FFFFF8
FFFFF8
FFFFF8
FFFFF8
FFFFF8
FFFFF8
FFFFF8
FFFFF8
FFF800
FFF800
FFF800
FFF800
FFF800
FFF800
FFF800
FFF800
FFF800
FFF800
FFF800
FFF800
FFF800
FFF800
FFF800
FFF800
FFF800
FFF800
FFF800
FFF800
FFF800
FFF800
FFF800
FFF800
FFF800
FFF800
FFF800
FFF800
FFF800
FFF800
FFF800
FFF800
FFF800
FFF800
FFF800
FFF800
FFF800
FFF800
FFF800
FFF800
FFF800
FFF800
FFF800
FFF800
FFF800
FFF800
FFF800
FFF800
FFF800
FFF800
FFF800
FFF800
FFF800
FFF800
FFF800
FFF800
FFF800
FFF800
FFF800
FFF800
FFF800
FFF800
FFF800
FFF800
FFF800
FFF800
FFF800
FFF800
FFF800
FFF800
FFF800
FFF800
FFF800
FFF800
FFFFF8
FFFFF8
FFFFF8
FFFFF8
FFFFF8
FFFFF8
FFFFF8
FFFFF8
FFFFF8
FFFFF8
FFFFF8
ENDCHAR
STARTCHAR 005C
ENCODING 92
SWIDTH 604 0
DWIDTH 58 0
BBX 38 75 11 -6
BITMAP
FFF0000000
7FF8000000
7FF8000000
7FF8000000
3FFC000000
3FFC000000
3FFE000000
1FFE000000
1FFE000000
1FFF000000
0FFF000000
0FFF000000
0FFF800000
07FF800000
07FF800000
07FFC00000
03FFC00000
03FFC00000
03FFE00000
01FFE00000
01FFE00000
01FFF00000
00FFF00000
00FFF00000
00FFF80000
007FF80000
007FF80000
007FFC0000
003FFC0000
003FFC0000
001FFE0000
001FFE0000
001FFE0000
000FFF0000
000FFF0000
000FFF0000
0007FF8000
0007FF8000
0007FF8000
0003FFC000
0003FFC000
0003FFE000
0001FFE000
0001FFE000
0001FFF000
0000FFF000
0000FFF000
0000FFF800
00007FF800
00007FF800
00007FFC00
00003FFC00
00003FFC00
00003FFE00
00001FFE00
00001FFE00
00001FFF00
00000FFF00
00000FFF00
00000FFF80
000007FF80
000007FF80
000007FFC0
000003FFC0
000003FFC0
000001FFE0
000001FFE0
000001FFE0
000000FFF0
000000FFF0
000000FFF0
0000007FF8
0000007FF8
0000007FF8
0000003FFC
ENDCHAR
STARTCHAR 005D
ENCODING 93
SWIDTH 604 0
DWIDTH 58 0
BBX 21 96 19 -16
BITMAP
FFFFF8
FFFFF8
FFFFF8
FFFFF8
FFFFF8
FFFFF8
FFFFF8
FFFFF8
FFFFF8
FFFFF8
FFFFF8
00FFF8
00FFF8
00FFF8
00FFF8
00FFF8
00FFF8
00FFF8
00FFF8
00FFF8
00FFF8
00FFF8
00FFF8
00FFF8
00FFF8
00FFF8
00FFF8
00FFF8
00FFF8
00FFF8
00FFF8
00FFF8
00FFF8
00FFF8
00FFF8
00FFF8
00FFF8
00FFF8
00FFF8
00FFF8
00FFF8
00FFF8
00FFF8
00FFF8
00FFF8
00FFF8
00FFF8
00FFF8
00FFF8
00FFF8
00FFF8
00FFF8
00FFF8
00FFF8
00FFF8
00FFF8
00FFF8
00FFF8
00FFF8
00FFF8
00FFF8
00FFF8
00FFF8
00FFF8
00FFF8
00FFF8
00FFF8
00FFF8
00FFF8
00FFF8
00FFF8
00FFF8
00FFF8
00FFF8
00FFF8
00FFF8
00FFF8
00FFF8
00FFF8
00FFF8
00FFF8
00FFF8
00FFF8
00FFF8
00FFF8
FFFFF8
FFFFF8
FFFFF8
FFFFF8
FFFFF8
FFFFF8
FFFFF8
FFFFF8
FFFFF8
FFFFF8
FFFFF8
ENDCHAR
STARTCHAR 005E
ENCODING 94
SWIDTH 604 0
DWIDTH 58 0
BBX 39 37 10 32
BITMAP
0001FF0000
0001FF8000
0003FF8000
0003FFC000
0007FFC000
0007FFC000
000FFFE000
000FFFE000
000FFFF000
001FFFF000
001FFFF000
003FFFF800
003FEFF800
003FEFFC00
007FEFFC00
007FE7FE00
00FFC7FE00
00FFC7FE00
00FF83FF00
01FF83FF00
01FF83FF80
03FF01FF80
03FF01FF80
03FF00FFC0
07FE00FFC0
07FE00FFE0
0FFC007FE0
0FFC007FE0
1FFC003FF0
1FF8003FF0
1FF8003FF8
3FF8001FF8
3FF0001FF8
7FF0001FFC
7FE0000FFC
7FE0000FFE
FFE00007FE
ENDCHAR
STARTCHAR 005F
ENCODING 95
SWIDTH 604 0
DWIDTH 58 0
BBX 43 11 7 -10
BITMAP
FFFFFFFFFFE0
FFFFFFFFFFE0
FFFFFFFFFFE0
FFFFFFFFFFE0
FFFFFFFFFFE0
FFFFFFFFFFE0
FFFFFFFFFFE0
FFFFFFFFFFE0
FFFFFFFFFFE0
FFFFFFFFFFE0
FFFFFFFFFFE0
ENDCHAR
STARTCHAR 0060
ENCODING 96
SWIDTH 604 0
DWIDTH 58 0
BBX 22 13 20 57
BITMAP
FFFC00
7FFE00
3FFE00
1FFF00
0FFF00
0FFF80
07FFC0
03FFC0
01FFE0
00FFF0
007FF0
003FF8
001FFC
ENDCHAR
STARTCHAR 0061
ENCODING 97
SWIDTH 593 0
DWIDTH 57 0
BBX 46 53 5 -1
BITMAP
0000FFF00000
0007FFFF0000
003FFFFFE000
007FFFFFF000
01FFFFFFFC00
03FFFFFFFE00
07FFFFFFFF00
0FFFFFFFFF80
1FFFFFFFFF80
1FFFFFFFFFC0
3FFFC03FFFE0
3FFF000FFFE0
7FFE0007FFE0
7FFE0003FFF0
7FFC0003FFF0
7FFC0001FFF0
00000001FFF0
00000001FFF0
00000001FFF0
00000001FFF0
00000001FFF0
0000FFFFFFF0
000FFFFFFFF0
007FFFFFFFF0
01FFFFFFFFF0
03FFFFFFFFF0
0FFFFFFFFFF0
1FFFFFFFFFF0
1FFFFFFFFFF0
3FFFE001FFF0
3FFF8001FFF0
7FFE0001FFF0
7FFC0001FFF0
FFFC0001FFF0
FFF80001FFF0
FFF80001FFF0
FFF80001FFF0
FFF80001FFF0
FFF80003FFF0
FFFC0007FFF0
FFFE000FFFF0
FFFF003FFFF0
7FFFFFFFFFF0
7FFFFFFFFFF0
3FFFFFFFFFF0
3FFFFFFFFFF0
1FFFFFFFFFF8
0FFFFFFEFFF8
07FFFFFCFFF8
03FFFFF8FFF8
01FFFFE0FFFC
007FFF807FFC
0007FC000000
ENDCHAR
STARTCHAR 0062
ENCODING 98
SWIDTH 593 0
DWIDTH 57 0
BBX 45 73 7 -1
BITMAP
FFF800000000
FFF800000000
FFF800000000
FFF800000000
FFF800000000
FFF800000000
FFF800000000
FFF800000000
FFF800000000
FFF800000000
FFF800000000
FFF800000000
FFF800000000
FFF800000000
FFF800000000
FFF800000000
FFF800000000
FFF800000000
FFF800000000
FFF800000000
FFF807FC0000
FFF83FFF8000
FFF8FFFFE000
FFF9FFFFF000
FFFBFFFFFC00
FFFFFFFFFE00
FFFFFFFFFE00
FFFFFFFFFF00
FFFFFFFFFF80
FFFFFFFFFF80
FFFFFFFFFFC0
FFFF803FFFC0
FFFF000FFFE0
FFFE0007FFE0
FFFC0003FFF0
FFF80003FFF0
FFF80001FFF0
FFF80001FFF0
FFF80001FFF0
FFF80001FFF8
FFF80000FFF8
FFF80000FFF8
FFF80000FFF8
FFF80000FFF8
FFF80000FFF8
FFF80000FFF8
FFF80000FFF8
FFF80000FFF8
FFF80000FFF8
FFF80000FFF8
FFF80000FFF8
FFF80000FFF8
FFF80000FFF8
FFF80001FFF8
FFF80001FFF0
FFF80001FFF0
FFF80001FFF0
FFF80003FFF0
FFFC0003FFF0
FFFE0007FFE0
FFFF000FFFE0
FFFF801FFFC0
FFFFFFFFFFC0
FFFFFFFFFFC0
FFFFFFFFFF80
FFFFFFFFFF00
FFFFFFFFFF00
FFF7FFFFFE00
FFF3FFFFFC00
FFF1FFFFF800
FFF0FFFFE000
FFF03FFF8000
000007FC0000
ENDCHAR
STARTCHAR 0063
ENCODING 99
SWIDTH 593 0
DWIDTH 57 0
BBX 45 53 5 -1
BITMAP
00003FF80000
0001FFFF0000
000FFFFFE000
001FFFFFF800
007FFFFFFC00
00FFFFFFFE00
01FFFFFFFF00
03FFFFFFFF80
07FFFFFFFFC0
0FFFFFFFFFC0
0FFFFFFFFFE0
1FFFE00FFFE0
1FFFC003FFF0
3FFF0001FFF0
3FFF0001FFF0
3FFE0000FFF8
7FFE0000FFF8
7FFC00007FF8
7FFC00007FF8
7FFC00007FF8
FFF800000000
FFF800000000
FFF800000000
FFF800000000
FFF800000000
FFF800000000
FFF800000000
FFF800000000
FFF800000000
FFF800000000
FFF800000000
FFF800000000
FFF800000000
7FFC00000000
7FFC00000000
7FFC00007FF8
7FFE00007FF8
3FFE0000FFF8
3FFF0000FFF8
3FFF0001FFF0
1FFF8003FFF0
1FFFE00FFFE0
0FFFFFFFFFE0
0FFFFFFFFFC0
07FFFFFFFFC0
03FFFFFFFF80
01FFFFFFFF00
00FFFFFFFE00
007FFFFFFC00
001FFFFFF000
000FFFFFC000
0001FFFF0000
00003FF80000
ENDCHAR
STARTCHAR 0064
ENCODING 100
SWIDTH 593 0
DWIDTH 57 0
BBX 45 73 5 -1
BITMAP
00000000FFF8
00000000FFF8
00000000FFF8
00000000FFF8
00000000FFF8
00000000FFF8
00000000FFF8
00000000FFF8
00000000FFF8
00000000FFF8
00000000FFF8
00000000FFF8
00000000FFF8
00000000FFF8
00000000FFF8
00000000FFF8
00000000FFF8
00000000FFF8
00000000FFF8
00000000FFF8
0001FF00FFF8
000FFFE0FFF8
003FFFF8FFF8
007FFFFCFFF8
00FFFFFEFFF8
01FFFFFFFFF8
03FFFFFFFFF8
07FFFFFFFFF8
0FFFFFFFFFF8
0FFFFFFFFFF8
1FFFFFFFFFF8
1FFFE00FFFF8
3FFF8007FFF8
3FFF0003FFF8
3FFF0001FFF8
7FFE0000FFF8
7FFE0000FFF8
7FFC0000FFF8
7FFC0000FFF8
FFFC0000FFF8
FFFC0000FFF8
FFF80000FFF8
FFF80000FFF8
FFF80000FFF8
FFF80000FFF8
FFF80000FFF8
FFF80000FFF8
FFF80000FFF8
FFF80000FFF8
FFF80000FFF8
FFF80000FFF8
FFF80000FFF8
FFF80000FFF8
FFFC0000FFF8
7FFC0000FFF8
7FFC0000FFF8
7FFE0000FFF8
7FFE0000FFF8
3FFF0001FFF8
3FFF0003FFF8
3FFF8007FFF8
1FFFE00FFFF8
1FFFFFFFFFF8
0FFFFFFFFFF8
0FFFFFFFFFF8
07FFFFFFFFF8
03FFFFFFFFF8
01FFFFFF7FF8
00FFFFFE7FF8
007FFFFC7FF8
003FFFF87FF8
000FFFE07FF8
0001FF000000
ENDCHAR
STARTCHAR 0065
ENCODING 101
SWIDTH 604 0
DWIDTH 58 0
BBX 48 53 5 -1
BITMAP
00001FFC0000
0000FFFFC000
0003FFFFF000
000FFFFFFC00
003FFFFFFE00
007FFFFFFF00
00FFFFFFFF80
01FFFFFFFFC0
03FFFFFFFFE0
07FFFFFFFFF0
0FFFFFFFFFF0
0FFFF007FFF8
1FFFE001FFFC
1FFF8000FFFC
3FFF80007FFC
3FFF00003FFE
3FFE00003FFE
7FFE00003FFE
7FFC00001FFE
7FFC00001FFF
FFFC00001FFF
FFFC00001FFF
FFFFFFFFFFFF
FFFFFFFFFFFF
FFFFFFFFFFFF
FFFFFFFFFFFF
FFFFFFFFFFFF
FFFFFFFFFFFF
FFFFFFFFFFFF
FFFFFFFFFFFF
FFFFFFFFFFFF
FFF800000000
FFFC00000000
FFFC00000000
7FFC00000000
7FFE00000000
7FFE00000000
3FFF00000080
3FFF800001C0
1FFFC00007E0
1FFFF0000FF0
0FFFFC007FF8
0FFFFFFFFFFC
07FFFFFFFFFE
03FFFFFFFFFC
01FFFFFFFFF8
00FFFFFFFFF0
007FFFFFFFE0
003FFFFFFFC0
000FFFFFFF00
0003FFFFFC00
0000FFFFF000
00000FFF0000
ENDCHAR
STARTCHAR 0066
ENCODING 102
SWIDTH 604 0
DWIDTH 58 0
BBX 49 75 6 -1
BITMAP
00000003FFE000
0000003FFFFF80
000001FFFFFF00
000003FFFFFF00
00000FFFFFFF00
00001FFFFFFF00
00003FFFFFFF00
00007FFFFFFF00
0000FFFFFFFF00
0000FFFFFFFF00
0001FFFFFFFF00
0001FFFF000000
0003FFFC000000
0003FFF0000000
0003FFF0000000
0007FFE0000000
0007FFE0000000
0007FFC0000000
0007FFC0000000
0007FFC0000000
0007FFC0000000
0007FFC0000000
0007FFC0000000
FFFFFFFFFFF800
FFFFFFFFFFF800
FFFFFFFFFFF800
FFFFFFFFFFF800
FFFFFFFFFFF800
FFFFFFFFFFF800
FFFFFFFFFFF800
FFFFFFFFFFF800
FFFFFFFFFFF800
FFFFFFFFFFF800
0007FFC0000000
0007FFC0000000
0007FFC0000000
0007FFC0000000
0007FFC0000000
0007FFC0000000
0007FFC0000000
0007FFC0000000
0007FFC0000000
0007FFC0000000
0007FFC0000000
0007FFC0000000
0007FFC0000000
0007FFC0000000
0007FFC0000000
0007FFC0000000
0007FFC0000000
0007FFC0000000
0007FFC0000000
0007FFC0000000
0007FFC0000000
0007FFC0000000
0007FFC0000000
0007FFC0000000
0007FFC0000000
0007FFC0000000
0007FFC0000000
0007FFC0000000
0007FFC0000000
0007FFC0000000
0007FFC0000000
0007FFC0000000
0007FFC0000000
0007FFC0000000
0007FFC0000000
0007FFC0000000
0007FFC0000000
0007FFC0000000
0007FFC0000000
0007FFC0000000
0007FFC0000000
0007FFC0000000
ENDCHAR
STARTCHAR 0067
ENCODING 103
SWIDTH 593 0
DWIDTH 57 0
BBX 46 72 5 -20
BITMAP
0000FF800000
0007FFF03FFC
001FFFFC3FFC
007FFFFE3FFC
00FFFFFFBFFC
01FFFFFFBFFC
03FFFFFFFFFC
07FFFFFFFFFC
07FFFFFFFFFC
0FFFFFFFFFFC
1FFFFFFFFFFC
1FFFF007FFFC
3FFFC003FFFC
3FFF8001FFFC
3FFF0000FFFC
7FFE00007FFC
7FFE00007FFC
7FFC00007FFC
7FFC00007FFC
FFFC00007FFC
FFFC00007FFC
FFF800007FFC
FFF800007FFC
FFF800007FFC
FFF800007FFC
FFF800007FFC
FFF800007FFC
FFF800007FFC
FFF800007FFC
FFF800007FFC
FFF800007FFC
FFF800007FFC
FFFC00007FFC
7FFC00007FFC
7FFC00007FFC
7FFE00007FFC
7FFE00007FFC
3FFF00007FFC
3FFF0000FFFC
3FFF8001FFFC
1FFFC003FFFC
1FFFF01FFFFC
0FFFFFFFFFFC
0FFFFFFFFFFC
07FFFFFFFFFC
03FFFFFFFFFC
01FFFFFFFFFC
00FFFFFFFFFC
007FFFFF7FFC
003FFFFE7FFC
000FFFF87FFC
0003FFE07FFC
00003C007FFC
000000007FFC
00000000FFFC
00000000FFF8
00C00001FFF8
00E00001FFF8
01F00003FFF8
03FC0007FFF0
07FF001FFFF0
07FFFFFFFFE0
0FFFFFFFFFE0
1FFFFFFFFFC0
0FFFFFFFFF80
07FFFFFFFF00
03FFFFFFFE00
01FFFFFFFC00
007FFFFFF000
001FFFFFC000
0007FFFF0000
00007FF00000
ENDCHAR
STARTCHAR 0068
ENCODING 104
SWIDTH 604 0
DWIDTH 58 0
BBX 45 72 7 0
BITMAP
FFF800000000
FFF800000000
FFF800000000
FFF800000000
FFF800000000
FFF800000000
FFF800000000
FFF800000000
FFF800000000
FFF800000000
FFF800000000
FFF800000000
FFF800000000
FFF800000000
FFF800000000
FFF800000000
FFF800000000
FFF800000000
FFF800000000
FFF800000000
FFF8007C0000
FFF807FFC000
FFF81FFFF000
FFF87FFFFC00
FFF8FFFFFE00
FFF9FFFFFF00
FFFBFFFFFF80
FFFBFFFFFFC0
FFFFFFFFFFC0
FFFFFFFFFFE0
FFFFFFFFFFE0
FFFFE03FFFF0
FFFF000FFFF0
FFFE0003FFF0
FFFC0003FFF0
FFF80001FFF8
FFF80001FFF8
FFF80000FFF8
FFF80000FFF8
FFF80000FFF8
FFF80000FFF8
FFF80000FFF8
FFF80000FFF8
FFF80000FFF8
FFF80000FFF8
FFF80000FFF8
FFF80000FFF8
FFF80000FFF8
FFF80000FFF8
FFF80000FFF8
FFF80000FFF8
FFF80000FFF8
FFF80000FFF8
FFF80000FFF8
FFF80000FFF8
FFF80000FFF8
FFF80000FFF8
FFF80000FFF8
FFF80000FFF8
FFF80000FFF8
FFF80000FFF8
FFF80000FFF8
FFF80000FFF8
FFF80000FFF8
FFF80000FFF8
FFF80000FFF8
FFF80000FFF8
FFF80000FFF8
FFF80000FFF8
FFF80000FFF8
FFF80000FFF8
FFF80000FFF8
ENDCHAR
STARTCHAR 0069
ENCODING 105
SWIDTH 593 0
DWIDTH 57 0
BBX 41 71 10 0
BITMAP
00003F800000
00007FC00000
0000FFE00000
0001FFF00000
0003FFF80000
0003FFF80000
0003FFF80000
0003FFF80000
0003FFF80000
0003FFF80000
0001FFF00000
0000FFE00000
00007FC00000
00003F800000
000000000000
000000000000
000000000000
000000000000
000000000000
000000000000
FFFFFFF00000
FFFFFFF00000
FFFFFFF00000
FFFFFFF00000
FFFFFFF00000
FFFFFFF00000
FFFFFFF00000
FFFFFFF00000
FFFFFFF00000
FFFFFFF00000
FFFFFFF00000
0001FFF00000
0001FFF00000
0001FFF00000
0001FFF00000
0001FFF00000
0001FFF00000
0001FFF00000
0001FFF00000
0001FFF00000
0001FFF00000
0001FFF00000
0001FFF00000
0001FFF00000
0001FFF00000
0001FFF00000
0001FFF00000
0001FFF00000
0001FFF00000
0001FFF00000
0001FFF00000
0001FFF00000
0001FFF00000
0001FFF00000
0001FFF00000
0001FFF00000
0001FFF00000
0001FFF00000
0001FFF00000
0001FFF00000
FFFFFFFFFF80
FFFFFFFFFF80
FFFFFFFFFF80
FFFFFFFFFF80
FFFFFFFFFF80
FFFFFFFFFF80
FFFFFFFFFF80
FFFFFFFFFF80
FFFFFFFFFF80
FFFFFFFFFF80
FFFFFFFFFF80
ENDCHAR
STARTCHAR 006A
ENCODING 106
SWIDTH 593 0
DWIDTH 57 0
BBX 31 92 10 -21
BITMAP
00000FE0
00001FF0
00003FF8
00007FFC
0000FFFE
0000FFFE
0000FFFE
0000FFFE
0000FFFE
0000FFFE
00007FFC
00003FF8
00001FF0
00000FE0
00000000
00000000
00000000
00000000
00000000
00000000
0FFFFFFC
0FFFFFFC
0FFFFFFC
0FFFFFFC
0FFFFFFC
0FFFFFFC
0FFFFFFC
0FFFFFFC
0FFFFFFC
0FFFFFFC
0FFFFFFC
00007FFC
00007FFC
00007FFC
00007FFC
00007FFC
00007FFC
00007FFC
00007FFC
00007FFC
00007FFC
00007FFC
00007FFC
00007FFC
00007FFC
00007FFC
00007FFC
00007FFC
00007FFC
00007FFC
00007FFC
00007FFC
00007FFC
00007FFC
00007FFC
00007FFC
00007FFC
00007FFC
00007FFC
00007FFC
00007FFC
00007FFC
00007FFC
00007FFC
00007FFC
00007FFC
00007FFC
00007FFC
00007FFC
00007FFC
00007FFC
00007FFC
00007FFC
00007FFC
00007FFC
00007FFC
0000FFFC
0000FFFC
0001FFF8
0003FFF8
0007FFF8
7FFFFFF0
7FFFFFF0
7FFFFFF0
FFFFFFE0
FFFFFFC0
FFFFFF80
FFFFFF00
FFFFFE00
FFFFF800
FFFFE000
7FFE0000
ENDCHAR
STARTCHAR 006B
ENCODING 107
SWIDTH 604 0
DWIDTH 58 0
BBX 49 72 7 0
BITMAP
FFF80000000000
FFF80000000000
FFF80000000000
FFF80000000000
FFF80000000000
FFF80000000000
FFF80000000000
FFF80000000000
FFF80000000000
FFF80000000000
FFF80000000000
FFF80000000000
FFF80000000000
FFF80000000000
FFF80000000000
FFF80000000000
FFF80000000000
FFF80000000000
FFF80000000000
FFF80000000000
FFF80000000000
FFF80001FFFC00
FFF80003FFF800
FFF80007FFF000
FFF8000FFFF000
FFF8001FFFE000
FFF8003FFFC000
FFF8007FFF8000
FFF800FFFF0000
FFF801FFFE0000
FFF803FFFC0000
FFF807FFF80000
FFF807FFF00000
FFF80FFFE00000
FFF81FFFE00000
FFF83FFFC00000
FFF87FFF800000
FFF8FFFF000000
FFF9FFFE000000
FFFBFFFC000000
FFFFFFF8000000
FFFFFFF0000000
FFFFFFF0000000
FFFFFFF0000000
FFFFFFF8000000
FFFFFFFC000000
FFFFFFFE000000
FFFFFFFE000000
FFFFFFFF000000
FFFFFFFF800000
FFFFFFFFC00000
FFFFDFFFC00000
FFFF8FFFE00000
FFFF07FFF00000
FFFE07FFF00000
FFFC03FFF80000
FFF801FFFC0000
FFF801FFFE0000
FFF800FFFE0000
FFF8007FFF0000
FFF8007FFF8000
FFF8003FFFC000
FFF8001FFFC000
FFF8000FFFE000
FFF8000FFFF000
FFF80007FFF800
FFF80003FFF800
FFF80003FFFC00
FFF80001FFFE00
FFF80000FFFE00
FFF80000FFFF00
FFF800007FFF80
ENDCHAR
STARTCHAR 006C
ENCODING 108
SWIDTH 593 0
DWIDTH 57 0
BBX 43 73 9 0
BITMAP
FFFFFFF00000
FFFFFFF00000
FFFFFFF00000
FFFFFFF00000
FFFFFFF00000
FFFFFFF00000
FFFFFFF00000
FFFFFFF00000
FFFFFFF00000
FFFFFFF00000
FFFFFFF00000
0001FFF00000
0001FFF00000
0001FFF00000
0001FFF00000
0001FFF00000
0001FFF00000
0001FFF00000
0001FFF00000
0001FFF00000
0001FFF00000
0001FFF00000
0001FFF00000
0001FFF00000
0001FFF00000
0001FFF00000
0001FFF00000
0001FFF00000
0001FFF00000
0001FFF00000
0001FFF00000
0001FFF00000
0001FFF00000
0001FFF00000
0001FFF00000
0001FFF00000
0001FFF00000
0001FFF00000
0001FFF00000
0001FFF00000
0001FFF00000
0001FFF00000
0001FFF00000
0001FFF00000
0001FFF00000
0001FFF00000
0001FFF00000
0001FFF00000
0001FFF00000
0001FFF00000
0001FFF00000
0001FFF00000
0001FFF00000
0001FFF00000
0001FFF00000
0001FFF00000
0001FFF00000
0001FFF00000
0001FFF00000
0001FFF00000
0001FFF00000
0001FFF00000
FFFFFFFFFFE0
FFFFFFFFFFE0
FFFFFFFFFFE0
FFFFFFFFFFE0
FFFFFFFFFFE0
FFFFFFFFFFE0
FFFFFFFFFFE0
FFFFFFFFFFE0
FFFFFFFFFFE0
FFFFFFFFFFE0
FFFFFFFFFFE0
ENDCHAR
STARTCHAR 006D
ENCODING 109
SWIDTH 604 0
DWIDTH 58 0
BBX 50 52 4 0
BITMAP
00003F800FE000
FFF0FFE03FF800
FFF1FFF0FFFC00
FFF3FFF9FFFE00
FFF7FFFDFFFF00
FFFFFFFFFFFF00
FFFFFFFFFFFF80
FFFFFFFFFFFF80
FFFFFFFFFFFF80
FFFFFFFFFFFF80
FFFFFFFFFFFFC0
FFFC1FFF07FFC0
FFF81FFE07FFC0
FFF00FFE03FFC0
FFF00FFE03FFC0
FFF00FFE03FFC0
FFF00FFE03FFC0
FFF00FFE03FFC0
FFF00FFE03FFC0
FFF00FFE03FFC0
FFF00FFE03FFC0
FFF00FFE03FFC0
FFF00FFE03FFC0
FFF00FFE03FFC0
FFF00FFE03FFC0
FFF00FFE03FFC0
FFF00FFE03FFC0
FFF00FFE03FFC0
FFF00FFE03FFC0
FFF00FFE03FFC0
FFF00FFE03FFC0
FFF00FFE03FFC0
FFF00FFE03FFC0
FFF00FFE03FFC0
FFF00FFE03FFC0
FFF00FFE03FFC0
FFF00FFE03FFC0
FFF00FFE03FFC0
FFF00FFE03FFC0
FFF00FFE03FFC0
FFF00FFE03FFC0
FFF00FFE03FFC0
FFF00FFE03FFC0
FFF00FFE03FFC0
FFF00FFE03FFC0
FFF00FFE03FFC0
FFF00FFE03FFC0
FFF00FFE03FFC0
FFF00FFE03FFC0
FFF00FFE03FFC0
FFF00FFE03FFC0
FFF00FFE03FFC0
ENDCHAR
STARTCHAR 006E
ENCODING 110
SWIDTH 604 0
DWIDTH 58 0
BBX 45 52 7 0
BITMAP
000001FF0000
FFF00FFFF000
FFF03FFFF800
FFF07FFFFE00
FFF0FFFFFF00
FFF1FFFFFF80
FFF3FFFFFFC0
FFFFFFFFFFC0
FFFFFFFFFFE0
FFFFFFFFFFE0
FFFFFFFFFFF0
FFFFC01FFFF0
FFFF0007FFF0
FFFE0003FFF0
FFFC0001FFF8
FFF80001FFF8
FFF80000FFF8
FFF80000FFF8
FFF80000FFF8
FFF80000FFF8
FFF80000FFF8
FFF80000FFF8
FFF80000FFF8
FFF80000FFF8
FFF80000FFF8
FFF80000FFF8
FFF80000FFF8
FFF80000FFF8
FFF80000FFF8
FFF80000FFF8
FFF80000FFF8
FFF80000FFF8
FFF80000FFF8
FFF80000FFF8
FFF80000FFF8
FFF80000FFF8
FFF80000FFF8
FFF80000FFF8
FFF80000FFF8
FFF80000FFF8
FFF80000FFF8
FFF80000FFF8
FFF80000FFF8
FFF80000FFF8
FFF80000FFF8
FFF80000FFF8
FFF80000FFF8
FFF80000FFF8
FFF80000FFF8
FFF80000FFF8
FFF80000FFF8
FFF80000FFF8
ENDCHAR
STARTCHAR 006F
ENCODING 111
SWIDTH 604 0
DWIDTH 58 0
BBX 48 53 5 -1
BITMAP
00003FF80000
0001FFFF8000
0007FFFFE000
001FFFFFF800
007FFFFFFC00
00FFFFFFFF00
01FFFFFFFF80
03FFFFFFFFC0
07FFFFFFFFE0
07FFFFFFFFE0
0FFFFFFFFFF0
1FFFF007FFF8
1FFFC003FFF8
3FFF8001FFFC
3FFF0000FFFC
3FFE00007FFC
7FFE00007FFE
7FFC00003FFE
7FFC00003FFE
7FFC00003FFE
FFFC00003FFF
FFF800001FFF
FFF800001FFF
FFF800001FFF
FFF800001FFF
FFF800001FFF
FFF800001FFF
FFF800001FFF
FFF800001FFF
FFF800001FFF
FFF800001FFF
FFF800001FFF
FFFC00003FFF
7FFC00003FFE
7FFC00003FFE
7FFC00003FFE
7FFE00007FFE
3FFE00007FFC
3FFF0000FFFC
3FFF8001FFFC
1FFFC003FFF8
1FFFF007FFF8
0FFFFFFFFFF0
07FFFFFFFFE0
07FFFFFFFFE0
03FFFFFFFFC0
01FFFFFFFF80
00FFFFFFFF00
007FFFFFFE00
001FFFFFF800
0007FFFFE000
0001FFFF8000
00003FFC0000
ENDCHAR
STARTCHAR 0070
ENCODING 112
SWIDTH 593 0
DWIDTH 57 0
BBX 45 72 7 -20
BITMAP
000000E00000
FFF01FFF0000
FFF07FFFC000
FFF1FFFFF000
FFF3FFFFF800
FFF7FFFFFC00
FFFFFFFFFE00
FFFFFFFFFF00
FFFFFFFFFF80
FFFFFFFFFF80
FFFFFFFFFFC0
FFFFC07FFFC0
FFFF001FFFE0
FFFE000FFFE0
FFFC0007FFE0
FFF80003FFF0
FFF80003FFF0
FFF80001FFF0
FFF80001FFF0
FFF80001FFF0
FFF80001FFF8
FFF80000FFF8
FFF80000FFF8
FFF80000FFF8
FFF80000FFF8
FFF80000FFF8
FFF80000FFF8
FFF80000FFF8
FFF80000FFF8
FFF80000FFF8
FFF80000FFF8
FFF80000FFF8
FFF80000FFF8
FFF80001FFF8
FFF80001FFF0
FFF80001FFF0
FFF80001FFF0
FFF80003FFF0
FFF80003FFF0
FFFC0007FFE0
FFFE000FFFE0
FFFF001FFFE0
FFFFC07FFFC0
FFFFFFFFFFC0
FFFFFFFFFF80
FFFFFFFFFF00
FFFFFFFFFF00
FFFFFFFFFE00
FFFFFFFFFC00
FFFBFFFFF800
FFF8FFFFF000
FFF87FFFC000
FFF81FFF0000
FFF801E00000
FFF800000000
FFF800000000
FFF800000000
FFF800000000
FFF800000000
FFF800000000
FFF800000000
FFF800000000
FFF800000000
FFF800000000
FFF800000000
FFF800000000
FFF800000000
FFF800000000
FFF800000000
FFF800000000
FFF800000000
FFF800000000
ENDCHAR
STARTCHAR 0071
ENCODING 113
SWIDTH 593 0
DWIDTH 57 0
BBX 45 72 5 -20
BITMAP
000038000000
0007FFC03FF8
001FFFF07FF8
007FFFFC7FF8
00FFFFFE7FF8
01FFFFFF7FF8
03FFFFFFFFF8
07FFFFFFFFF8
07FFFFFFFFF8
0FFFFFFFFFF8
1FFFFFFFFFF8
1FFFF01FFFF8
3FFFC007FFF8
3FFF8003FFF8
3FFF0001FFF8
7FFE0000FFF8
7FFE0000FFF8
7FFC0000FFF8
7FFC0000FFF8
FFFC0000FFF8
FFFC0000FFF8
FFF80000FFF8
FFF80000FFF8
FFF80000FFF8
FFF80000FFF8
FFF80000FFF8
FFF80000FFF8
FFF80000FFF8
FFF80000FFF8
FFF80000FFF8
FFF80000FFF8
FFF80000FFF8
FFF80000FFF8
FFFC0000FFF8
7FFC0000FFF8
7FFC0000FFF8
7FFC0000FFF8
7FFE0000FFF8
7FFE0000FFF8
3FFF0001FFF8
3FFF8003FFF8
1FFFC007FFF8
1FFFF01FFFF8
0FFFFFFFFFF8
0FFFFFFFFFF8
07FFFFFFFFF8
07FFFFFFFFF8
03FFFFFFFFF8
01FFFFFFFFF8
00FFFFFEFFF8
007FFFFCFFF8
001FFFF0FFF8
0007FFC0FFF8
00003C00FFF8
00000000FFF8
00000000FFF8
00000000FFF8
00000000FFF8
00000000FFF8
00000000FFF8
00000000FFF8
00000000FFF8
00000000FFF8
00000000FFF8
00000000FFF8
00000000FFF8
00000000FFF8
00000000FFF8
00000000FFF8
00000000FFF8
00000000FFF8
00000000FFF8
ENDCHAR
STARTCHAR 0072
ENCODING 114
SWIDTH 593 0
DWIDTH 57 0
BBX 39 52 13 0
BITMAP
0000007FF0
FFF003FFFE
FFF00FFFFE
FFF03FFFFE
FFF07FFFFE
FFF0FFFFFC
FFF9FFFFFC
FFFBFFFFFC
FFFFFFFFFC
FFFFFFFFFC
FFFFFFFFFC
FFFFFFFFFC
FFFFFFFFF8
FFFFFC0078
FFFFE00000
FFFF800000
FFFF000000
FFFE000000
FFFE000000
FFFC000000
FFF8000000
FFF8000000
FFF8000000
FFF8000000
FFF8000000
FFF8000000
FFF8000000
FFF8000000
FFF8000000
FFF8000000
FFF8000000
FFF8000000
FFF8000000
FFF8000000
FFF8000000
FFF8000000
FFF8000000
FFF8000000
FFF8000000
FFF8000000
FFF8000000
FFF8000000
FFF8000000
FFF8000000
FFF8000000
FFF8000000
FFF8000000
FFF8000000
FFF8000000
FFF8000000
FFF8000000
FFF8000000
ENDCHAR
STARTCHAR 0073
ENCODING 115
SWIDTH 604 0
DWIDTH 58 0
BBX 46 53 6 -1
BITMAP
00007FF80000
0007FFFF8000
001FFFFFF000
007FFFFFFC00
01FFFFFFFF00
03FFFFFFFF80
07FFFFFFFFC0
0FFFFFFFFFE0
1FFFFFFFFFF0
1FFFE01FFFF0
3FFF8003FFF8
3FFE0001FFF8
7FFE0000FFFC
7FFC0000FFFC
7FFC00007FFC
7FFC00007FFC
7FFC00000000
7FFE00000000
7FFF00000000
7FFFC0000000
3FFFF8000000
3FFFFFC00000
1FFFFFFE0000
0FFFFFFFC000
0FFFFFFFF800
03FFFFFFFE00
01FFFFFFFF00
007FFFFFFFC0
003FFFFFFFE0
0007FFFFFFF0
0000FFFFFFF0
00000FFFFFF8
000000FFFFF8
0000000FFFFC
00000003FFFC
00000000FFFC
FFF800007FFC
FFF800007FFC
FFF800007FFC
FFFC00007FFC
7FFE0000FFFC
7FFE0000FFF8
3FFF8003FFF8
3FFFF00FFFF0
1FFFFFFFFFF0
0FFFFFFFFFE0
07FFFFFFFFC0
03FFFFFFFF80
01FFFFFFFF00
007FFFFFFC00
001FFFFFF000
0007FFFFC000
00007FFC0000
ENDCHAR
STARTCHAR 0074
ENCODING 116
SWIDTH 604 0
DWIDTH 58 0
BBX 46 65 6 -1
BITMAP
000FFF800000
000FFF800000
000FFF800000
000FFF800000
000FFF800000
000FFF800000
000FFF800000
000FFF800000
000FFF800000
000FFF800000
000FFF800000
000FFF800000
000FFF800000
FFFFFFFFFFF0
FFFFFFFFFFF0
FFFFFFFFFFF0
FFFFFFFFFFF0
FFFFFFFFFFF0
FFFFFFFFFFF0
FFFFFFFFFFF0
FFFFFFFFFFF0
FFFFFFFFFFF0
FFFFFFFFFFF0
000FFF800000
000FFF800000
000FFF800000
000FFF800000
000FFF800000
000FFF800000
000FFF800000
000FFF800000
000FFF800000
000FFF800000
000FFF800000
000FFF800000
000FFF800000
000FFF800000
000FFF800000
000FFF800000
000FFF800000
000FFF800000
000FFF800000
000FFF800000
000FFF800000
000FFF800000
000FFF800000
000FFF800000
000FFF800000
000FFF800000
000FFFC00000
000FFFC00000
000FFFE00000
0007FFF00000
0007FFF80018
0007FFFFFFF8
0003FFFFFFF8
0003FFFFFFF8
0001FFFFFFFC
0001FFFFFFFC
0000FFFFFFFC
00007FFFFFFC
00003FFFFFFC
00000FFFFFF8
000003FFFFC0
0000007FF800
ENDCHAR
STARTCHAR 0075
ENCODING 117
SWIDTH 593 0
DWIDTH 57 0
BBX 44 52 7 -1
BITMAP
FFF80001FFF0
FFF80001FFF0
FFF80001FFF0
FFF80001FFF0
FFF80001FFF0
FFF80001FFF0
FFF80001FFF0
FFF80001FFF0
FFF80001FFF0
FFF80001FFF0
FFF80001FFF0
FFF80001FFF0
FFF80001FFF0
FFF80001FFF0
FFF80001FFF0
FFF80001FFF0
FFF80001FFF0
FFF80001FFF0
FFF80001FFF0
FFF80001FFF0
FFF80001FFF0
FFF80001FFF0
FFF80001FFF0
FFF80001FFF0
FFF80001FFF0
FFF80001FFF0
FFF80001FFF0
FFF80001FFF0
FFF80001FFF0
FFF80001FFF0
FFF80001FFF0
FFF80001FFF0
FFF80001FFF0
FFF80001FFF0
FFF80001FFF0
FFF80001FFF0
FFFC0001FFF0
7FFC0003FFF0
7FFE0007FFF0
7FFE000FFFF0
7FFF803FFFF0
3FFFFFFFFFF0
3FFFFFFFFFF0
1FFFFFFFFFF0
1FFFFFFEFFF0
0FFFFFFCFFF0
07FFFFFCFFF0
07FFFFF0FFF0
01FFFFE0FFF0
00FFFFC0FFF0
003FFF00FFF0
0007FC000000
ENDCHAR
STARTCHAR 0076
ENCODING 118
SWIDTH 604 0
DWIDTH 58 0
BBX 50 51 4 0
BITMAP
FFF800000FFFC0
FFF800000FFFC0
FFFC00000FFF80
7FFC00000FFF80
7FFC00001FFF80
7FFE00001FFF00
3FFE00001FFF00
3FFE00003FFE00
1FFF00003FFE00
1FFF00003FFE00
1FFF00007FFC00
0FFF80007FFC00
0FFF80007FFC00
0FFF8000FFF800
07FF8000FFF800
07FFC000FFF000
03FFC000FFF000
03FFC001FFF000
03FFE001FFE000
01FFE001FFE000
01FFE003FFC000
00FFF003FFC000
00FFF003FFC000
00FFF007FF8000
007FF807FF8000
007FF807FF8000
007FF80FFF0000
003FFC0FFF0000
003FFC0FFE0000
001FFC0FFE0000
001FFC1FFE0000
001FFE1FFC0000
000FFE1FFC0000
000FFE3FFC0000
000FFF3FF80000
0007FF3FF80000
0007FF7FF00000
0003FF7FF00000
0003FFFFF00000
0003FFFFE00000
0001FFFFE00000
0001FFFFE00000
0001FFFFC00000
0000FFFFC00000
0000FFFF800000
00007FFF800000
00007FFF800000
00007FFF000000
00003FFF000000
00003FFF000000
00001FFE000000
ENDCHAR
STARTCHAR 0077
ENCODING 119
SWIDTH 604 0
DWIDTH 58 0
BBX 54 51 1 0
BITMAP
FFF001FF003FFC
7FF001FF003FFC
7FF803FF003FFC
7FF803FF003FFC
7FF803FF803FFC
7FF803FF803FF8
7FF803FF803FF8
3FF803FF803FF8
3FF807FF807FF8
3FF807FF807FF8
3FFC07FFC07FF8
3FFC07FFC07FF0
3FFC07FFC07FF0
1FFC07FFC07FF0
1FFC0FFFC07FF0
1FFC0FFFE07FF0
1FFC0FFFE0FFE0
1FFC0FFFE0FFE0
0FFE0FFFE0FFE0
0FFE1FFFE0FFE0
0FFE1FEFE0FFE0
0FFE1FEFF0FFE0
0FFE1FCFF0FFC0
0FFE1FCFF0FFC0
07FE1FCFF1FFC0
07FE3FC7F1FFC0
07FF3FC7F9FFC0
07FF3F87F9FFC0
07FF3F87F9FF80
03FF3F87F9FF80
03FF7F83F9FF80
03FF7F83F9FF80
03FF7F03FFFF80
03FF7F03FFFF00
03FFFF03FFFF00
01FFFF01FFFF00
01FFFF01FFFF00
01FFFE01FFFF00
01FFFE01FFFF00
01FFFE00FFFE00
01FFFE00FFFE00
00FFFE00FFFE00
00FFFC00FFFE00
00FFFC00FFFE00
00FFFC007FFC00
00FFFC007FFC00
007FFC007FFC00
007FF8007FFC00
007FF8007FFC00
007FF8003FFC00
007FF8003FF800
ENDCHAR
STARTCHAR 0078
ENCODING 120
SWIDTH 604 0
DWIDTH 58 0
BBX 50 51 5 0
BITMAP
FFFC00000FFFC0
7FFE00001FFF80
3FFF00003FFF00
3FFF00003FFF00
1FFF80007FFE00
0FFFC000FFFC00
0FFFC001FFFC00
07FFE001FFF800
03FFF003FFF000
03FFF007FFF000
01FFF807FFE000
00FFFC0FFFC000
00FFFC1FFF8000
007FFE1FFF8000
003FFF3FFF0000
003FFFFFFE0000
001FFFFFFE0000
000FFFFFFC0000
000FFFFFF80000
0007FFFFF80000
0003FFFFF00000
0003FFFFE00000
0001FFFFE00000
0000FFFFC00000
0000FFFF800000
0000FFFF800000
0000FFFFC00000
0001FFFFE00000
0003FFFFE00000
0003FFFFF00000
0007FFFFF80000
000FFFFFF80000
000FFFFFFC0000
001FFFFFFE0000
003FFFFFFE0000
003FFF3FFF0000
007FFE3FFF8000
00FFFE1FFF8000
00FFFC0FFFC000
01FFF80FFFE000
03FFF807FFE000
03FFF003FFF000
07FFE001FFF800
0FFFC001FFFC00
0FFFC000FFFC00
1FFF80007FFE00
3FFF00007FFF00
3FFF00003FFF00
7FFE00001FFF80
FFFC00001FFFC0
FFFC00000FFFC0
ENDCHAR
STARTCHAR 0079
ENCODING 121
SWIDTH 604 0
DWIDTH 58 0
BBX 56 72 2 -21
BITMAP
FFFE0000007FFF
7FFE0000007FFE
7FFE000000FFFE
3FFF000000FFFC
3FFF000000FFFC
1FFF800001FFF8
1FFF800001FFF8
1FFF800001FFF8
0FFFC00003FFF0
0FFFC00003FFF0
07FFE00007FFE0
07FFE00007FFE0
03FFE00007FFC0
03FFF0000FFFC0
01FFF0000FFF80
01FFF8001FFF80
01FFF8001FFF80
00FFF8001FFF00
00FFFC003FFF00
007FFC003FFE00
007FFC003FFE00
003FFE007FFC00
003FFE007FFC00
001FFF00FFFC00
001FFF00FFF800
001FFF00FFF800
000FFF81FFF000
000FFF81FFF000
0007FFC3FFE000
0007FFC3FFE000
0003FFC3FFC000
0003FFE7FFC000
0003FFE7FFC000
0001FFE7FF8000
0001FFEFFF8000
0000FFFFFF0000
0000FFFFFF0000
00007FFFFE0000
00007FFFFE0000
00003FFFFC0000
00003FFFFC0000
00003FFFFC0000
00001FFFF80000
00001FFFF80000
00000FFFF00000
00000FFFF00000
000007FFE00000
000007FFE00000
000007FFE00000
000003FFC00000
000007FFC00000
000007FF800000
00000FFF800000
00000FFF000000
00001FFF000000
00001FFE000000
00003FFE000000
00007FFE000000
00007FFC000000
0000FFFC000000
0001FFF8000000
00FFFFF8000000
00FFFFF0000000
00FFFFF0000000
01FFFFE0000000
01FFFFC0000000
01FFFF80000000
01FFFF00000000
01FFFE00000000
01FFFC00000000
03FFF000000000
00FF8000000000
ENDCHAR
STARTCHAR 007A
ENCODING 122
SWIDTH 604 0
DWIDTH 58 0
BBX 48 51 6 0
BITMAP
7FFFFFFFFFFE
7FFFFFFFFFFE
7FFFFFFFFFFE
7FFFFFFFFFFE
7FFFFFFFFFFE
7FFFFFFFFFFE
7FFFFFFFFFFE
7FFFFFFFFFFE
7FFFFFFFFFFC
7FFFFFFFFFFC
7FFFFFFFFFF8
0000000FFFF0
0000001FFFE0
0000003FFFC0
0000007FFF80
000000FFFF00
000000FFFE00
000001FFFC00
000003FFFC00
000007FFF800
00000FFFF000
00001FFFE000
00003FFFC000
00007FFF8000
0000FFFF0000
0001FFFE0000
0001FFFE0000
0003FFFC0000
0007FFF80000
000FFFF00000
001FFFE00000
003FFFC00000
007FFF800000
00FFFF000000
01FFFE000000
01FFFE000000
03FFFC000000
07FFF8000000
0FFFF0000000
1FFFE0000000
3FFFFFFFFFFF
7FFFFFFFFFFF
FFFFFFFFFFFF
FFFFFFFFFFFF
FFFFFFFFFFFF
FFFFFFFFFFFF
FFFFFFFFFFFF
FFFFFFFFFFFF
FFFFFFFFFFFF
FFFFFFFFFFFF
FFFFFFFFFFFF
ENDCHAR
STARTCHAR 007B
ENCODING 123
SWIDTH 604 0
DWIDTH 58 0
BBX 31 92 14 -17
BITMAP
0000007C
000001FC
000007FE
00001FFE
00003FFE
00007FFE
0000FFFE
0000FFF0
0001FFE0
0001FFC0
0003FF80
0003FF80
0007FF00
0007FF00
0007FF00
0007FF00
000FFF00
000FFF00
000FFF00
000FFF00
000FFF00
000FFF00
000FFF00
000FFF00
000FFF00
000FFF00
000FFF00
000FFF00
000FFF00
000FFF00
000FFF00
000FFF00
000FFF00
000FFF00
001FFE00
001FFE00
003FFE00
003FFC00
007FFC00
01FFF800
07FFF000
FFFFE000
FFFFC000
FFFF8000
FFFE0000
FFF80000
FFFE0000
FFFF0000
FFFFC000
FFFFE000
07FFF000
01FFF800
007FF800
003FFC00
003FFC00
001FFE00
001FFE00
000FFE00
000FFF00
000FFF00
000FFF00
000FFF00
000FFF00
000FFF00
000FFF00
000FFF00
000FFF00
000FFF00
000FFF00
000FFF00
000FFF00
000FFF00
000FFF00
000FFF00
000FFF00
0007FF00
0007FF00
0007FF80
0007FF80
0003FF80
0003FFC0
0003FFC0
0001FFE0
0000FFF0
0000FFF8
00007FFE
00003FFE
00001FFE
00000FFE
000007FE
000001FC
0000003C
ENDCHAR
STARTCHAR 007C
ENCODING 124
SWIDTH 593 0
DWIDTH 57 0
BBX 8 88 25 -19
BITMAP
FF
FF
FF
FF
FF
FF
FF
FF
FF
FF
FF
FF
FF
FF
FF
FF
FF
FF
FF
FF
FF
FF
FF
FF
FF
FF
FF
FF
FF
FF
FF
FF
FF
FF
FF
FF
FF
FF
FF
FF
FF
FF
FF
FF
FF
FF
FF
FF
FF
FF
FF
FF
FF
FF
FF
FF
FF
FF
FF
FF
FF
FF
FF
FF
FF
FF
FF
FF
FF
FF
FF
FF
FF
FF
FF
FF
FF
FF
FF
FF
FF
FF
FF
FF
FF
FF
FF
FF
ENDCHAR
STARTCHAR 007D
ENCODING 125
SWIDTH 593 0
DWIDTH 57 0
BBX 31 92 16 -17
BITMAP
7C000000
7F800000
7FC00000
FFF00000
FFF80000
FFFC0000
FFFE0000
1FFE0000
0FFF0000
07FF0000
03FF8000
03FF8000
01FFC000
01FFC000
01FFC000
01FFC000
01FFE000
01FFE000
01FFE000
01FFE000
01FFE000
01FFE000
01FFE000
01FFE000
01FFE000
01FFE000
01FFE000
01FFE000
01FFE000
01FFE000
01FFE000
01FFE000
01FFE000
01FFE000
00FFF000
00FFF000
00FFF000
007FF800
007FFC00
003FFE00
001FFFC0
000FFFFE
0007FFFE
0003FFFE
0000FFFE
00003FFE
0000FFFE
0003FFFE
0007FFFE
000FFFFE
001FFFC0
003FFE00
007FFC00
007FF800
00FFF800
00FFF000
00FFF000
01FFE000
01FFE000
01FFE000
01FFE000
01FFE000
01FFE000
01FFE000
01FFE000
01FFE000
01FFE000
01FFE000
01FFE000
01FFE000
01FFE000
01FFE000
01FFE000
01FFE000
01FFE000
01FFC000
03FFC000
03FFC000
03FFC000
03FF8000
07FF8000
07FF0000
0FFF0000
1FFE0000
3FFE0000
FFFC0000
FFF80000
FFF00000
FFE00000
7FC00000
7F000000
78000000
ENDCHAR
STARTCHAR 007E
ENCODING 126
SWIDTH 593 0
DWIDTH 57 0
BBX 52 21 1 18
BITMAP
003FC000000000
00FFF800000000
03FFFE00000000
07FFFF80001FF0
0FFFFFC0001FF0
1FFFFFE0003FF0
1FFFFFF8003FF0
3FFFFFFC007FF0
3FFFFFFE007FE0
7FFFFFFF80FFE0
7FFFFFFFFFFFE0
7FF01FFFFFFFE0
FFC00FFFFFFFC0
FFC003FFFFFFC0
FF8001FFFFFF80
FF8000FFFFFF00
FF00007FFFFF00
3F00001FFFFE00
0000000FFFF800
00000003FFF000
000000007F8000
ENDCHAR
STARTCHAR 00A0
ENCODING 160
SWIDTH 604 0
DWIDTH 58 0
BBX 0 0 0 0
BITMAP
ENDCHAR
STARTCHAR 00A1
ENCODING 161
SWIDTH 604 0
DWIDTH 58 0
BBX 15 70 23 -18
BITMAP
0FE0
1FF0
3FF8
7FFC
FFFE
FFFE
FFFE
FFFE
FFFE
FFFE
7FFC
7FF8
3FF0
0FE0
0000
0000
0000
0000
0000
0000
0000
0000
0000
0000
0000
7FFC
7FFC
7FFC
7FFC
7FFC
7FFC
7FFC
7FFC
7FFC
7FFC
7FFC
7FFC
7FFC
7FFC
7FFC
7FFC
7FFC
7FFC
7FFC
7FFC
7FFC
7FFC
7FFC
7FFC
7FFC
7FFC
7FFC
7FFC
7FFC
7FFC
7FFC
7FFC
7FFC
7FFC
7FFC
7FFC
7FFC
7FFC
7FFC
7FFC
7FFC
7FFC
7FFC
7FFC
7FFC
ENDCHAR
STARTCHAR 00A2
ENCODING 162
SWIDTH 604 0
DWIDTH 58 0
BBX 45 74 7 -12
BITMAP
00001FF00000
00001FF00000
00001FF00000
00001FF00000
00001FF00000
00001FF00000
00001FF00000
00001FF00000
00001FF00000
00001FF00000
00001FF00000
0000FFFF0000
0007FFFFC000
001FFFFFF000
003FFFFFFC00
00FFFFFFFE00
01FFFFFFFF00
03FFFFFFFF80
03FFFFFFFF80
07FFFFFFFFC0
0FFFFFFFFFE0
0FFFF01FFFE0
1FFFC007FFF0
3FFF8003FFF0
3FFF0001FFF0
3FFE0000FFF0
7FFE0000FFF8
7FFC00007FF8
7FFC00007FF8
7FFC00007FF8
FFFC00000000
FFF800000000
FFF800000000
FFF800000000
FFF800000000
FFF800000000
FFF800000000
FFF800000000
FFF800000000
FFF800000000
FFF800000000
FFF800000000
FFF800000000
FFFC00000000
7FFC00000000
7FFC00007FF8
7FFC00007FF8
7FFE00007FF8
3FFE0000FFF8
3FFF0001FFF0
1FFF8001FFF0
1FFFC007FFF0
0FFFF01FFFE0
0FFFFFFFFFE0
07FFFFFFFFC0
03FFFFFFFF80
01FFFFFFFF80
00FFFFFFFF00
007FFFFFFC00
003FFFFFF800
000FFFFFE000
0003FFFF8000
00007FFE0000
00001FF00000
00001FF00000
00001FF00000
00001FF00000
00001FF00000
00001FF00000
00001FF00000
00001FF00000
00001FF00000
00001FF00000
00001FF00000
ENDCHAR
STARTCHAR 00A3
ENCODING 163
SWIDTH 604 0
DWIDTH 58 0
BBX 50 70 5 0
BITMAP
0000003C000000
000007FFF00000
00003FFFFE0000
0000FFFFFF8000
0003FFFFFFC000
0007FFFFFFE000
000FFFFFFFF000
001FFFFFFFF800
001FFFFFFFFC00
003FFFFFFFFE00
007FFFFFFFFE00
007FFF81FFFE00
00FFFE007FFF00
00FFFC003FFF00
00FFFC001FFF00
00FFF8001FFF80
01FFF8000FFF80
01FFF0000FFF80
01FFF0000FFF80
01FFF0000FFF80
01FFF000000000
01FFF000000000
01FFF000000000
01FFF000000000
01FFF000000000
01FFF000000000
01FFF000000000
01FFF000000000
01FFF000000000
01FFF000000000
01FFF000000000
01FFF000000000
FFFFFFFFE00000
FFFFFFFFE00000
FFFFFFFFE00000
FFFFFFFFE00000
FFFFFFFFE00000
FFFFFFFFE00000
FFFFFFFFE00000
FFFFFFFFE00000
FFFFFFFFE00000
FFFFFFFFE00000
FFFFFFFFE00000
00FFF800000000
00FFF800000000
00FFF800000000
00FFF800000000
00FFF800000000
00FFF800000000
00FFF800000000
00FFF800000000
00FFF800000000
00FFF800000000
00FFF800000000
00FFF000000000
01FFF000000000
01FFF000000000
01FFE000000000
03FFE000000000
FFFFFFFFFFFFC0
FFFFFFFFFFFFC0
FFFFFFFFFFFFC0
FFFFFFFFFFFFC0
FFFFFFFFFFFFC0
FFFFFFFFFFFFC0
FFFFFFFFFFFFC0
FFFFFFFFFFFFC0
FFFFFFFFFFFFC0
FFFFFFFFFFFFC0
FFFFFFFFFFFFC0
ENDCHAR
STARTCHAR 00A4
ENCODING 164
SWIDTH 614 0
DWIDTH 59 0
BBX 51 51 4 -1
BITMAP
03000000001800
078007FC003C00
0FC07FFF807E00
1FE1FFFFF0FF00
3FF7FFFFF9FF80
7FFFFFFFFFFFC0
FFFFFFFFFFFFE0
7FFFFFFFFFFFC0
3FFFFFFFFFFF80
1FFFFFFFFFFF00
0FFFFC07FFFE00
07FFE000FFFC00
03FFC0007FF800
07FF00001FFC00
07FE00000FFC00
0FFC000007FE00
0FFC000007FE00
1FF8000003FF00
1FF8000003FF00
1FF0000001FF00
1FF0000001FF00
3FF0000001FF80
3FE0000000FF80
3FE0000000FF80
3FE0000000FF80
3FE0000000FF80
3FE0000000FF80
3FE0000000FF80
3FE0000000FF80
3FE0000000FF80
3FF0000001FF80
1FF0000001FF00
1FF0000001FF00
1FF8000003FF00
1FF8000003FF00
0FFC000007FE00
0FFC00000FFE00
07FE00000FFC00
07FF00001FFC00
07FFC0007FFC00
0FFFE000FFFE00
1FFFFC07FFFF00
3FFFFFFFFFFF80
7FFFFFFFFFFFC0
FFFFFFFFFFFFE0
7FFFFFFFFFFFC0
3FFFFFFFFFFF80
1FE3FFFFFCFF00
0FC1FFFFF07E00
07807FFFC03C00
030007FE001800
ENDCHAR
STARTCHAR 00A5
ENCODING 165
SWIDTH 593 0
DWIDTH 57 0
BBX 56 69 1 0
BITMAP
FFFC0000007FFF
FFFE0000007FFE
7FFE000000FFFE
7FFF000000FFFC
3FFF000001FFFC
1FFF800001FFF8
1FFF800003FFF8
0FFFC00003FFF0
0FFFC00007FFF0
07FFE00007FFE0
07FFE0000FFFC0
03FFF0000FFFC0
03FFF0001FFF80
01FFF8001FFF80
01FFF8003FFF00
00FFF8003FFF00
007FFC007FFE00
007FFC007FFE00
003FFE007FFC00
003FFE00FFF800
001FFF00FFF800
001FFF01FFF000
000FFF81FFF000
000FFF83FFE000
0007FFC3FFE000
0007FFC7FFC000
0003FFE7FFC000
0001FFEFFF8000
0001FFFFFF0000
0000FFFFFF0000
0000FFFFFE0000
00007FFFFE0000
00007FFFFC0000
07FFFFFFFFFFC0
07FFFFFFFFFFC0
07FFFFFFFFFFC0
07FFFFFFFFFFC0
07FFFFFFFFFFC0
07FFFFFFFFFFC0
07FFFFFFFFFFC0
07FFFFFFFFFFC0
000007FFC00000
000007FFC00000
000007FFC00000
000007FFC00000
000007FFC00000
000007FFC00000
07FFFFFFFFFFC0
07FFFFFFFFFFC0
07FFFFFFFFFFC0
07FFFFFFFFFFC0
07FFFFFFFFFFC0
07FFFFFFFFFFC0
07FFFFFFFFFFC0
07FFFFFFFFFFC0
000007FFC00000
000007FFC00000
000007FFC00000
000007FFC00000
000007FFC00000
000007FFC00000
000007FFC00000
000007FFC00000
000007FFC00000
000007FFC00000
000007FFC00000
000007FFC00000
000007FFC00000
000007FFC00000
ENDCHAR
STARTCHAR 00A6
ENCODING 166
SWIDTH 604 0
DWIDTH 58 0
BBX 12 82 23 -13
BITMAP
FFF0
FFF0
FFF0
FFF0
FFF0
FFF0
FFF0
FFF0
FFF0
FFF0
FFF0
FFF0
FFF0
FFF0
FFF0
FFF0
FFF0
FFF0
FFF0
FFF0
FFF0
FFF0
FFF0
FFF0
FFF0
FFF0
FFF0
FFF0
FFF0
FFF0
FFF0
FFF0
FFF0
FFF0
FFF0
FFF0
0000
0000
0000
0000
0000
0000
0000
0000
FFF0
FFF0
FFF0
FFF0
FFF0
FFF0
FFF0
FFF0
FFF0
FFF0
FFF0
FFF0
FFF0
FFF0
FFF0
FFF0
FFF0
FFF0
FFF0
FFF0
FFF0
FFF0
FFF0
FFF0
FFF0
FFF0
FFF0
FFF0
FFF0
FFF0
FFF0
FFF0
FFF0
FFF0
FFF0
FFF0
FFF0
FFF0
ENDCHAR
STARTCHAR 00A7
ENCODING 167
SWIDTH 604 0
DWIDTH 58 0
BBX 51 91 4 -22
BITMAP
00001FFF000000
0001FFFFF00000
000FFFFFFE0000
003FFFFFFF8000
00FFFFFFFFE000
01FFFFFFFFF000
03FFFFFFFFF800
07FFFFFFFFFC00
0FFFFFFFFFFE00
1FFFFFFFFFFE00
1FFFFFFFFFFF00
3FFFE001FFFF00
3FFF80007FFF80
3FFF00003FFF80
7FFE00001FFF80
7FFC00000FFFC0
7FFC00000FFFC0
7FFC000007FFC0
7FFC000007FFC0
7FFC000007FFC0
7FFC0000000000
7FFE0000000000
7FFF0000000000
3FFF8000000000
3FFFE000000000
1FFFFC00000000
1FFFFF80000000
0FFFFFF8000000
0FFFFFFF800000
07FFFFFFF00000
03FFFFFFFC0000
00FFFFFFFF0000
03FFFFFFFFC000
07FFFFFFFFF000
0FFFFFFFFFF800
1FFFFFFFFFFC00
3FFF3FFFFFFE00
3FFE07FFFFFF00
7FFC00FFFFFF80
7FFC001FFFFF80
FFF80003FFFFC0
FFF80000FFFFC0
FFF800003FFFC0
FFF800000FFFE0
FFF8000007FFE0
FFF8000007FFE0
FFFC000003FFE0
FFFC000003FFE0
FFFE000003FFE0
7FFF800003FFE0
7FFFE00003FFE0
7FFFF80007FFC0
3FFFFF0007FFC0
3FFFFFF00FFFC0
1FFFFFFE1FFF80
0FFFFFFFFFFF00
07FFFFFFFFFF00
03FFFFFFFFFE00
00FFFFFFFFF800
007FFFFFFFF000
001FFFFFFFF000
0003FFFFFFF800
00007FFFFFFC00
00000FFFFFFC00
000001FFFFFE00
0000003FFFFE00
00000007FFFF00
00000001FFFF00
000000007FFF00
000000003FFF80
000000001FFF80
FFF800000FFF80
FFF800000FFF80
FFF800000FFF80
FFF800000FFF80
FFFC00000FFF80
7FFE00001FFF80
7FFE00003FFF80
7FFF80007FFF00
3FFFE001FFFF00
3FFFFFFFFFFF00
1FFFFFFFFFFE00
1FFFFFFFFFFC00
0FFFFFFFFFFC00
07FFFFFFFFF800
03FFFFFFFFF000
00FFFFFFFFC000
007FFFFFFF8000
001FFFFFFE0000
0003FFFFF00000
00001FFF000000
ENDCHAR
STARTCHAR 00A8
ENCODING 168
SWIDTH 593 0
DWIDTH 57 0
BBX 35 12 12 59
BITMAP
0F80003E00
3FE000FF80
7FF001FFC0
7FF003FFC0
FFF803FFE0
FFF803FFE0
FFF803FFE0
FFF803FFE0
FFF803FFC0
7FF001FFC0
3FE000FF80
0F80003E00
ENDCHAR
STARTCHAR 00A9
ENCODING 169
SWIDTH 604 0
DWIDTH 58 0
BBX 50 53 4 -1
BITMAP
00000FFC000000
00007FFF800000
0003FFFFF00000
000FFFFFFC0000
001FF803FE0000
003F80007F0000
00FE00001FC000
01FC00000FE000
01F0000003F000
03E0000001F000
07C0000000F800
0F8007F8007C00
0F003FFF003C00
1F007FFF803E00
1E00FFFFC01E00
3E01FFFFE01F00
3C03F80FF00F00
7C07F007F00F80
7807E003F80780
7807C001F80780
780FC001F80780
F00F8001F803C0
F00F80000003C0
F00F80000003C0
F00F80000003C0
F00F80000003C0
F00F80000003C0
F00F80000003C0
F00F80000003C0
F00F80000003C0
F00F80000003C0
F00F8001F807C0
780FC001F80780
7807C001F80780
7807E003F80780
7C07F007F00F80
3C03F80FF00F00
3E01FFFFE01F00
1E00FFFFE01E00
1F007FFFC03E00
0F003FFF007C00
0F8007F8007C00
07C0000000F800
03E0000001F000
01F0000003E000
00FC00000FE000
00FE00001FC000
003F80007F0000
001FF807FE0000
000FFFFFFC0000
0003FFFFF00000
0000FFFFC00000
00000FFC000000
ENDCHAR
STARTCHAR 00AA
ENCODING 170
SWIDTH 604 0
DWIDTH 58 0
BBX 31 37 13 32
BITMAP
000FF800
007FFF00
01FFFFC0
07FFFFE0
0FFFFFF0
0FFFFFF0
1FFFFFF8
1FF81FF8
3FE007FC
3FE007FC
3FC003FC
00C003FC
000003FC
000003FC
000003FC
000003FC
00FFFFFC
07FFFFFC
0FFFFFFC
3FFFFFFC
3FFFFFFC
7FF003FC
7FC003FC
FF8003FC
FF0003FC
FF0003FC
FF0007FC
FF000FFC
FF801FFC
FFC07FFC
7FFFFFFC
7FFFFFFC
3FFFFFFE
1FFFFBFE
0FFFE1FE
07FFC1FE
00FE0000
ENDCHAR
STARTCHAR 00AB
ENCODING 171
SWIDTH 604 0
DWIDTH 58 0
BBX 39 38 9 4
BITMAP
0007F803FE
000FF803FC
001FF007FC
003FE00FF8
003FE00FF8
007FC01FF0
00FFC03FE0
00FF807FE0
01FF007FC0
03FF00FFC0
07FE01FF80
07FE01FF00
0FFC03FF00
1FF807FE00
1FF80FFE00
3FF00FFC00
7FF01FF800
7FE03FF800
FFC03FF000
FFC03FF000
7FE03FF800
7FF01FF800
3FF00FFC00
1FF80FFE00
1FF807FE00
0FFC03FF00
07FE01FF00
07FE01FF80
03FF00FFC0
01FF007FC0
00FF807FE0
00FFC03FE0
007FC01FF0
003FE00FF8
003FE00FF8
001FF007FC
000FF803FC
0007F803FE
ENDCHAR
STARTCHAR 00AC
ENCODING 172
SWIDTH 604 0
DWIDTH 58 0
BBX 39 21 9 17
BITMAP
FFFFFFFFFE
FFFFFFFFFE
FFFFFFFFFE
FFFFFFFFFE
FFFFFFFFFE
FFFFFFFFFE
FFFFFFFFFE
FFFFFFFFFE
00000003FE
00000003FE
00000003FE
00000003FE
00000003FE
00000003FE
00000003FE
00000003FE
00000003FE
00000003FE
00000003FE
00000003FE
00000003FE
ENDCHAR
STARTCHAR 00AD
ENCODING 173
SWIDTH 593 0
DWIDTH 57 0
BBX 39 11 13 25
BITMAP
FFFFFFFFFE
FFFFFFFFFE
FFFFFFFFFE
FFFFFFFFFE
FFFFFFFFFE
FFFFFFFFFE
FFFFFFFFFE
FFFFFFFFFE
FFFFFFFFFE
FFFFFFFFFE
FFFFFFFFFE
ENDCHAR
STARTCHAR 00AE
ENCODING 174
SWIDTH 604 0
DWIDTH 58 0
BBX 50 53 4 -1
BITMAP
00000FFC000000
00007FFF800000
0003FFFFF00000
000FFFFFF80000
001FF803FE0000
003F80007F0000
00FE00001FC000
01FC00000FE000
03F0000003E000
03E0000001F000
07C0000000F800
0F81FFF8007C00
0F01FFFF003C00
1F01FFFF803E00
1E01FFFFC01E00
3E01FFFFE01F00
3C01F007E00F00
7C01F003F00F80
7801F001F00780
7801F001F00780
7801F001F00780
F001F001F007C0
F001F003F003C0
F001F00FE003C0
F001FFFFC003C0
F001FFFF8003C0
F001FFFF0003C0
F001FFFC0003C0
F001FFFC0003C0
F001F03E0003C0
F001F03E0003C0
F001F01F0007C0
7801F01F000780
7801F00F800780
7801F00F800780
7C01F007C00F80
3C01F007C00F00
3E01F003E01F00
1E01F003E01E00
1F01F003F03E00
0F01F001F07C00
0F800000007C00
07C0000000F800
03E0000001F000
01F0000003E000
01FC00000FE000
00FE00001FC000
003F80007F0000
001FF807FE0000
000FFFFFFC0000
0003FFFFF00000
00007FFF800000
00000FFC000000
ENDCHAR
STARTCHAR 00AF
ENCODING 175
SWIDTH 604 0
DWIDTH 58 0
BBX 34 8 13 61
BITMAP
FFFFFFFFC0
FFFFFFFFC0
FFFFFFFFC0
FFFFFFFFC0
FFFFFFFFC0
FFFFFFFFC0
FFFFFFFFC0
FFFFFFFFC0
ENDCHAR
STARTCHAR 00B0
ENCODING 176
SWIDTH 604 0
DWIDTH 58 0
BBX 25 26 17 44
BITMAP
007F0000
01FFC000
07FFF000
0FFFF800
1FFFFC00
3FFFFE00
3FFFFE00
7FC1FF00
7F80FF00
FF007F80
FF007F80
FE003F80
FE003F80
FE003F80
FE003F80
FE003F80
FF007F80
7F80FF00
7FC1FF00
3FFFFE00
3FFFFE00
1FFFFC00
0FFFF800
07FFF000
01FFC000
007F0000
ENDCHAR
STARTCHAR 00B1
ENCODING 177
SWIDTH 604 0
DWIDTH 58 0
BBX 43 61 7 0
BITMAP
0000FFE00000
0000FFE00000
0000FFE00000
0000FFE00000
0000FFE00000
0000FFE00000
0000FFE00000
0000FFE00000
0000FFE00000
0000FFE00000
0000FFE00000
0000FFE00000
0000FFE00000
0000FFE00000
0000FFE00000
0000FFE00000
0000FFE00000
FFFFFFFFFFE0
FFFFFFFFFFE0
FFFFFFFFFFE0
FFFFFFFFFFE0
FFFFFFFFFFE0
FFFFFFFFFFE0
FFFFFFFFFFE0
FFFFFFFFFFE0
FFFFFFFFFFE0
FFFFFFFFFFE0
FFFFFFFFFFE0
0000FFE00000
0000FFE00000
0000FFE00000
0000FFE00000
0000FFE00000
0000FFE00000
0000FFE00000
0000FFE00000
0000FFE00000
0000FFE00000
0000FFE00000
0000FFE00000
0000FFE00000
0000FFE00000
0000FFE00000
0000FFE00000
0000FFE00000
000000000000
000000000000
000000000000
000000000000
000000000000
7FFFFFFFFF80
7FFFFFFFFF80
7FFFFFFFFF80
7FFFFFFFFF80
7FFFFFFFFF80
7FFFFFFFFF80
7FFFFFFFFF80
7FFFFFFFFF80
7FFFFFFFFF80
7FFFFFFFFF80
7FFFFFFFFF80
ENDCHAR
STARTCHAR 00B2
ENCODING 178
SWIDTH 604 0
DWIDTH 58 0
BBX 30 38 14 31
BITMAP
003FE000
01FFFE00
07FFFF00
0FFFFFC0
1FFFFFE0
3FFFFFE0
3FFFFFF0
7FFFFFF0
7FF03FF8
FFC01FF8
FFC01FF8
FFC00FF8
FF801FF8
00001FF8
00001FF8
00003FF0
00007FF0
0000FFE0
0001FFE0
0003FFC0
0007FF80
000FFF00
001FFE00
003FFC00
007FF800
00FFF000
01FFC000
03FF8000
0FFF0000
1FFE0000
3FF80000
7FFFFFFC
7FFFFFFC
7FFFFFFC
7FFFFFFC
7FFFFFFC
7FFFFFFC
7FFFFFFC
ENDCHAR
STARTCHAR 00B3
ENCODING 179
SWIDTH 604 0
DWIDTH 58 0
BBX 30 39 14 30
BITMAP
003FF000
01FFFE00
07FFFF80
0FFFFFC0
1FFFFFE0
3FFFFFF0
3FFFFFF0
7FFFFFF8
7FE03FF8
7FC01FF8
7FC00FF8
00000FF8
00000FF8
00000FF8
00001FF8
00007FF0
003FFFE0
003FFFC0
003FFF00
003FFF00
003FFFC0
003FFFF0
00007FF8
00001FF8
00000FFC
00000FFC
000007FC
FF800FFC
FFC00FFC
FFE00FFC
FFF03FFC
7FFFFFF8
7FFFFFF8
3FFFFFF0
1FFFFFE0
0FFFFFC0
03FFFF00
00FFFC00
00020000
ENDCHAR
STARTCHAR 00B4
ENCODING 180
SWIDTH 604 0
DWIDTH 58 0
BBX 23 13 18 57
BITMAP
00FFFE
00FFFC
01FFF8
03FFF0
03FFE0
07FFC0
0FFF80
0FFF00
1FFE00
3FFC00
3FF800
7FF000
FFE000
ENDCHAR
STARTCHAR 00B5
ENCODING 181
SWIDTH 604 0
DWIDTH 58 0
BBX 45 71 8 -20
BITMAP
FFF80000FFF8
FFF80000FFF8
FFF80000FFF8
FFF80000FFF8
FFF80000FFF8
FFF80000FFF8
FFF80000FFF8
FFF80000FFF8
FFF80000FFF8
FFF80000FFF8
FFF80000FFF8
FFF80000FFF8
FFF80000FFF8
FFF80000FFF8
FFF80000FFF8
FFF80000FFF8
FFF80000FFF8
FFF80000FFF8
FFF80000FFF8
FFF80000FFF8
FFF80000FFF8
FFF80000FFF8
FFF80000FFF8
FFF80000FFF8
FFF80000FFF8
FFF80000FFF8
FFF80000FFF8
FFF80000FFF8
FFF80000FFF8
FFF80000FFF8
FFF80000FFF8
FFF80000FFF8
FFF80000FFF8
FFF80000FFF8
FFF80000FFF8
FFFC0000FFF8
FFFC0000FFF8
FFFC0000FFF8
FFFE0001FFF8
FFFE0003FFF8
FFFF000FFFF8
FFFFC03FFFF8
FFFFFFFFFFF8
FFFFFFFFFFF8
FFFFFFFFFFF8
FFFFFFFFFFF8
FFFFFFFFFFF8
FFFFFFFFFFF8
FFFFFFFF7FF8
FFFFFFFE7FF8
FFFBFFFC7FF8
FFF8FFF00000
FFF80E000000
FFF800000000
FFF800000000
FFF800000000
FFF800000000
FFF800000000
FFF800000000
FFF800000000
FFF800000000
FFF800000000
FFF800000000
FFF800000000
FFF800000000
FFF800000000
FFF800000000
FFF800000000
FFF800000000
FFF800000000
FFF800000000
ENDCHAR
STARTCHAR 00B6
ENCODING 182
SWIDTH 593 0
DWIDTH 57 0
BBX 37 69 10 0
BITMAP
00007FFFF8
0003FFFFF8
001FFFFFF8
007FFFFFF8
00FFFFFFF8
01FFFFFFF8
03FFFFFFF8
07FFFFFFF8
0FFFFFFFF8
1FFFFFFFF8
1FFFFFFFF8
3FFFFFFFF8
3FFFFFFFF8
7FFFFFFFF8
7FFFFFFFF8
7FFFFFFFF8
7FFFFFFFF8
FFFFFFFFF8
FFFFFFFFF8
FFFFFFFFF8
FFFFFFFFF8
FFFFFFFFF8
FFFFFFFFF8
FFFFFFFFF8
FFFFFFFFF8
FFFFFFFFF8
FFFFFFFFF8
7FFFFFFFF8
7FFFFFFFF8
7FFFFFFFF8
7FFFFFFFF8
3FFFFFFFF8
3FFFFFFFF8
1FFFFFFFF8
1FFFFFFFF8
0FFFFFFFF8
07FFFFFFF8
03FFFFFFF8
01FFFFFFF8
00FFFFFFF8
007FFFFFF8
001FFFFFF8
0007FFFFF8
00007FFFF8
0000001FF8
0000001FF8
0000001FF8
0000001FF8
0000001FF8
0000001FF8
0000001FF8
0000001FF8
0000001FF8
0000001FF8
0000001FF8
0000001FF8
0000001FF8
0000001FF8
0000001FF8
0000001FF8
0000001FF8
0000001FF8
0000001FF8
0000001FF8
0000001FF8
0000001FF8
0000001FF8
0000001FF8
0000001FF8
ENDCHAR
STARTCHAR 00B7
ENCODING 183
SWIDTH 604 0
DWIDTH 58 0
BBX 15 14 23 26
BITMAP
0FE0
1FF0
3FF8
7FFC
FFFE
FFFE
FFFE
FFFE
FFFE
FFFE
7FFC
3FF8
1FF0
0FE0
ENDCHAR
STARTCHAR 00B8
ENCODING 184
SWIDTH 593 0
DWIDTH 57 0
BBX 18 22 20 -22
BITMAP
7FE000
7FE000
7FE000
7FFC00
7FFE00
FFFF00
FFFF80
07FF80
01FFC0
01FFC0
01FFC0
01FFC0
03FFC0
07FFC0
7FFF80
7FFF80
7FFF00
7FFE00
7FFC00
7FF800
7FE000
7E0000
ENDCHAR
STARTCHAR 00B9
ENCODING 185
SWIDTH 593 0
DWIDTH 57 0
BBX 18 37 18 31
BITMAP
0000C0
0007C0
003FC0
01FFC0
0FFFC0
7FFFC0
FFFFC0
FFFFC0
FFFFC0
FFFFC0
FFFFC0
FE7FC0
E07FC0
007FC0
007FC0
007FC0
007FC0
007FC0
007FC0
007FC0
007FC0
007FC0
007FC0
007FC0
007FC0
007FC0
007FC0
007FC0
007FC0
007FC0
007FC0
007FC0
007FC0
007FC0
007FC0
007FC0
007FC0
ENDCHAR
STARTCHAR 00BA
ENCODING 186
SWIDTH 593 0
DWIDTH 57 0
BBX 32 37 12 32
BITMAP
001FF800
007FFF00
01FFFF80
07FFFFE0
0FFFFFF0
1FFFFFF8
1FFFFFFC
3FF81FFC
7FE007FE
7FC003FE
7F8001FE
FF8001FF
FF8000FF
FF0000FF
FF0000FF
FF0000FF
FF0000FF
FF0000FF
FF0000FF
FF0000FF
FF0000FF
FF0000FF
FF0000FF
FF0000FF
FF8000FF
FF8001FF
7F8001FE
7FC003FE
3FE007FE
3FF81FFC
1FFFFFFC
0FFFFFF8
0FFFFFF0
03FFFFE0
01FFFF80
007FFE00
000FF000
ENDCHAR
STARTCHAR 00BB
ENCODING 187
SWIDTH 604 0
DWIDTH 58 0
BBX 39 38 11 6
BITMAP
FF003FC000
7F803FE000
7FC01FF000
3FE01FF000
3FE00FF800
1FF007FC00
1FF807FC00
0FFC03FE00
07FC03FF00
07FE01FF80
03FF00FF80
03FF00FFC0
01FF807FE0
00FFC07FE0
00FFE03FF0
007FE03FF8
007FF01FFC
003FF80FFC
001FF80FFE
001FF80FFE
003FF80FFC
007FF01FFC
007FE01FF8
00FFE03FF0
00FFC07FE0
01FF807FE0
03FF00FFC0
03FF00FF80
07FE01FF80
07FC03FF00
0FFC03FE00
0FF807FC00
1FF007FC00
3FE00FF800
3FE01FF000
7FC01FF000
7F803FE000
FF003FC000
ENDCHAR
STARTCHAR 00BC
ENCODING 188
SWIDTH 593 0
DWIDTH 57 0
BBX 52 69 3 0
BITMAP
00030000000000
001F0000000000
00FF0000000000
07FF0000000000
3FFF0000000000
FFFF0000000000
FFFF0000000000
FFFF0000000000
FFFF0000000000
FFFF0000000000
FCFF0000000000
C0FF0000300000
00FF00007C0000
00FF00007F0000
00FF0000FF0000
00FF0000FE0000
00FF0001FE0000
00FF0003FC0000
00FF0003FC0000
00FF0007F80000
00FF0007F80000
00FF000FF00000
00FF000FF00000
00FF001FE00000
00FF001FE00000
00FF003FC00000
00FF003FC00000
00FF007F800000
00FF007F000000
00FF00FF000000
00FF01FE000000
00FF01FE000000
00FF03FC000000
00FF03FC000000
000007F8000000
000007F801FF00
00000FF003FF00
00000FF007FF00
00001FE007FF00
00001FC00FFF00
00003FC01FFF00
00003F803FFF00
00007F803FFF00
0000FF007FFF00
0000FF00FFFF00
0001FE00FFFF00
0001FE01FFFF00
0003FC03FDFF00
0003FC07F9FF00
0007F807F1FF00
0007F80FF1FF00
000FF01FE1FF00
000FE01FC1FF00
001FE03F81FF00
001FC07F01FF00
0007C07FFFFFF0
000380FFFFFFF0
000080FFFFFFF0
000000FFFFFFF0
000000FFFFFFF0
000000FFFFFFF0
000000FFFFFFF0
0000000001FF00
0000000001FF00
0000000001FF00
0000000001FF00
0000000001FF00
0000000001FF00
0000000001FF00
ENDCHAR
STARTCHAR 00BD
ENCODING 189
SWIDTH 593 0
DWIDTH 57 0
BBX 55 69 1 0
BITMAP
00030000000000
001F0000000000
00FF0000000000
07FF0000000000
3FFF0000000000
FFFF0000000000
FFFF0000000000
FFFF0000000000
FFFF0000000000
FFFF0000000000
FCFF0000000000
C0FF0000600000
00FF0000F80000
00FF0001FE0000
00FF0001FE0000
00FF0003FC0000
00FF0003FC0000
00FF0007F80000
00FF0007F80000
00FF000FF00000
00FF000FF00000
00FF001FE00000
00FF001FE00000
00FF003FC00000
00FF003FC00000
00FF007F800000
00FF00FF000000
00FF00FF000000
00FF01FE000000
00FF01FE000000
00FF03FC000000
00FF03FC000000
00FF07F8000000
00FF07F8000000
00000FF0000000
00000FF007FE00
00001FE01FFFC0
00001FC07FFFE0
00003FC0FFFFF0
00007F81FFFFF8
00007F83FFFFFC
0000FF07FFFFFC
0000FF07FE0FFE
0001FE07FC07FE
0001FE0FF803FE
0003FC0FF803FE
0003FC0FF803FE
0007F8000007FE
0007F0000007FE
000FF000000FFC
000FE000001FFC
001FE000003FF8
003FC000007FF0
003FC00000FFE0
007F800001FFC0
001F800003FF80
0007000007FF00
000100001FFC00
000000003FF800
000000007FF000
00000000FFC000
00000001FF8000
00000003FFFFFE
00000007FFFFFE
00000007FFFFFE
00000007FFFFFE
00000007FFFFFE
00000007FFFFFE
00000007FFFFFE
ENDCHAR
STARTCHAR 00BE
ENCODING 190
SWIDTH 604 0
DWIDTH 58 0
BBX 56 69 2 0
BITMAP
007FC000000000
03FFF800000000
0FFFFC00000000
1FFFFF00000000
3FFFFF00000000
3FFFFF80000000
7FFFFFC0000000
7FE0FFC0000000
7F807FC0000000
7F803FC0000000
00003FC0000000
00003FC001C000
00007F8001F000
0000FF8003FC00
007FFF0003FC00
007FFE0007F800
007FF80007F800
007FFC000FF000
007FFF000FF000
007FFF801FE000
0000FFC01FE000
00007FC03FC000
00003FE03F8000
00003FE07F8000
FF003FE0FF0000
FF807FE0FF0000
FFE0FFE1FE0000
7FFFFFC1FE0000
7FFFFFC3FC0000
3FFFFF83FC0000
1FFFFF07F80000
0FFFFE07F80000
03FFF80FF00000
007FC00FE00000
0000001FE00000
0000003FC01FF0
0000003FC03FF0
0000007F807FF0
0000007F807FF0
000000FF00FFF0
000000FF01FFF0
000001FE03FFF0
000001FE03FFF0
000003FC07FFF0
000003F80FFFF0
000007F80FFFF0
00000FF01FFFF0
00000FF03FDFF0
00001FE03F9FF0
00001FE07F1FF0
00003FC0FF1FF0
00003FC1FE1FF0
00007F81FC1FF0
00007F83F81FF0
0000FF07F81FF0
00003E07FFFFFF
00000E0FFFFFFF
0000000FFFFFFF
0000000FFFFFFF
0000000FFFFFFF
0000000FFFFFFF
0000000FFFFFFF
00000000001FF0
00000000001FF0
00000000001FF0
00000000001FF0
00000000001FF0
00000000001FF0
00000000001FF0
ENDCHAR
STARTCHAR 00BF
ENCODING 191
SWIDTH 593 0
DWIDTH 57 0
BBX 42 69 9 -19
BITMAP
00001F800000
00007FC00000
00007FE00000
0000FFF00000
0000FFF00000
0000FFF00000
0000FFF00000
0000FFF00000
0000FFF00000
00007FE00000
00007FC00000
00001F800000
000000000000
000000000000
000000000000
000000000000
000000000000
000000000000
000000000000
000000000000
0000FFF00000
0000FFF00000
0000FFF00000
0000FFF00000
0000FFF00000
0000FFF00000
0001FFF00000
0001FFF00000
0003FFF00000
0007FFF00000
000FFFE00000
001FFFE00000
003FFFC00000
007FFF800000
00FFFF000000
01FFFE000000
03FFFC000000
07FFF8000000
07FFF0000000
0FFFE0000000
1FFFC0000000
3FFF80000000
3FFF00000000
7FFF00000000
7FFE00000000
7FFC00000000
FFFC00000000
FFFC00000000
FFF800000000
FFF800000000
FFF80007FFC0
FFF80007FFC0
FFF80007FFC0
FFF80007FFC0
FFFC000FFFC0
FFFC001FFF80
7FFE001FFF80
7FFF007FFF80
7FFFFFFFFF00
3FFFFFFFFF00
3FFFFFFFFE00
1FFFFFFFFE00
0FFFFFFFFC00
07FFFFFFF800
03FFFFFFF000
01FFFFFFC000
007FFFFF8000
001FFFFC0000
0001FFE00000
ENDCHAR
STARTCHAR 00C0
ENCODING 192
SWIDTH 604 0
DWIDTH 58 0
BBX 57 87 1 -1
BITMAP
000FFFC000000000
0007FFE000000000
0003FFE000000000
0001FFF000000000
0000FFF800000000
00007FF800000000
00003FFC00000000
00003FFC00000000
00001FFE00000000
00000FFF00000000
000007FF00000000
000003FF80000000
000001FFC0000000
0000000000000000
0000000000000000
0000000000000000
0000000000000000
000001FFE0000000
000003FFE0000000
000003FFE0000000
000003FFF0000000
000007FFF0000000
000007FFF0000000
000007FFF8000000
00000FFFF8000000
00000FFFF8000000
00000FFFFC000000
00001FFFFC000000
00001FFFFC000000
00001FFFFC000000
00003FFFFE000000
00003FFFFE000000
00003FFFFE000000
00007FFFFF000000
00007FFFFF000000
00007FFFFF000000
0000FFF7FF800000
0000FFF7FF800000
0000FFF7FF800000
0000FFE3FFC00000
0001FFE3FFC00000
0001FFE3FFC00000
0001FFE1FFE00000
0003FFC1FFE00000
0003FFC1FFE00000
0003FFC1FFF00000
0007FFC0FFF00000
0007FF80FFF00000
0007FF80FFF80000
000FFF80FFF80000
000FFF007FF80000
000FFF007FF80000
001FFF007FFC0000
001FFF003FFC0000
001FFE003FFC0000
003FFE003FFE0000
003FFE003FFE0000
003FFC001FFE0000
007FFC001FFF0000
007FFC001FFF0000
007FFC001FFF0000
00FFFFFFFFFF8000
00FFFFFFFFFF8000
00FFFFFFFFFF8000
01FFFFFFFFFFC000
01FFFFFFFFFFC000
01FFFFFFFFFFC000
03FFFFFFFFFFE000
03FFFFFFFFFFE000
03FFFFFFFFFFE000
07FFFFFFFFFFF000
07FFFFFFFFFFF000
07FFC00001FFF000
07FFC00001FFF000
0FFFC00001FFF800
0FFF800000FFF800
0FFF800000FFF800
1FFF800000FFFC00
1FFF000000FFFC00
1FFF0000007FFC00
3FFF0000007FFE00
3FFF0000007FFE00
3FFE0000003FFE00
7FFE0000003FFF00
7FFE0000003FFF00
7FFC0000003FFF00
FFFC0000001FFF80
ENDCHAR
STARTCHAR 00C1
ENCODING 193
SWIDTH 604 0
DWIDTH 58 0
BBX 57 87 1 -1
BITMAP
00000000FFFC0000
00000001FFF80000
00000003FFF00000
00000003FFE00000
00000007FFC00000
0000000FFF800000
0000000FFF000000
0000001FFE000000
0000003FFC000000
0000003FF8000000
0000007FF0000000
000000FFE0000000
000000FFC0000000
0000000000000000
0000000000000000
0000000000000000
0000000000000000
000001FFE0000000
000003FFE0000000
000003FFE0000000
000003FFF0000000
000007FFF0000000
000007FFF0000000
000007FFF8000000
00000FFFF8000000
00000FFFF8000000
00000FFFFC000000
00001FFFFC000000
00001FFFFC000000
00001FFFFE000000
00003FFFFE000000
00003FFFFE000000
00003FFFFE000000
00007FFFFF000000
00007FFFFF000000
00007FFFFF000000
0000FFF7FF800000
0000FFF7FF800000
0000FFF7FF800000
0001FFE3FFC00000
0001FFE3FFC00000
0001FFE3FFC00000
0001FFE1FFE00000
0003FFC1FFE00000
0003FFC1FFE00000
0003FFC1FFF00000
0007FFC0FFF00000
0007FF80FFF00000
0007FF80FFF80000
000FFF80FFF80000
000FFF007FF80000
000FFF007FF80000
001FFF007FFC0000
001FFF003FFC0000
001FFE003FFC0000
003FFE003FFE0000
003FFE003FFE0000
003FFC001FFE0000
007FFC001FFF0000
007FFC001FFF0000
007FFC001FFF0000
00FFFFFFFFFF8000
00FFFFFFFFFF8000
00FFFFFFFFFF8000
01FFFFFFFFFFC000
01FFFFFFFFFFC000
01FFFFFFFFFFC000
03FFFFFFFFFFE000
03FFFFFFFFFFE000
03FFFFFFFFFFE000
07FFFFFFFFFFF000
07FFFFFFFFFFF000
07FFC00001FFF000
07FFC00001FFF000
0FFFC00001FFF800
0FFF800000FFF800
0FFF800000FFF800
1FFF800000FFFC00
1FFF000000FFFC00
1FFF0000007FFC00
3FFF0000007FFE00
3FFF0000007FFE00
3FFE0000003FFE00
7FFE0000003FFF00
7FFE0000003FFF00
7FFC0000003FFF00
FFFC0000001FFF80
ENDCHAR
STARTCHAR 00C2
ENCODING 194
SWIDTH 593 0
DWIDTH 57 0
BBX 56 89 1 -1
BITMAP
0000007F000000
000001FF800000
000003FFE00000
000007FFF00000
00000FFFF80000
00003FFFFC0000
00007FFFFF0000
0000FFF7FF8000
0001FFE3FFC000
0003FF81FFE000
000FFF007FF800
001FFE003FFC00
001FFC001FFC00
00000000000000
00000000000000
00000000000000
00000000000000
00000000000000
00000000000000
000003FFC00000
000003FFE00000
000003FFE00000
000007FFE00000
000007FFF00000
000007FFF00000
00000FFFF00000
00000FFFF80000
00000FFFF80000
00001FFFF80000
00001FFFFC0000
00001FFFFC0000
00003FFFFC0000
00003FFFFC0000
00003FFFFE0000
00003FFFFE0000
00007FFFFE0000
00007FFFFF0000
00007FFFFF0000
0000FFF7FF0000
0000FFF7FF8000
0000FFE7FF8000
0001FFE7FF8000
0001FFE3FFC000
0001FFE3FFC000
0003FFC3FFC000
0003FFC1FFE000
0003FFC1FFE000
0007FFC1FFE000
0007FF81FFF000
0007FF80FFF000
000FFF80FFF000
000FFF00FFF800
000FFF00FFF800
001FFF007FF800
001FFF007FFC00
001FFE007FFC00
003FFE003FFC00
003FFE003FFC00
003FFC003FFE00
007FFC003FFE00
007FFC001FFE00
007FFC001FFF00
00FFF8001FFF00
00FFFFFFFFFF00
00FFFFFFFFFF80
01FFFFFFFFFF80
01FFFFFFFFFF80
01FFFFFFFFFFC0
03FFFFFFFFFFC0
03FFFFFFFFFFC0
03FFFFFFFFFFE0
07FFFFFFFFFFE0
07FFFFFFFFFFE0
07FFFFFFFFFFF0
07FFC00001FFF0
0FFF800001FFF0
0FFF800001FFF8
0FFF800001FFF8
1FFF800000FFF8
1FFF000000FFF8
1FFF000000FFFC
3FFF000000FFFC
3FFF0000007FFC
3FFE0000007FFE
7FFE0000007FFE
7FFE0000003FFE
7FFC0000003FFF
FFFC0000003FFF
FFFC0000003FFF
ENDCHAR
STARTCHAR 00C3
ENCODING 195
SWIDTH 604 0
DWIDTH 58 0
BBX 56 91 2 -1
BITMAP
00000000020000
00003F0003E000
0000FFE003F800
0001FFF803F800
0003FFFE0FF800
0007FFFFFFF000
0007FFFFFFF000
000FFFFFFFF000
000FFFFFFFE000
001FF9FFFFE000
001FE03FFFC000
001FC00FFF8000
001FC003FE0000
0001C000000000
00000000000000
00000000000000
00000000000000
00000000000000
00000000000000
00000000000000
00000000000000
000003FFC00000
000003FFC00000
000007FFE00000
000007FFE00000
000007FFE00000
00000FFFF00000
00000FFFF00000
00000FFFF00000
00001FFFF80000
00001FFFF80000
00001FFFF80000
00003FFFF80000
00003FFFFC0000
00003FFFFC0000
00007FFFFC0000
00007FFFFE0000
00007FFFFE0000
00007FFFFE0000
0000FFFFFF0000
0000FFFFFF0000
0000FFEFFF0000
0001FFE7FF8000
0001FFE7FF8000
0001FFE7FF8000
0003FFC3FFC000
0003FFC3FFC000
0003FFC3FFC000
0007FF83FFE000
0007FF81FFE000
0007FF81FFE000
000FFF81FFE000
000FFF00FFF000
000FFF00FFF000
001FFF00FFF000
001FFE00FFF800
001FFE007FF800
003FFE007FF800
003FFE007FFC00
003FFC007FFC00
007FFC003FFC00
007FFC003FFE00
007FF8003FFE00
00FFF8001FFE00
00FFF8001FFF00
00FFFFFFFFFF00
01FFFFFFFFFF00
01FFFFFFFFFF80
01FFFFFFFFFF80
03FFFFFFFFFF80
03FFFFFFFFFFC0
03FFFFFFFFFFC0
03FFFFFFFFFFC0
07FFFFFFFFFFC0
07FFFFFFFFFFE0
07FFFFFFFFFFE0
0FFF800003FFE0
0FFF800003FFF0
0FFF800001FFF0
1FFF800001FFF0
1FFF000001FFF8
1FFF000000FFF8
3FFF000000FFF8
3FFE000000FFFC
3FFE000000FFFC
7FFE0000007FFC
7FFE0000007FFE
7FFC0000007FFE
FFFC0000007FFE
FFFC0000003FFF
FFFC0000003FFF
ENDCHAR
STARTCHAR 00C4
ENCODING 196
SWIDTH 604 0
DWIDTH 58 0
BBX 57 88 1 -1
BITMAP
0001F00007C00000
0007FC001FF00000
000FFE003FF80000
000FFE007FF80000
001FFF007FFC0000
001FFF007FFC0000
001FFF007FFC0000
001FFF007FFC0000
001FFF007FF80000
000FFE003FF80000
0007FC001FF00000
0001F00007C00000
0000000000000000
0000000000000000
0000000000000000
0000000000000000
0000000000000000
0000000000000000
000001FFC0000000
000001FFE0000000
000003FFE0000000
000003FFE0000000
000003FFF0000000
000007FFF0000000
000007FFF0000000
000007FFF8000000
00000FFFF8000000
00000FFFF8000000
00000FFFFC000000
00001FFFFC000000
00001FFFFC000000
00001FFFFE000000
00001FFFFE000000
00003FFFFE000000
00003FFFFE000000
00003FFFFF000000
00007FFFFF000000
00007FF7FF000000
00007FF7FF800000
0000FFF7FF800000
0000FFF3FF800000
0000FFE3FFC00000
0001FFE3FFC00000
0001FFE3FFC00000
0001FFE1FFE00000
0003FFC1FFE00000
0003FFC1FFE00000
0003FFC0FFF00000
0007FF80FFF00000
0007FF80FFF00000
0007FF80FFF80000
000FFF807FF80000
000FFF007FF80000
000FFF007FFC0000
001FFF007FFC0000
001FFF003FFC0000
001FFE003FFE0000
003FFE003FFE0000
003FFE003FFE0000
003FFE001FFF0000
007FFC001FFF0000
007FFC001FFF0000
007FFFFFFFFF0000
00FFFFFFFFFF8000
00FFFFFFFFFF8000
00FFFFFFFFFF8000
01FFFFFFFFFFC000
01FFFFFFFFFFC000
01FFFFFFFFFFC000
03FFFFFFFFFFE000
03FFFFFFFFFFE000
03FFFFFFFFFFE000
07FFFFFFFFFFF000
07FFC00001FFF000
07FFC00001FFF000
0FFFC00001FFF800
0FFFC00001FFF800
0FFF800000FFF800
1FFF800000FFFC00
1FFF800000FFFC00
1FFF0000007FFC00
3FFF0000007FFE00
3FFF0000007FFE00
3FFF0000007FFE00
7FFE0000003FFF00
7FFE0000003FFF00
7FFE0000003FFF00
FFFC0000001FFF80
ENDCHAR
STARTCHAR 00C5
ENCODING 197
SWIDTH 604 0
DWIDTH 58 0
BBX 56 92 2 -1
BITMAP
0000007E000000
000003FFC00000
000007FFE00000
00000FFFF00000
00001FFFF80000
00001FC1F80000
00003F00FC0000
00003F007C0000
00003E007C0000
00003E007C0000
00003E007C0000
00003E007C0000
00001F00F80000
00001FC3F80000
00000FFFF00000
000007FFE00000
000003FFC00000
0000007F000000
00000000000000
00000000000000
00000000000000
00000000000000
000003FFE00000
000007FFE00000
000007FFE00000
000007FFE00000
00000FFFF00000
00000FFFF00000
00000FFFF00000
00001FFFF80000
00001FFFF80000
00001FFFF80000
00003FFFFC0000
00003FFFFC0000
00003FFFFC0000
00007FFFFE0000
00007FFFFE0000
00007FFFFE0000
0000FFFFFF0000
0000FFFFFF0000
0000FFFFFF0000
0001FFFFFF0000
0001FFE7FF8000
0001FFE7FF8000
0001FFE7FF8000
0003FFC7FFC000
0003FFC3FFC000
0003FFC3FFC000
0007FFC3FFE000
0007FF81FFE000
0007FF81FFE000
000FFF81FFF000
000FFF01FFF000
000FFF00FFF000
001FFF00FFF800
001FFF00FFF800
001FFE007FF800
003FFE007FF800
003FFE007FFC00
003FFC007FFC00
007FFC003FFC00
007FFC003FFE00
007FFC003FFE00
00FFF8001FFE00
00FFF8001FFF00
00FFF8001FFF00
00FFFFFFFFFF00
01FFFFFFFFFF80
01FFFFFFFFFF80
01FFFFFFFFFF80
03FFFFFFFFFFC0
03FFFFFFFFFFC0
03FFFFFFFFFFC0
07FFFFFFFFFFC0
07FFFFFFFFFFE0
07FFFFFFFFFFE0
0FFFFFFFFFFFE0
0FFF800003FFF0
0FFF800001FFF0
1FFF800001FFF0
1FFF800001FFF8
1FFF000001FFF8
3FFF000000FFF8
3FFF000000FFFC
3FFE000000FFFC
7FFE0000007FFC
7FFE0000007FFE
7FFE0000007FFE
7FFC0000007FFE
FFFC0000003FFE
FFFC0000003FFF
FFF80000003FFF
ENDCHAR
STARTCHAR 00C6
ENCODING 198
SWIDTH 593 0
DWIDTH 57 0
BBX 53 69 2 0
BITMAP
000001FFFFFFF0
000003FFFFFFF0
000003FFFFFFF0
000003FFFFFFF0
000007FFFFFFF0
000007FFFFFFF0
000007FFFFFFF0
00000FFFFFFFF0
00000FFFFFFFF0
00000FFFFFFFF0
00001FFFFFFFF0
00001FFFFF8000
00001FFFFF8000
00003FFFFF8000
00003FFFFF8000
00003FFFFF8000
00007FFFFF8000
00007FFFFF8000
00007FFFFF8000
0000FFEFFF8000
0000FFEFFF8000
0000FFEFFF8000
0001FFCFFF8000
0001FFCFFF8000
0001FFCFFF8000
0003FFCFFF8000
0003FF8FFF8000
0003FF8FFF8000
0007FF8FFFFFE0
0007FF0FFFFFE0
0007FF0FFFFFE0
000FFF0FFFFFE0
000FFF0FFFFFE0
000FFE0FFFFFE0
001FFE0FFFFFE0
001FFE0FFFFFE0
001FFE0FFFFFE0
001FFC0FFFFFE0
003FFC0FFFFFE0
003FFC0FFF8000
003FF80FFF8000
007FF80FFF8000
007FFFFFFF8000
007FFFFFFF8000
00FFFFFFFF8000
00FFFFFFFF8000
00FFFFFFFF8000
01FFFFFFFF8000
01FFFFFFFF8000
01FFFFFFFF8000
03FFFFFFFF8000
03FFFFFFFF8000
03FFFFFFFF8000
07FFC00FFF8000
07FF800FFF8000
07FF800FFF8000
0FFF800FFF8000
0FFF800FFF8000
0FFF000FFFFFF8
1FFF000FFFFFF8
1FFF000FFFFFF8
1FFE000FFFFFF8
3FFE000FFFFFF8
3FFE000FFFFFF8
3FFE000FFFFFF8
7FFC000FFFFFF8
7FFC000FFFFFF8
7FFC000FFFFFF8
FFFC000FFFFFF8
ENDCHAR
STARTCHAR 00C7
ENCODING 199
SWIDTH 604 0
DWIDTH 58 0
BBX 50 91 4 -21
BITMAP
00000FFE000000
00007FFFE00000
0003FFFFFC0000
000FFFFFFF0000
001FFFFFFF8000
003FFFFFFFC000
007FFFFFFFE000
00FFFFFFFFF000
01FFFFFFFFF800
03FFFFFFFFFC00
07FFFFFFFFFE00
07FFF801FFFE00
0FFFE0007FFF00
0FFFC0003FFF00
1FFF80001FFF00
1FFF00001FFF80
3FFF00000FFF80
3FFE00000FFF80
3FFE000007FFC0
7FFC000007FFC0
7FFC000007FFC0
7FFC000007FFC0
7FFC000007FFC0
FFF80000000000
FFF80000000000
FFF80000000000
FFF80000000000
FFF80000000000
FFF80000000000
FFF80000000000
FFF80000000000
FFF80000000000
FFF80000000000
FFF80000000000
FFF80000000000
FFF80000000000
FFF80000000000
FFF80000000000
FFF80000000000
FFF80000000000
FFF80000000000
FFF80000000000
FFF80000000000
FFF80000000000
FFF80000000000
FFF80000000000
FFF80000000000
7FFC0000000000
7FFC000007FFC0
7FFC000007FFC0
7FFC000007FFC0
7FFE000007FFC0
3FFE00000FFFC0
3FFE00000FFF80
3FFF00001FFF80
1FFF00001FFF80
1FFF80003FFF00
0FFFC0007FFF00
0FFFF001FFFE00
07FFFF1FFFFE00
03FFFFFFFFFC00
03FFFFFFFFF800
01FFFFFFFFF800
00FFFFFFFFF000
007FFFFFFFE000
003FFFFFFF8000
000FFFFFFF0000
0007FFFFFC0000
0000FFFFF00000
00003FFF800000
00000FFC000000
00000FFC000000
00000FFF800000
00001FFFC00000
00001FFFE00000
00001FFFF00000
000000FFF00000
0000003FF80000
0000003FF80000
0000003FF80000
0000003FF80000
0000007FF80000
000000FFF80000
00000FFFF00000
00000FFFF00000
00000FFFE00000
00000FFFC00000
00000FFF800000
00000FFF000000
00000FFC000000
00000FC0000000
ENDCHAR
STARTCHAR 00C8
ENCODING 200
SWIDTH 604 0
DWIDTH 58 0
BBX 46 86 7 0
BITMAP
03FFF0000000
01FFF8000000
00FFFC000000
007FFC000000
003FFE000000
001FFF000000
000FFF000000
0007FF800000
0003FFC00000
0001FFC00000
0000FFE00000
00007FF00000
00003FF00000
000000000000
000000000000
000000000000
000000000000
FFFFFFFFFFFC
FFFFFFFFFFFC
FFFFFFFFFFFC
FFFFFFFFFFFC
FFFFFFFFFFFC
FFFFFFFFFFFC
FFFFFFFFFFFC
FFFFFFFFFFFC
FFFFFFFFFFFC
FFFFFFFFFFFC
FFFFFFFFFFFC
FFF800000000
FFF800000000
FFF800000000
FFF800000000
FFF800000000
FFF800000000
FFF800000000
FFF800000000
FFF800000000
FFF800000000
FFF800000000
FFF800000000
FFF800000000
FFF800000000
FFF800000000
FFF800000000
FFF800000000
FFFFFFFFFFC0
FFFFFFFFFFC0
FFFFFFFFFFC0
FFFFFFFFFFC0
FFFFFFFFFFC0
FFFFFFFFFFC0
FFFFFFFFFFC0
FFFFFFFFFFC0
FFFFFFFFFFC0
FFFFFFFFFFC0
FFFFFFFFFFC0
FFF800000000
FFF800000000
FFF800000000
FFF800000000
FFF800000000
FFF800000000
FFF800000000
FFF800000000
FFF800000000
FFF800000000
FFF800000000
FFF800000000
FFF800000000
FFF800000000
FFF800000000
FFF800000000
FFF800000000
FFF800000000
FFF800000000
FFFFFFFFFFFC
FFFFFFFFFFFC
FFFFFFFFFFFC
FFFFFFFFFFFC
FFFFFFFFFFFC
FFFFFFFFFFFC
FFFFFFFFFFFC
FFFFFFFFFFFC
FFFFFFFFFFFC
FFFFFFFFFFFC
FFFFFFFFFFFC
ENDCHAR
STARTCHAR 00C9
ENCODING 201
SWIDTH 604 0
DWIDTH 58 0
BBX 46 86 7 0
BITMAP
0000003FFF80
0000007FFF00
0000007FFE00
000000FFFC00
000001FFF800
000001FFF000
000003FFE000
000007FF8000
000007FF0000
00000FFE0000
00001FFC0000
00001FF80000
00003FF00000
000000000000
000000000000
000000000000
000000000000
FFFFFFFFFFFC
FFFFFFFFFFFC
FFFFFFFFFFFC
FFFFFFFFFFFC
FFFFFFFFFFFC
FFFFFFFFFFFC
FFFFFFFFFFFC
FFFFFFFFFFFC
FFFFFFFFFFFC
FFFFFFFFFFFC
FFFFFFFFFFFC
FFF800000000
FFF800000000
FFF800000000
FFF800000000
FFF800000000
FFF800000000
FFF800000000
FFF800000000
FFF800000000
FFF800000000
FFF800000000
FFF800000000
FFF800000000
FFF800000000
FFF800000000
FFF800000000
FFF800000000
FFFFFFFFFFC0
FFFFFFFFFFC0
FFFFFFFFFFC0
FFFFFFFFFFC0
FFFFFFFFFFC0
FFFFFFFFFFC0
FFFFFFFFFFC0
FFFFFFFFFFC0
FFFFFFFFFFC0
FFFFFFFFFFC0
FFFFFFFFFFC0
FFF800000000
FFF800000000
FFF800000000
FFF800000000
FFF800000000
FFF800000000
FFF800000000
FFF800000000
FFF800000000
FFF800000000
FFF800000000
FFF800000000
FFF800000000
FFF800000000
FFF800000000
FFF800000000
FFF800000000
FFF800000000
FFF800000000
FFFFFFFFFFFC
FFFFFFFFFFFC
FFFFFFFFFFFC
FFFFFFFFFFFC
FFFFFFFFFFFC
FFFFFFFFFFFC
FFFFFFFFFFFC
FFFFFFFFFFFC
FFFFFFFFFFFC
FFFFFFFFFFFC
FFFFFFFFFFFC
ENDCHAR
STARTCHAR 00CA
ENCODING 202
SWIDTH 604 0
DWIDTH 58 0
BBX 46 88 7 0
BITMAP
00001FE00000
00003FF00000
00007FFC0000
0000FFFE0000
0001FFFF0000
0007FFFF8000
000FFFFFE000
001FFEFFF000
003FF87FF800
007FF03FFC00
01FFE01FFF00
03FFC007FF80
03FF8003FF80
000000000000
000000000000
000000000000
000000000000
000000000000
000000000000
FFFFFFFFFFFC
FFFFFFFFFFFC
FFFFFFFFFFFC
FFFFFFFFFFFC
FFFFFFFFFFFC
FFFFFFFFFFFC
FFFFFFFFFFFC
FFFFFFFFFFFC
FFFFFFFFFFFC
FFFFFFFFFFFC
FFFFFFFFFFFC
FFF800000000
FFF800000000
FFF800000000
FFF800000000
FFF800000000
FFF800000000
FFF800000000
FFF800000000
FFF800000000
FFF800000000
FFF800000000
FFF800000000
FFF800000000
FFF800000000
FFF800000000
FFF800000000
FFF800000000
FFFFFFFFFFC0
FFFFFFFFFFC0
FFFFFFFFFFC0
FFFFFFFFFFC0
FFFFFFFFFFC0
FFFFFFFFFFC0
FFFFFFFFFFC0
FFFFFFFFFFC0
FFFFFFFFFFC0
FFFFFFFFFFC0
FFFFFFFFFFC0
FFF800000000
FFF800000000
FFF800000000
FFF800000000
FFF800000000
FFF800000000
FFF800000000
FFF800000000
FFF800000000
FFF800000000
FFF800000000
FFF800000000
FFF800000000
FFF800000000
FFF800000000
FFF800000000
FFF800000000
FFF800000000
FFF800000000
FFFFFFFFFFFC
FFFFFFFFFFFC
FFFFFFFFFFFC
FFFFFFFFFFFC
FFFFFFFFFFFC
FFFFFFFFFFFC
FFFFFFFFFFFC
FFFFFFFFFFFC
FFFFFFFFFFFC
FFFFFFFFFFFC
FFFFFFFFFFFC
ENDCHAR
STARTCHAR 00CB
ENCODING 203
SWIDTH 604 0
DWIDTH 58 0
BBX 46 86 7 0
BITMAP
007C0000F800
01FF0003FE00
03FF8007FF00
03FF800FFF00
07FFC00FFF80
07FFC00FFF80
07FFC00FFF80
07FFC00FFF80
07FFC00FFF00
03FF8007FF00
01FF0003FE00
007C0000F800
000000000000
000000000000
000000000000
000000000000
000000000000
FFFFFFFFFFFC
FFFFFFFFFFFC
FFFFFFFFFFFC
FFFFFFFFFFFC
FFFFFFFFFFFC
FFFFFFFFFFFC
FFFFFFFFFFFC
FFFFFFFFFFFC
FFFFFFFFFFFC
FFFFFFFFFFFC
FFFFFFFFFFFC
FFF800000000
FFF800000000
FFF800000000
FFF800000000
FFF800000000
FFF800000000
FFF800000000
FFF800000000
FFF800000000
FFF800000000
FFF800000000
FFF800000000
FFF800000000
FFF800000000
FFF800000000
FFF800000000
FFF800000000
FFFFFFFFFFC0
FFFFFFFFFFC0
FFFFFFFFFFC0
FFFFFFFFFFC0
FFFFFFFFFFC0
FFFFFFFFFFC0
FFFFFFFFFFC0
FFFFFFFFFFC0
FFFFFFFFFFC0
FFFFFFFFFFC0
FFFFFFFFFFC0
FFF800000000
FFF800000000
FFF800000000
FFF800000000
FFF800000000
FFF800000000
FFF800000000
FFF800000000
FFF800000000
FFF800000000
FFF800000000
FFF800000000
FFF800000000
FFF800000000
FFF800000000
FFF800000000
FFF800000000
FFF800000000
FFF800000000
FFFFFFFFFFFC
FFFFFFFFFFFC
FFFFFFFFFFFC
FFFFFFFFFFFC
FFFFFFFFFFFC
FFFFFFFFFFFC
FFFFFFFFFFFC
FFFFFFFFFFFC
FFFFFFFFFFFC
FFFFFFFFFFFC
FFFFFFFFFFFC
ENDCHAR
STARTCHAR 00CC
ENCODING 204
SWIDTH 593 0
DWIDTH 57 0
BBX 39 86 9 0
BITMAP
3FFF000000
1FFF800000
0FFFC00000
07FFC00000
03FFE00000
01FFF00000
00FFF00000
007FF80000
003FF80000
001FFC0000
000FFE0000
0007FE0000
0003FF0000
0000000000
0000000000
0000000000
0000000000
FFFFFFFFFE
FFFFFFFFFE
FFFFFFFFFE
FFFFFFFFFE
FFFFFFFFFE
FFFFFFFFFE
FFFFFFFFFE
FFFFFFFFFE
FFFFFFFFFE
FFFFFFFFFE
FFFFFFFFFE
0007FFC000
0007FFC000
0007FFC000
0007FFC000
0007FFC000
0007FFC000
0007FFC000
0007FFC000
0007FFC000
0007FFC000
0007FFC000
0007FFC000
0007FFC000
0007FFC000
0007FFC000
0007FFC000
0007FFC000
0007FFC000
0007FFC000
0007FFC000
0007FFC000
0007FFC000
0007FFC000
0007FFC000
0007FFC000
0007FFC000
0007FFC000
0007FFC000
0007FFC000
0007FFC000
0007FFC000
0007FFC000
0007FFC000
0007FFC000
0007FFC000
0007FFC000
0007FFC000
0007FFC000
0007FFC000
0007FFC000
0007FFC000
0007FFC000
0007FFC000
0007FFC000
0007FFC000
0007FFC000
0007FFC000
FFFFFFFFFE
FFFFFFFFFE
FFFFFFFFFE
FFFFFFFFFE
FFFFFFFFFE
FFFFFFFFFE
FFFFFFFFFE
FFFFFFFFFE
FFFFFFFFFE
FFFFFFFFFE
FFFFFFFFFE
ENDCHAR
STARTCHAR 00CD
ENCODING 205
SWIDTH 593 0
DWIDTH 57 0
BBX 39 86 9 0
BITMAP
000003FFF0
000007FFE0
000007FFC0
00000FFF80
00001FFF00
00001FFE00
00003FFC00
00007FF800
00007FF000
0000FFE000
0001FFC000
0001FF8000
0003FF0000
0000000000
0000000000
0000000000
0000000000
FFFFFFFFFE
FFFFFFFFFE
FFFFFFFFFE
FFFFFFFFFE
FFFFFFFFFE
FFFFFFFFFE
FFFFFFFFFE
FFFFFFFFFE
FFFFFFFFFE
FFFFFFFFFE
FFFFFFFFFE
0007FFC000
0007FFC000
0007FFC000
0007FFC000
0007FFC000
0007FFC000
0007FFC000
0007FFC000
0007FFC000
0007FFC000
0007FFC000
0007FFC000
0007FFC000
0007FFC000
0007FFC000
0007FFC000
0007FFC000
0007FFC000
0007FFC000
0007FFC000
0007FFC000
0007FFC000
0007FFC000
0007FFC000
0007FFC000
0007FFC000
0007FFC000
0007FFC000
0007FFC000
0007FFC000
0007FFC000
0007FFC000
0007FFC000
0007FFC000
0007FFC000
0007FFC000
0007FFC000
0007FFC000
0007FFC000
0007FFC000
0007FFC000
0007FFC000
0007FFC000
0007FFC000
0007FFC000
0007FFC000
0007FFC000
FFFFFFFFFE
FFFFFFFFFE
FFFFFFFFFE
FFFFFFFFFE
FFFFFFFFFE
FFFFFFFFFE
FFFFFFFFFE
FFFFFFFFFE
FFFFFFFFFE
FFFFFFFFFE
FFFFFFFFFE
ENDCHAR
STARTCHAR 00CE
ENCODING 206
SWIDTH 593 0
DWIDTH 57 0
BBX 39 88 9 0
BITMAP
0001FE0000
0003FF8000
000FFFC000
001FFFE000
003FFFF000
007FFFFC00
00FFFFFE00
01FFCFFF00
03FF87FF80
0FFF03FFC0
1FFE01FFF0
3FFC00FFF8
3FF8003FF8
0000000000
0000000000
0000000000
0000000000
0000000000
0000000000
FFFFFFFFFE
FFFFFFFFFE
FFFFFFFFFE
FFFFFFFFFE
FFFFFFFFFE
FFFFFFFFFE
FFFFFFFFFE
FFFFFFFFFE
FFFFFFFFFE
FFFFFFFFFE
FFFFFFFFFE
0007FFC000
0007FFC000
0007FFC000
0007FFC000
0007FFC000
0007FFC000
0007FFC000
0007FFC000
0007FFC000
0007FFC000
0007FFC000
0007FFC000
0007FFC000
0007FFC000
0007FFC000
0007FFC000
0007FFC000
0007FFC000
0007FFC000
0007FFC000
0007FFC000
0007FFC000
0007FFC000
0007FFC000
0007FFC000
0007FFC000
0007FFC000
0007FFC000
0007FFC000
0007FFC000
0007FFC000
0007FFC000
0007FFC000
0007FFC000
0007FFC000
0007FFC000
0007FFC000
0007FFC000
0007FFC000
0007FFC000
0007FFC000
0007FFC000
0007FFC000
0007FFC000
0007FFC000
0007FFC000
0007FFC000
FFFFFFFFFE
FFFFFFFFFE
FFFFFFFFFE
FFFFFFFFFE
FFFFFFFFFE
FFFFFFFFFE
FFFFFFFFFE
FFFFFFFFFE
FFFFFFFFFE
FFFFFFFFFE
FFFFFFFFFE
ENDCHAR
STARTCHAR 00CF
ENCODING 207
SWIDTH 593 0
DWIDTH 57 0
BBX 39 87 9 0
BITMAP
07C0000F80
1FF0003FE0
3FF8007FF0
3FF800FFF8
7FFC00FFF8
7FFC00FFF8
7FFC00FFF8
7FFC00FFF8
7FFC007FF0
3FF8007FF0
1FF0003FE0
07C0000F80
0000000000
0000000000
0000000000
0000000000
0000000000
0000000000
FFFFFFFFFE
FFFFFFFFFE
FFFFFFFFFE
FFFFFFFFFE
FFFFFFFFFE
FFFFFFFFFE
FFFFFFFFFE
FFFFFFFFFE
FFFFFFFFFE
FFFFFFFFFE
FFFFFFFFFE
0007FFC000
0007FFC000
0007FFC000
0007FFC000
0007FFC000
0007FFC000
0007FFC000
0007FFC000
0007FFC000
0007FFC000
0007FFC000
0007FFC000
0007FFC000
0007FFC000
0007FFC000
0007FFC000
0007FFC000
0007FFC000
0007FFC000
0007FFC000
0007FFC000
0007FFC000
0007FFC000
0007FFC000
0007FFC000
0007FFC000
0007FFC000
0007FFC000
0007FFC000
0007FFC000
0007FFC000
0007FFC000
0007FFC000
0007FFC000
0007FFC000
0007FFC000
0007FFC000
0007FFC000
0007FFC000
0007FFC000
0007FFC000
0007FFC000
0007FFC000
0007FFC000
0007FFC000
0007FFC000
0007FFC000
FFFFFFFFFE
FFFFFFFFFE
FFFFFFFFFE
FFFFFFFFFE
FFFFFFFFFE
FFFFFFFFFE
FFFFFFFFFE
FFFFFFFFFE
FFFFFFFFFE
FFFFFFFFFE
FFFFFFFFFE
ENDCHAR
STARTCHAR 00D0
ENCODING 208
SWIDTH 593 0
DWIDTH 57 0
BBX 56 69 -2 0
BITMAP
007FFFF8000000
007FFFFFE00000
007FFFFFFC0000
007FFFFFFF0000
007FFFFFFFC000
007FFFFFFFF000
007FFFFFFFF800
007FFFFFFFFC00
007FFFFFFFFE00
007FFFFFFFFF00
007FFFFFFFFF80
007FFC01FFFFC0
007FFC007FFFC0
007FFC001FFFE0
007FFC0007FFF0
007FFC0003FFF0
007FFC0001FFF8
007FFC0001FFF8
007FFC0000FFFC
007FFC0000FFFC
007FFC00007FFC
007FFC00007FFE
007FFC00003FFE
007FFC00003FFE
007FFC00003FFE
007FFC00003FFE
007FFC00001FFF
007FFC00001FFF
007FFC00001FFF
007FFC00001FFF
FFFFFFFF001FFF
FFFFFFFF001FFF
FFFFFFFF001FFF
FFFFFFFF001FFF
FFFFFFFF001FFF
FFFFFFFF001FFF
FFFFFFFF001FFF
FFFFFFFF001FFF
007FFC00001FFF
007FFC00001FFF
007FFC00001FFF
007FFC00001FFF
007FFC00001FFF
007FFC00003FFF
007FFC00003FFE
007FFC00003FFE
007FFC00003FFE
007FFC00007FFE
007FFC00007FFC
007FFC00007FFC
007FFC0000FFFC
007FFC0000FFF8
007FFC0001FFF8
007FFC0003FFF8
007FFC0007FFF0
007FFC000FFFE0
007FFC001FFFE0
007FFC007FFFC0
007FFFFFFFFF80
007FFFFFFFFF80
007FFFFFFFFF00
007FFFFFFFFE00
007FFFFFFFFC00
007FFFFFFFF000
007FFFFFFFE000
007FFFFFFF8000
007FFFFFFE0000
007FFFFFF80000
007FFFFF800000
ENDCHAR
STARTCHAR 00D1
ENCODING 209
SWIDTH 604 0
DWIDTH 58 0
BBX 45 89 6 1
BITMAP
0007E0007C00
001FFC007F00
003FFF00FF00
007FFFC1FF00
00FFFFFFFE00
01FFFFFFFE00
01FFFFFFFE00
03FFFFFFFC00
03FE3FFFF800
03FC07FFF000
03F801FFE000
03F0007FC000
003000000000
000000000000
000000000000
000000000000
000000000000
000000000000
000000000000
000000000000
FFF80000FFF8
FFFC0000FFF8
FFFC0000FFF8
FFFE0000FFF8
FFFE0000FFF8
FFFE0000FFF8
FFFF0000FFF8
FFFF0000FFF8
FFFF8000FFF8
FFFF8000FFF8
FFFFC000FFF8
FFFFC000FFF8
FFFFC000FFF8
FFFFE000FFF8
FFFFE000FFF8
FFFFF000FFF8
FFFFF000FFF8
FFFFF800FFF8
FFFFF800FFF8
FFFFF800FFF8
FFFFFC00FFF8
FFFFFC00FFF8
FFFFFE00FFF8
FFFFFE00FFF8
FFFFFF00FFF8
FFFFFF00FFF8
FFFBFF00FFF8
FFFBFF80FFF8
FFF9FF80FFF8
FFF9FFC0FFF8
FFF8FFC0FFF8
FFF8FFE0FFF8
FFF8FFE0FFF8
FFF87FE0FFF8
FFF87FF0FFF8
FFF83FF0FFF8
FFF83FF8FFF8
FFF81FF8FFF8
FFF81FFCFFF8
FFF81FFCFFF8
FFF80FFCFFF8
FFF80FFEFFF8
FFF807FEFFF8
FFF807FFFFF8
FFF803FFFFF8
FFF803FFFFF8
FFF803FFFFF8
FFF801FFFFF8
FFF801FFFFF8
FFF800FFFFF8
FFF800FFFFF8
FFF8007FFFF8
FFF8007FFFF8
FFF8007FFFF8
FFF8003FFFF8
FFF8003FFFF8
FFF8001FFFF8
FFF8001FFFF8
FFF8000FFFF8
FFF8000FFFF8
FFF8000FFFF8
FFF80007FFF8
FFF80007FFF8
FFF80003FFF8
FFF80003FFF8
FFF80001FFF8
FFF80001FFF8
FFF80001FFF8
FFF80000FFF8
ENDCHAR
STARTCHAR 00D2
ENCODING 210
SWIDTH 604 0
DWIDTH 58 0
BBX 50 88 4 -1
BITMAP
00FFFC00000000
007FFE00000000
003FFF00000000
001FFF00000000
000FFF80000000
0007FFC0000000
0003FFC0000000
0001FFE0000000
0000FFF0000000
00007FF0000000
00003FF8000000
00001FFC000000
00001FFC000000
00000000000000
00000000000000
00000000000000
00000000000000
000003E0000000
00007FFF000000
0003FFFFE00000
0007FFFFF80000
001FFFFFFC0000
003FFFFFFF0000
007FFFFFFF8000
00FFFFFFFFC000
01FFFFFFFFE000
03FFFFFFFFF000
07FFFFFFFFF000
07FFF80FFFF800
0FFFE003FFFC00
0FFFC000FFFC00
1FFF80007FFE00
1FFF00007FFE00
3FFF00003FFF00
3FFE00001FFF00
3FFE00001FFF00
7FFC00001FFF80
7FFC00000FFF80
7FFC00000FFF80
7FFC00000FFF80
7FF800000FFF80
FFF8000007FFC0
FFF8000007FFC0
FFF8000007FFC0
FFF8000007FFC0
FFF8000007FFC0
FFF8000007FFC0
FFF8000007FFC0
FFF8000007FFC0
FFF8000007FFC0
FFF8000007FFC0
FFF8000007FFC0
FFF8000007FFC0
FFF8000007FFC0
FFF8000007FFC0
FFF8000007FFC0
FFF8000007FFC0
FFF8000007FFC0
FFF8000007FFC0
FFF8000007FFC0
FFF8000007FFC0
FFF8000007FFC0
FFF8000007FFC0
FFF8000007FFC0
FFF800000FFFC0
7FFC00000FFF80
7FFC00000FFF80
7FFC00000FFF80
7FFC00001FFF80
3FFE00001FFF00
3FFE00001FFF00
3FFE00003FFF00
3FFF00003FFE00
1FFF80007FFE00
1FFF8000FFFC00
0FFFC001FFFC00
0FFFF007FFF800
07FFFFFFFFF800
03FFFFFFFFF000
03FFFFFFFFE000
01FFFFFFFFC000
00FFFFFFFF8000
007FFFFFFF0000
003FFFFFFE0000
000FFFFFFC0000
0003FFFFF00000
0000FFFFC00000
00000FFC000000
ENDCHAR
STARTCHAR 00D3
ENCODING 211
SWIDTH 604 0
DWIDTH 58 0
BBX 50 88 4 -1
BITMAP
0000000FFFC000
0000001FFF8000
0000001FFF0000
0000003FFE0000
0000007FFC0000
0000007FF80000
000000FFF00000
000001FFE00000
000001FFC00000
000003FF800000
000007FF000000
00000FFE000000
00000FFC000000
00000000000000
00000000000000
00000000000000
00000000000000
000003E0000000
00007FFF000000
0003FFFFE00000
0007FFFFF80000
001FFFFFFC0000
003FFFFFFF0000
007FFFFFFF8000
00FFFFFFFFC000
01FFFFFFFFE000
03FFFFFFFFF000
07FFFFFFFFF000
07FFF80FFFF800
0FFFE003FFFC00
0FFFC000FFFC00
1FFF80007FFE00
1FFF00007FFE00
3FFF00003FFF00
3FFE00001FFF00
3FFE00001FFF00
7FFC00001FFF80
7FFC00000FFF80
7FFC00000FFF80
7FFC00000FFF80
7FF800000FFF80
FFF8000007FFC0
FFF8000007FFC0
FFF8000007FFC0
FFF8000007FFC0
FFF8000007FFC0
FFF8000007FFC0
FFF8000007FFC0
FFF8000007FFC0
FFF8000007FFC0
FFF8000007FFC0
FFF8000007FFC0
FFF8000007FFC0
FFF8000007FFC0
FFF8000007FFC0
FFF8000007FFC0
FFF8000007FFC0
FFF8000007FFC0
FFF8000007FFC0
FFF8000007FFC0
FFF8000007FFC0
FFF8000007FFC0
FFF8000007FFC0
FFF8000007FFC0
FFF800000FFFC0
7FFC00000FFF80
7FFC00000FFF80
7FFC00000FFF80
7FFC00001FFF80
3FFE00001FFF00
3FFE00001FFF00
3FFE00003FFF00
3FFF00003FFE00
1FFF80007FFE00
1FFF8000FFFC00
0FFFC001FFFC00
0FFFF007FFF800
07FFFFFFFFF800
03FFFFFFFFF000
03FFFFFFFFE000
01FFFFFFFFC000
00FFFFFFFF8000
007FFFFFFF0000
003FFFFFFE0000
000FFFFFFC0000
0003FFFFF00000
0000FFFFC00000
00000FFC000000
ENDCHAR
STARTCHAR 00D4
ENCODING 212
SWIDTH 604 0
DWIDTH 58 0
BBX 50 90 4 -1
BITMAP
000007FC000000
00001FFE000000
00003FFF000000
00007FFF800000
0000FFFFC00000
0001FFFFF00000
0003FFFFF80000
0007FF3FFC0000
001FFE1FFE0000
003FFC0FFF0000
007FF807FFC000
00FFF001FFE000
00FFC000FFE000
00000000000000
00000000000000
00000000000000
00000000000000
00000000000000
00000000000000
000003E0000000
00007FFF000000
0003FFFFE00000
0007FFFFF80000
001FFFFFFC0000
003FFFFFFF0000
007FFFFFFF8000
00FFFFFFFFC000
01FFFFFFFFE000
03FFFFFFFFF000
07FFFFFFFFF000
07FFF80FFFF800
0FFFE003FFFC00
0FFFC000FFFC00
1FFF80007FFE00
1FFF00007FFE00
3FFF00003FFF00
3FFE00001FFF00
3FFE00001FFF00
7FFC00001FFF80
7FFC00000FFF80
7FFC00000FFF80
7FFC00000FFF80
7FF800000FFF80
FFF8000007FFC0
FFF8000007FFC0
FFF8000007FFC0
FFF8000007FFC0
FFF8000007FFC0
FFF8000007FFC0
FFF8000007FFC0
FFF8000007FFC0
FFF8000007FFC0
FFF8000007FFC0
FFF8000007FFC0
FFF8000007FFC0
FFF8000007FFC0
FFF8000007FFC0
FFF8000007FFC0
FFF8000007FFC0
FFF8000007FFC0
FFF8000007FFC0
FFF8000007FFC0
FFF8000007FFC0
FFF8000007FFC0
FFF8000007FFC0
FFF8000007FFC0
FFF800000FFFC0
7FFC00000FFF80
7FFC00000FFF80
7FFC00000FFF80
7FFC00001FFF80
3FFE00001FFF00
3FFE00001FFF00
3FFE00003FFF00
3FFF00003FFE00
1FFF80007FFE00
1FFF8000FFFC00
0FFFC001FFFC00
0FFFF007FFF800
07FFFFFFFFF800
03FFFFFFFFF000
03FFFFFFFFE000
01FFFFFFFFC000
00FFFFFFFF8000
007FFFFFFF0000
003FFFFFFE0000
000FFFFFFC0000
0003FFFFF00000
0000FFFFC00000
00000FFC000000
ENDCHAR
STARTCHAR 00D5
ENCODING 213
SWIDTH 604 0
DWIDTH 58 0
BBX 50 91 4 0
BITMAP
0001F8000F0000
0007FF001FC000
000FFFC01FC000
001FFFF03FC000
003FFFFFFFC000
007FFFFFFF8000
007FFFFFFF8000
007FFFFFFF0000
00FFCFFFFF0000
00FF01FFFE0000
00FE007FFC0000
00FC001FF00000
000C0000000000
00000000000000
00000000000000
00000000000000
00000000000000
00000000000000
00000000000000
00000000000000
000003E0000000
00007FFF000000
0003FFFFE00000
0007FFFFF80000
001FFFFFFC0000
003FFFFFFF0000
007FFFFFFF8000
00FFFFFFFFC000
01FFFFFFFFE000
03FFFFFFFFF000
07FFFFFFFFF000
07FFF80FFFF800
0FFFE003FFFC00
0FFFC000FFFC00
1FFF80007FFE00
1FFF00007FFE00
3FFF00003FFF00
3FFE00001FFF00
3FFE00001FFF00
7FFC00001FFF80
7FFC00000FFF80
7FFC00000FFF80
7FFC00000FFF80
7FF800000FFF80
FFF8000007FFC0
FFF8000007FFC0
FFF8000007FFC0
FFF8000007FFC0
FFF8000007FFC0
FFF8000007FFC0
FFF8000007FFC0
FFF8000007FFC0
FFF8000007FFC0
FFF8000007FFC0
FFF8000007FFC0
FFF8000007FFC0
FFF8000007FFC0
FFF8000007FFC0
FFF8000007FFC0
FFF8000007FFC0
FFF8000007FFC0
FFF8000007FFC0
FFF8000007FFC0
FFF8000007FFC0
FFF8000007FFC0
FFF8000007FFC0
FFF8000007FFC0
FFF800000FFFC0
7FFC00000FFF80
7FFC00000FFF80
7FFC00000FFF80
7FFC00001FFF80
3FFE00001FFF00
3FFE00001FFF00
3FFE00003FFF00
3FFF00003FFE00
1FFF80007FFE00
1FFF8000FFFC00
0FFFC001FFFC00
0FFFF007FFF800
07FFFFFFFFF800
03FFFFFFFFF000
03FFFFFFFFE000
01FFFFFFFFC000
00FFFFFFFF8000
007FFFFFFF0000
003FFFFFFE0000
000FFFFFFC0000
0003FFFFF00000
0000FFFFC00000
00000FFC000000
ENDCHAR
STARTCHAR 00D6
ENCODING 214
SWIDTH 604 0
DWIDTH 58 0
BBX 50 89 4 -1
BITMAP
001F00003E0000
007FC000FF8000
00FFE001FFC000
00FFE003FFC000
01FFF003FFE000
01FFF003FFE000
01FFF003FFE000
01FFF003FFE000
00FFF001FFC000
00FFE001FFC000
007FC000FF8000
001F00003E0000
00000000000000
00000000000000
00000000000000
00000000000000
00000000000000
00000000000000
000003E0000000
00007FFF000000
0003FFFFE00000
0007FFFFF80000
001FFFFFFC0000
003FFFFFFF0000
007FFFFFFF8000
00FFFFFFFFC000
01FFFFFFFFE000
03FFFFFFFFF000
07FFFFFFFFF000
07FFF80FFFF800
0FFFE003FFFC00
0FFFC000FFFC00
1FFF80007FFE00
1FFF00007FFE00
3FFF00003FFF00
3FFE00001FFF00
3FFE00001FFF00
7FFC00001FFF80
7FFC00000FFF80
7FFC00000FFF80
7FFC00000FFF80
7FF800000FFF80
FFF8000007FFC0
FFF8000007FFC0
FFF8000007FFC0
FFF8000007FFC0
FFF8000007FFC0
FFF8000007FFC0
FFF8000007FFC0
FFF8000007FFC0
FFF8000007FFC0
FFF8000007FFC0
FFF8000007FFC0
FFF8000007FFC0
FFF8000007FFC0
FFF8000007FFC0
FFF8000007FFC0
FFF8000007FFC0
FFF8000007FFC0
FFF8000007FFC0
FFF8000007FFC0
FFF8000007FFC0
FFF8000007FFC0
FFF8000007FFC0
FFF8000007FFC0
FFF800000FFFC0
7FFC00000FFF80
7FFC00000FFF80
7FFC00000FFF80
7FFC00001FFF80
3FFE00001FFF00
3FFE00001FFF00
3FFE00003FFF00
3FFF00003FFE00
1FFF80007FFE00
1FFF8000FFFC00
0FFFC001FFFC00
0FFFF007FFF800
07FFFFFFFFF800
03FFFFFFFFF000
03FFFFFFFFE000
01FFFFFFFFC000
00FFFFFFFF8000
007FFFFFFF0000
003FFFFFFE0000
000FFFFFFC0000
0003FFFFF00000
0000FFFFC00000
00000FFC000000
ENDCHAR
STARTCHAR 00D7
ENCODING 215
SWIDTH 604 0
DWIDTH 58 0
BBX 45 45 7 10
BITMAP
008000000800
01C000001C00
03E000003E00
07E000007F00
0FF000007F80
1FF80000FFC0
3FFC0001FFE0
7FFE0003FFF0
7FFF0007FFF0
3FFF800FFFE0
1FFFC01FFFC0
0FFFE03FFF80
07FFF07FFF00
03FFF8FFFE00
01FFFDFFFC00
00FFFFFFF800
007FFFFFF000
003FFFFFE000
001FFFFFC000
000FFFFF8000
0007FFFF0000
0003FFFE0000
0001FFFC0000
0003FFFE0000
0007FFFF0000
000FFFFF8000
001FFFFFC000
003FFFFFE000
007FFFFFF000
00FFFFFFF800
01FFFFFFFC00
03FFF9FFFE00
07FFF8FFFF00
0FFFF07FFF80
1FFFE03FFFC0
3FFFC01FFFE0
7FFF800FFFF0
FFFF0007FFF8
7FFE0003FFF0
3FFC0001FFE0
1FF80000FFC0
0FF000007F80
07E000003F00
03C000001E00
018000000C00
ENDCHAR
STARTCHAR 00D8
ENCODING 216
SWIDTH 604 0
DWIDTH 58 0
BBX 51 76 3 -4
BITMAP
00000000003FC0
00000000007FC0
00000FFE007F80
00007FFFE0FF80
0001FFFFF8FF00
0007FFFFFFFE00
000FFFFFFFFE00
003FFFFFFFFC00
007FFFFFFFFC00
00FFFFFFFFF800
00FFFFFFFFF800
01FFFFFFFFF800
03FFFFFFFFFC00
07FFF803FFFE00
07FFE000FFFE00
0FFFC0007FFF00
0FFFC0007FFF00
0FFF8000FFFF00
1FFF0000FFFF80
1FFF0001FFFF80
1FFF0003FFFF80
3FFE0003FFFFC0
3FFE0007FFFFC0
3FFE0007FFFFC0
3FFE000FFFFFC0
7FFC000FF7FFE0
7FFC001FF3FFE0
7FFC003FE3FFE0
7FFC003FE3FFE0
7FFC007FC3FFE0
7FFC007FC3FFE0
7FFC00FF83FFE0
7FFC00FF03FFE0
7FFC01FF03FFE0
7FFC03FE03FFE0
7FFC03FE03FFE0
7FFC07FC03FFE0
7FFC07FC03FFE0
7FFC0FF803FFE0
7FFC0FF003FFE0
7FFC1FF003FFE0
7FFC3FE003FFE0
7FFC3FE003FFE0
7FFC7FC003FFE0
7FFC7FC003FFE0
7FFCFF8003FFE0
7FFCFF0003FFE0
7FFDFF0003FFE0
7FFDFE0003FFE0
7FFFFE0007FFC0
3FFFFC0007FFC0
3FFFFC0007FFC0
3FFFF80007FFC0
3FFFF8000FFFC0
3FFFF0000FFF80
1FFFE0000FFF80
1FFFE0001FFF80
1FFFC0003FFF00
0FFFC0003FFF00
0FFFE0007FFE00
07FFF001FFFE00
07FFFC07FFFC00
03FFFFFFFFF800
03FFFFFFFFF800
03FFFFFFFFF000
07FFFFFFFFE000
07FFFFFFFFC000
0FFFFFFFFF8000
0FFFFFFFFE0000
1FE7FFFFFC0000
3FE1FFFFF00000
3FC03FFF800000
7FC001F0000000
7F800000000000
FF800000000000
FF000000000000
ENDCHAR
STARTCHAR 00D9
ENCODING 217
SWIDTH 604 0
DWIDTH 58 0
BBX 46 87 6 -1
BITMAP
03FFF8000000
01FFF8000000
00FFFC000000
007FFE000000
003FFE000000
001FFF000000
000FFF800000
0007FF800000
0003FFC00000
0001FFE00000
0000FFE00000
00007FF00000
00003FF80000
000000000000
000000000000
000000000000
000000000000
FFF800007FFC
FFF800007FFC
FFF800007FFC
FFF800007FFC
FFF800007FFC
FFF800007FFC
FFF800007FFC
FFF800007FFC
FFF800007FFC
FFF800007FFC
FFF800007FFC
FFF800007FFC
FFF800007FFC
FFF800007FFC
FFF800007FFC
FFF800007FFC
FFF800007FFC
FFF800007FFC
FFF800007FFC
FFF800007FFC
FFF800007FFC
FFF800007FFC
FFF800007FFC
FFF800007FFC
FFF800007FFC
FFF800007FFC
FFF800007FFC
FFF800007FFC
FFF800007FFC
FFF800007FFC
FFF800007FFC
FFF800007FFC
FFF800007FFC
FFF800007FFC
FFF800007FFC
FFF800007FFC
FFF800007FFC
FFF800007FFC
FFF800007FFC
FFF800007FFC
FFF800007FFC
FFF800007FFC
FFF800007FFC
FFF800007FFC
FFF800007FFC
FFF800007FFC
FFF800007FFC
FFF800007FFC
FFF800007FFC
FFF800007FFC
FFF800007FFC
FFFC0000FFFC
7FFC0000FFF8
7FFC0000FFF8
7FFE0001FFF8
7FFE0001FFF8
3FFF0003FFF0
3FFF8007FFF0
1FFFC01FFFE0
1FFFFFFFFFE0
0FFFFFFFFFC0
0FFFFFFFFFC0
07FFFFFFFF80
03FFFFFFFF00
01FFFFFFFE00
00FFFFFFFC00
003FFFFFF000
001FFFFFE000
0003FFFF0000
00007FF80000
ENDCHAR
STARTCHAR 00DA
ENCODING 218
SWIDTH 604 0
DWIDTH 58 0
BBX 46 87 6 -1
BITMAP
0000003FFF80
0000003FFF00
0000007FFE00
000000FFFC00
000000FFF800
000001FFF000
000003FFE000
000003FFC000
000007FF8000
00000FFF0000
00001FFE0000
00001FFC0000
00003FF80000
000000000000
000000000000
000000000000
000000000000
FFF800007FFC
FFF800007FFC
FFF800007FFC
FFF800007FFC
FFF800007FFC
FFF800007FFC
FFF800007FFC
FFF800007FFC
FFF800007FFC
FFF800007FFC
FFF800007FFC
FFF800007FFC
FFF800007FFC
FFF800007FFC
FFF800007FFC
FFF800007FFC
FFF800007FFC
FFF800007FFC
FFF800007FFC
FFF800007FFC
FFF800007FFC
FFF800007FFC
FFF800007FFC
FFF800007FFC
FFF800007FFC
FFF800007FFC
FFF800007FFC
FFF800007FFC
FFF800007FFC
FFF800007FFC
FFF800007FFC
FFF800007FFC
FFF800007FFC
FFF800007FFC
FFF800007FFC
FFF800007FFC
FFF800007FFC
FFF800007FFC
FFF800007FFC
FFF800007FFC
FFF800007FFC
FFF800007FFC
FFF800007FFC
FFF800007FFC
FFF800007FFC
FFF800007FFC
FFF800007FFC
FFF800007FFC
FFF800007FFC
FFF800007FFC
FFF800007FFC
FFFC0000FFFC
7FFC0000FFF8
7FFC0000FFF8
7FFE0001FFF8
7FFE0001FFF8
3FFF0003FFF0
3FFF8007FFF0
1FFFC01FFFE0
1FFFFFFFFFE0
0FFFFFFFFFC0
0FFFFFFFFFC0
07FFFFFFFF80
03FFFFFFFF00
01FFFFFFFE00
00FFFFFFFC00
003FFFFFF000
001FFFFFE000
0003FFFF0000
00007FF80000
ENDCHAR
STARTCHAR 00DB
ENCODING 219
SWIDTH 604 0
DWIDTH 58 0
BBX 46 89 6 -1
BITMAP
00001FF00000
00003FF80000
00007FFC0000
0001FFFE0000
0003FFFF8000
0007FFFFC000
000FFFFFE000
001FFEFFF000
003FF87FF800
00FFF01FFC00
01FFE00FFF00
03FFC007FF80
03FF8003FF80
000000000000
000000000000
000000000000
000000000000
000000000000
000000000000
FFF800007FFC
FFF800007FFC
FFF800007FFC
FFF800007FFC
FFF800007FFC
FFF800007FFC
FFF800007FFC
FFF800007FFC
FFF800007FFC
FFF800007FFC
FFF800007FFC
FFF800007FFC
FFF800007FFC
FFF800007FFC
FFF800007FFC
FFF800007FFC
FFF800007FFC
FFF800007FFC
FFF800007FFC
FFF800007FFC
FFF800007FFC
FFF800007FFC
FFF800007FFC
FFF800007FFC
FFF800007FFC
FFF800007FFC
FFF800007FFC
FFF800007FFC
FFF800007FFC
FFF800007FFC
FFF800007FFC
FFF800007FFC
FFF800007FFC
FFF800007FFC
FFF800007FFC
FFF800007FFC
FFF800007FFC
FFF800007FFC
FFF800007FFC
FFF800007FFC
FFF800007FFC
FFF800007FFC
FFF800007FFC
FFF800007FFC
FFF800007FFC
FFF800007FFC
FFF800007FFC
FFF800007FFC
FFF800007FFC
FFF800007FFC
FFF800007FFC
FFFC0000FFFC
7FFC0000FFF8
7FFC0000FFF8
7FFE0001FFF8
7FFE0001FFF8
3FFF0003FFF0
3FFF8007FFF0
1FFFC01FFFE0
1FFFFFFFFFE0
0FFFFFFFFFC0
0FFFFFFFFFC0
07FFFFFFFF80
03FFFFFFFF00
01FFFFFFFE00
00FFFFFFFC00
003FFFFFF000
001FFFFFE000
0003FFFF0000
00007FF80000
ENDCHAR
STARTCHAR 00DC
ENCODING 220
SWIDTH 604 0
DWIDTH 58 0
BBX 46 88 6 -1
BITMAP
007C0000F800
01FF0003FE00
03FF8007FF00
03FF800FFF00
07FFC00FFF80
07FFC00FFF80
07FFC00FFF80
07FFC00FFF80
07FFC00FFF00
03FF8007FF00
01FF0003FE00
007C0000F800
000000000000
000000000000
000000000000
000000000000
000000000000
000000000000
FFF800007FFC
FFF800007FFC
FFF800007FFC
FFF800007FFC
FFF800007FFC
FFF800007FFC
FFF800007FFC
FFF800007FFC
FFF800007FFC
FFF800007FFC
FFF800007FFC
FFF800007FFC
FFF800007FFC
FFF800007FFC
FFF800007FFC
FFF800007FFC
FFF800007FFC
FFF800007FFC
FFF800007FFC
FFF800007FFC
FFF800007FFC
FFF800007FFC
FFF800007FFC
FFF800007FFC
FFF800007FFC
FFF800007FFC
FFF800007FFC
FFF800007FFC
FFF800007FFC
FFF800007FFC
FFF800007FFC
FFF800007FFC
FFF800007FFC
FFF800007FFC
FFF800007FFC
FFF800007FFC
FFF800007FFC
FFF800007FFC
FFF800007FFC
FFF800007FFC
FFF800007FFC
FFF800007FFC
FFF800007FFC
FFF800007FFC
FFF800007FFC
FFF800007FFC
FFF800007FFC
FFF800007FFC
FFF800007FFC
FFF800007FFC
FFF800007FFC
FFFC0000FFFC
7FFC0000FFF8
7FFC0000FFF8
7FFE0001FFF8
7FFE0001FFF8
3FFF0003FFF0
3FFF8007FFF0
1FFFC01FFFE0
1FFFFFFFFFE0
0FFFFFFFFFC0
0FFFFFFFFFC0
07FFFFFFFF80
03FFFFFFFF00
01FFFFFFFE00
00FFFFFFFC00
003FFFFFF000
001FFFFFE000
0003FFFF0000
00007FF80000
ENDCHAR
STARTCHAR 00DD
ENCODING 221
SWIDTH 604 0
DWIDTH 58 0
BBX 55 86 2 0
BITMAP
00000001FFF800
00000003FFF000
00000007FFE000
00000007FFC000
0000000FFF8000
0000001FFF0000
0000001FFE0000
0000003FFC0000
0000007FF80000
0000007FF00000
000000FFE00000
000001FFC00000
000001FF800000
00000000000000
00000000000000
00000000000000
00000000000000
FFFC0000007FFE
FFFE000000FFFE
7FFE000000FFFC
7FFF000000FFFC
3FFF000001FFF8
3FFF800001FFF8
1FFF800003FFF8
1FFF800003FFF0
0FFFC00003FFF0
0FFFC00007FFE0
07FFE00007FFE0
07FFE0000FFFC0
03FFF0000FFFC0
03FFF0001FFF80
01FFF0001FFF80
01FFF8001FFF00
00FFF8003FFF00
00FFFC003FFE00
007FFC007FFE00
007FFC007FFC00
003FFE00FFFC00
003FFE00FFF800
003FFF00FFF800
001FFF01FFF000
001FFF81FFF000
000FFF83FFE000
000FFF83FFE000
0007FFC7FFC000
0007FFC7FFC000
0003FFE7FFC000
0003FFEFFF8000
0001FFFFFF8000
0001FFFFFF0000
0000FFFFFF0000
0000FFFFFE0000
00007FFFFE0000
00007FFFFC0000
00003FFFFC0000
00003FFFF80000
00001FFFF80000
00001FFFF00000
00000FFFF00000
00000FFFE00000
00000FFFE00000
000007FFC00000
000007FFC00000
000007FFC00000
000007FFC00000
000007FFC00000
000007FFC00000
000007FFC00000
000007FFC00000
000007FFC00000
000007FFC00000
000007FFC00000
000007FFC00000
000007FFC00000
000007FFC00000
000007FFC00000
000007FFC00000
000007FFC00000
000007FFC00000
000007FFC00000
000007FFC00000
000007FFC00000
000007FFC00000
000007FFC00000
000007FFC00000
000007FFC00000
ENDCHAR
STARTCHAR 00DE
ENCODING 222
SWIDTH 604 0
DWIDTH 58 0
BBX 49 69 6 0
BITMAP
FFF80000000000
FFF80000000000
FFF80000000000
FFF80000000000
FFF80000000000
FFF80000000000
FFF80000000000
FFF80000000000
FFF80000000000
FFF80000000000
FFF80000000000
FFF80000000000
FFF80000000000
FFFFFFFC000000
FFFFFFFFC00000
FFFFFFFFF80000
FFFFFFFFFE0000
FFFFFFFFFF8000
FFFFFFFFFFC000
FFFFFFFFFFE000
FFFFFFFFFFF000
FFFFFFFFFFF800
FFFFFFFFFFFC00
FFFFFFFFFFFC00
FFF80007FFFE00
FFF80001FFFE00
FFF800007FFF00
FFF800003FFF00
FFF800003FFF00
FFF800001FFF80
FFF800001FFF80
FFF800000FFF80
FFF800000FFF80
FFF800000FFF80
FFF800000FFF80
FFF800000FFF80
FFF800000FFF80
FFF800000FFF80
FFF800001FFF80
FFF800001FFF00
FFF800003FFF00
FFF800007FFF00
FFF80000FFFE00
FFF80001FFFE00
FFF8000FFFFE00
FFFFFFFFFFFC00
FFFFFFFFFFF800
FFFFFFFFFFF000
FFFFFFFFFFF000
FFFFFFFFFFE000
FFFFFFFFFF8000
FFFFFFFFFF0000
FFFFFFFFFC0000
FFFFFFFFF00000
FFFFFFFF800000
FFFFFFC0000000
FFF80000000000
FFF80000000000
FFF80000000000
FFF80000000000
FFF80000000000
FFF80000000000
FFF80000000000
FFF80000000000
FFF80000000000
FFF80000000000
FFF80000000000
FFF80000000000
FFF80000000000
ENDCHAR
STARTCHAR 00DF
ENCODING 223
SWIDTH 604 0
DWIDTH 58 0
BBX 48 75 8 -1
BITMAP
00001E000000
0003FFF80000
001FFFFE0000
003FFFFF8000
00FFFFFFC000
01FFFFFFE000
03FFFFFFF000
07FFFFFFF800
0FFFFFFFFC00
0FFFFFFFFC00
1FFFFFFFFE00
3FFFC1FFFE00
3FFF80FFFE00
3FFF007FFF00
7FFE003FFF00
7FFC003FFF00
7FFC001FFF00
FFFC001FFF00
FFF8001FFF00
FFF8001FFF00
FFF8001FFF00
FFF8001FFF00
FFF8003FFE00
FFF8003FFE00
FFF8003FFE00
FFF8007FFC00
FFF800FFFC00
FFF800FFF800
FFF801FFF800
FFF801FFF000
FFF801FFF000
FFF803FFE000
FFF803FFE000
FFF803FFE000
FFF803FFE000
FFF803FFE000
FFF803FFE000
FFF803FFF000
FFF803FFF000
FFF801FFF800
FFF801FFFC00
FFF801FFFE00
FFF800FFFF00
FFF800FFFF80
FFF8007FFFC0
FFF8003FFFE0
FFF8001FFFF0
FFF8000FFFF0
FFF80007FFF8
FFF80003FFFC
FFF80001FFFC
FFF80000FFFE
FFF800007FFE
FFF800003FFE
FFF800003FFF
FFF800001FFF
FFF800001FFF
FFF800001FFF
FFF800001FFF
FFF800001FFF
FFF800001FFF
FFF800003FFF
FFF830007FFE
FFF83E00FFFE
FFF83FFFFFFE
FFF87FFFFFFE
FFF87FFFFFFC
FFF87FFFFFFC
FFF87FFFFFF8
FFF8FFFFFFF0
FFF8FFFFFFE0
FFF8FFFFFFC0
FFF8FFFFFF00
FFF83FFFFC00
000001FFE000
ENDCHAR
STARTCHAR 00E0
ENCODING 224
SWIDTH 593 0
DWIDTH 57 0
BBX 46 72 5 -1
BITMAP
03FFF0000000
01FFF0000000
01FFF8000000
00FFFC000000
007FFC000000
003FFE000000
001FFF000000
000FFF000000
0007FF800000
0003FFC00000
0001FFC00000
0000FFE00000
00007FE00000
000000000000
000000000000
000000000000
000000000000
000000000000
000000000000
0000FFF00000
0007FFFF0000
003FFFFFE000
007FFFFFF000
01FFFFFFFC00
03FFFFFFFE00
07FFFFFFFF00
0FFFFFFFFF80
1FFFFFFFFF80
1FFFFFFFFFC0
3FFFC03FFFE0
3FFF000FFFE0
7FFE0007FFE0
7FFE0003FFF0
7FFC0003FFF0
7FFC0001FFF0
00000001FFF0
00000001FFF0
00000001FFF0
00000001FFF0
00000001FFF0
0000FFFFFFF0
000FFFFFFFF0
007FFFFFFFF0
01FFFFFFFFF0
03FFFFFFFFF0
0FFFFFFFFFF0
1FFFFFFFFFF0
1FFFFFFFFFF0
3FFFE001FFF0
3FFF8001FFF0
7FFE0001FFF0
7FFC0001FFF0
FFFC0001FFF0
FFF80001FFF0
FFF80001FFF0
FFF80001FFF0
FFF80001FFF0
FFF80003FFF0
FFFC0007FFF0
FFFE000FFFF0
FFFF003FFFF0
7FFFFFFFFFF0
7FFFFFFFFFF0
3FFFFFFFFFF0
3FFFFFFFFFF0
1FFFFFFFFFF8
0FFFFFFEFFF8
07FFFFFCFFF8
03FFFFF8FFF8
01FFFFE0FFFC
007FFF807FFC
0007FC000000
ENDCHAR
STARTCHAR 00E1
ENCODING 225
SWIDTH 593 0
DWIDTH 57 0
BBX 46 72 5 -1
BITMAP
0000007FFF00
0000007FFE00
000000FFFC00
000001FFF800
000001FFF000
000003FFE000
000007FFC000
000007FF8000
00000FFF0000
00001FFE0000
00001FFC0000
00003FF80000
00007FF00000
000000000000
000000000000
000000000000
000000000000
000000000000
000000000000
0000FFF00000
0007FFFF0000
003FFFFFE000
007FFFFFF000
01FFFFFFFC00
03FFFFFFFE00
07FFFFFFFF00
0FFFFFFFFF80
1FFFFFFFFF80
1FFFFFFFFFC0
3FFFC03FFFE0
3FFF000FFFE0
7FFE0007FFE0
7FFE0003FFF0
7FFC0003FFF0
7FFC0001FFF0
00000001FFF0
00000001FFF0
00000001FFF0
00000001FFF0
00000001FFF0
0000FFFFFFF0
000FFFFFFFF0
007FFFFFFFF0
01FFFFFFFFF0
03FFFFFFFFF0
0FFFFFFFFFF0
1FFFFFFFFFF0
1FFFFFFFFFF0
3FFFE001FFF0
3FFF8001FFF0
7FFE0001FFF0
7FFC0001FFF0
FFFC0001FFF0
FFF80001FFF0
FFF80001FFF0
FFF80001FFF0
FFF80001FFF0
FFF80003FFF0
FFFC0007FFF0
FFFE000FFFF0
FFFF003FFFF0
7FFFFFFFFFF0
7FFFFFFFFFF0
3FFFFFFFFFF0
3FFFFFFFFFF0
1FFFFFFFFFF8
0FFFFFFEFFF8
07FFFFFCFFF8
03FFFFF8FFF8
01FFFFE0FFFC
007FFF807FFC
0007FC000000
ENDCHAR
STARTCHAR 00E2
ENCODING 226
SWIDTH 593 0
DWIDTH 57 0
BBX 46 74 5 -1
BITMAP
00003FE00000
00007FF00000
0000FFF80000
0001FFFC0000
0007FFFF0000
000FFFFF8000
001FFFFFC000
003FFDFFE000
007FF8FFF000
01FFE03FF800
03FFC01FFE00
07FF800FFF00
07FF0007FF00
000000000000
000000000000
000000000000
000000000000
000000000000
000000000000
000000000000
000000000000
0000FFF00000
0007FFFF0000
003FFFFFE000
007FFFFFF000
01FFFFFFFC00
03FFFFFFFE00
07FFFFFFFF00
0FFFFFFFFF80
1FFFFFFFFF80
1FFFFFFFFFC0
3FFFC03FFFE0
3FFF000FFFE0
7FFE0007FFE0
7FFE0003FFF0
7FFC0003FFF0
7FFC0001FFF0
00000001FFF0
00000001FFF0
00000001FFF0
00000001FFF0
00000001FFF0
0000FFFFFFF0
000FFFFFFFF0
007FFFFFFFF0
01FFFFFFFFF0
03FFFFFFFFF0
0FFFFFFFFFF0
1FFFFFFFFFF0
1FFFFFFFFFF0
3FFFE001FFF0
3FFF8001FFF0
7FFE0001FFF0
7FFC0001FFF0
FFFC0001FFF0
FFF80001FFF0
FFF80001FFF0
FFF80001FFF0
FFF80001FFF0
FFF80003FFF0
FFFC0007FFF0
FFFE000FFFF0
FFFF003FFFF0
7FFFFFFFFFF0
7FFFFFFFFFF0
3FFFFFFFFFF0
3FFFFFFFFFF0
1FFFFFFFFFF8
0FFFFFFEFFF8
07FFFFFCFFF8
03FFFFF8FFF8
01FFFFE0FFFC
007FFF807FFC
0007FC000000
ENDCHAR
STARTCHAR 00E3
ENCODING 227
SWIDTH 593 0
DWIDTH 57 0
BBX 46 75 5 -1
BITMAP
000FE0007800
001FF8007F00
007FFE00FE00
00FFFFC1FE00
00FFFFFFFE00
01FFFFFFFE00
03FFFFFFFC00
03FFFFFFFC00
03FE7FFFF800
03F807FFF000
07F801FFE000
07F0007FC000
003000000000
000000000000
000000000000
000000000000
000000000000
000000000000
000000000000
000000000000
000000000000
000000000000
0000FFF00000
0007FFFF0000
003FFFFFE000
007FFFFFF000
01FFFFFFFC00
03FFFFFFFE00
07FFFFFFFF00
0FFFFFFFFF80
1FFFFFFFFF80
1FFFFFFFFFC0
3FFFC03FFFE0
3FFF000FFFE0
7FFE0007FFE0
7FFE0003FFF0
7FFC0003FFF0
7FFC0001FFF0
00000001FFF0
00000001FFF0
00000001FFF0
00000001FFF0
00000001FFF0
0000FFFFFFF0
000FFFFFFFF0
007FFFFFFFF0
01FFFFFFFFF0
03FFFFFFFFF0
0FFFFFFFFFF0
1FFFFFFFFFF0
1FFFFFFFFFF0
3FFFE001FFF0
3FFF8001FFF0
7FFE0001FFF0
7FFC0001FFF0
FFFC0001FFF0
FFF80001FFF0
FFF80001FFF0
FFF80001FFF0
FFF80001FFF0
FFF80003FFF0
FFFC0007FFF0
FFFE000FFFF0
FFFF003FFFF0
7FFFFFFFFFF0
7FFFFFFFFFF0
3FFFFFFFFFF0
3FFFFFFFFFF0
1FFFFFFFFFF8
0FFFFFFEFFF8
07FFFFFCFFF8
03FFFFF8FFF8
01FFFFE0FFFC
007FFF807FFC
0007FC000000
ENDCHAR
STARTCHAR 00E4
ENCODING 228
SWIDTH 593 0
DWIDTH 57 0
BBX 46 73 5 -1
BITMAP
007C0001F000
01FF0007FC00
03FF800FFE00
03FF801FFE00
07FFC01FFF00
07FFC01FFF00
07FFC01FFF00
07FFC01FFF00
03FFC00FFE00
03FF800FFE00
01FF0007FC00
007C0001F000
000000000000
000000000000
000000000000
000000000000
000000000000
000000000000
000000000000
000000000000
0000FFF00000
0007FFFF0000
003FFFFFE000
007FFFFFF000
01FFFFFFFC00
03FFFFFFFE00
07FFFFFFFF00
0FFFFFFFFF80
1FFFFFFFFF80
1FFFFFFFFFC0
3FFFC03FFFE0
3FFF000FFFE0
7FFE0007FFE0
7FFE0003FFF0
7FFC0003FFF0
7FFC0001FFF0
00000001FFF0
00000001FFF0
00000001FFF0
00000001FFF0
00000001FFF0
0000FFFFFFF0
000FFFFFFFF0
007FFFFFFFF0
01FFFFFFFFF0
03FFFFFFFFF0
0FFFFFFFFFF0
1FFFFFFFFFF0
1FFFFFFFFFF0
3FFFE001FFF0
3FFF8001FFF0
7FFE0001FFF0
7FFC0001FFF0
FFFC0001FFF0
FFF80001FFF0
FFF80001FFF0
FFF80001FFF0
FFF80001FFF0
FFF80003FFF0
FFFC0007FFF0
FFFE000FFFF0
FFFF003FFFF0
7FFFFFFFFFF0
7FFFFFFFFFF0
3FFFFFFFFFF0
3FFFFFFFFFF0
1FFFFFFFFFF8
0FFFFFFEFFF8
07FFFFFCFFF8
03FFFFF8FFF8
01FFFFE0FFFC
007FFF807FFC
0007FC000000
ENDCHAR
STARTCHAR 00E5
ENCODING 229
SWIDTH 593 0
DWIDTH 57 0
BBX 46 77 5 -1
BITMAP
00001FC00000
00007FF00000
0000FFF80000
0001FFFC0000
0003FFFE0000
0003F07E0000
0007E03F0000
0007C01F0000
0007C01F0000
0007C01F0000
0007C01F0000
0007C01F0000
0003E03E0000
0003F07E0000
0001FFFC0000
0000FFF80000
00007FF00000
00001FC00000
000000000000
000000000000
000000000000
000000000000
000000000000
000000000000
0000FFF00000
0007FFFF0000
003FFFFFE000
007FFFFFF000
01FFFFFFFC00
03FFFFFFFE00
07FFFFFFFF00
0FFFFFFFFF80
1FFFFFFFFF80
1FFFFFFFFFC0
3FFFC03FFFE0
3FFF000FFFE0
7FFE0007FFE0
7FFE0003FFF0
7FFC0003FFF0
7FFC0001FFF0
00000001FFF0
00000001FFF0
00000001FFF0
00000001FFF0
00000001FFF0
0000FFFFFFF0
000FFFFFFFF0
007FFFFFFFF0
01FFFFFFFFF0
03FFFFFFFFF0
0FFFFFFFFFF0
1FFFFFFFFFF0
1FFFFFFFFFF0
3FFFE001FFF0
3FFF8001FFF0
7FFE0001FFF0
7FFC0001FFF0
FFFC0001FFF0
FFF80001FFF0
FFF80001FFF0
FFF80001FFF0
FFF80001FFF0
FFF80003FFF0
FFFC0007FFF0
FFFE000FFFF0
FFFF003FFFF0
7FFFFFFFFFF0
7FFFFFFFFFF0
3FFFFFFFFFF0
3FFFFFFFFFF0
1FFFFFFFFFF8
0FFFFFFFFFF8
07FFFFFCFFF8
03FFFFF8FFF8
01FFFFE0FFFC
003FFF80FFFC
0007FC000000
ENDCHAR
STARTCHAR 00E6
ENCODING 230
SWIDTH 604 0
DWIDTH 58 0
BBX 54 53 2 -1
BITMAP
000FF8003FC000
007FFF01FFF800
01FFFFC7FFFE00
03FFFFFFFFFF00
07FFFFFFFFFF80
0FFFFFFFFFFFC0
1FFFFFFFFFFFE0
1FFFFFFFFFFFE0
3FFFFFFFFFFFF0
3FFFFFFFFFFFF0
7FFFFFFFFFFFF8
7FFC0FFFC0FFF8
7FF80FFF807FF8
7FF807FF803FF8
7FF807FF003FFC
000007FF003FFC
000007FF003FFC
000007FF003FFC
000007FF003FFC
000007FF003FFC
000007FF003FFC
0003FFFF003FFC
003FFFFFFFFFFC
00FFFFFFFFFFFC
03FFFFFFFFFFFC
07FFFFFFFFFFFC
0FFFFFFFFFFFFC
1FFFFFFFFFFFFC
3FFFFFFFFFFFFC
3FFFFFFFFFFFFC
7FFFC7FFFFFFFC
7FFF07FF000000
7FFE07FF000000
FFFC07FF000000
FFFC07FF000000
FFF807FF000000
FFF807FF000000
FFF807FF000000
FFF807FF800000
FFF807FF800000
FFF807FFC00040
FFFC07FFF001C0
FFFE0FFFFFFFE0
7FFFFFFFFFFFE0
7FFFFFFFFFFFE0
3FFFFFFFFFFFF0
3FFFFFFFFFFFF0
1FFFFFBFFFFFF0
1FFFFFBFFFFFF8
0FFFFF0FFFFFF0
03FFFC07FFFFE0
01FFF801FFFF00
003FC0003FF000
ENDCHAR
STARTCHAR 00E7
ENCODING 231
SWIDTH 593 0
DWIDTH 57 0
BBX 45 74 5 -21
BITMAP
000007C00000
0000FFFE0000
0007FFFFC000
001FFFFFF000
003FFFFFF800
00FFFFFFFE00
01FFFFFFFF00
03FFFFFFFF80
07FFFFFFFF80
07FFFFFFFFC0
0FFFFFFFFFE0
1FFFF01FFFE0
1FFFC007FFF0
3FFF8003FFF0
3FFF0001FFF0
3FFE0000FFF0
7FFE0000FFF8
7FFC00007FF8
7FFC00007FF8
7FFC00007FF8
FFFC00000000
FFF800000000
FFF800000000
FFF800000000
FFF800000000
FFF800000000
FFF800000000
FFF800000000
FFF800000000
FFF800000000
FFF800000000
FFF800000000
FFF800000000
FFFC00000000
7FFC00000000
7FFC00007FF8
7FFC00007FF8
7FFE00007FF8
3FFE0000FFF8
3FFF0001FFF0
1FFF8003FFF0
1FFFC007FFF0
0FFFF83FFFE0
0FFFFFFFFFE0
07FFFFFFFFC0
03FFFFFFFF80
01FFFFFFFF00
00FFFFFFFE00
007FFFFFFC00
003FFFFFF800
000FFFFFE000
0003FFFF8000
00007FFC0000
00003FF00000
00003FF00000
00003FFE0000
00003FFF8000
00003FFF8000
00003FFFC000
000001FFC000
000000FFE000
000000FFE000
000000FFE000
000000FFE000
000001FFE000
000003FFE000
00001FFFC000
00001FFFC000
00001FFF8000
00001FFF0000
00001FFE0000
00001FFC0000
00001FF00000
00001F000000
ENDCHAR
STARTCHAR 00E8
ENCODING 232
SWIDTH 604 0
DWIDTH 58 0
BBX 48 72 5 -1
BITMAP
03FFF0000000
01FFF8000000
00FFFC000000
007FFC000000
003FFE000000
001FFF000000
000FFF000000
0007FF800000
0003FF800000
0001FFC00000
0000FFE00000
00007FE00000
00003FF00000
000000000000
000000000000
000000000000
000000000000
000000000000
000000000000
00001FFC0000
0000FFFFC000
0003FFFFF000
000FFFFFFC00
003FFFFFFE00
007FFFFFFF00
00FFFFFFFF80
01FFFFFFFFC0
03FFFFFFFFE0
07FFFFFFFFF0
0FFFFFFFFFF0
0FFFF007FFF8
1FFFE001FFFC
1FFF8000FFFC
3FFF80007FFC
3FFF00003FFE
3FFE00003FFE
7FFE00003FFE
7FFC00001FFE
7FFC00001FFF
FFFC00001FFF
FFFC00001FFF
FFFFFFFFFFFF
FFFFFFFFFFFF
FFFFFFFFFFFF
FFFFFFFFFFFF
FFFFFFFFFFFF
FFFFFFFFFFFF
FFFFFFFFFFFF
FFFFFFFFFFFF
FFFFFFFFFFFF
FFF800000000
FFFC00000000
FFFC00000000
7FFC00000000
7FFE00000000
7FFE00000000
3FFF00000080
3FFF800001C0
1FFFC00007E0
1FFFF0000FF0
0FFFFC007FF8
0FFFFFFFFFFC
07FFFFFFFFFE
03FFFFFFFFFC
01FFFFFFFFF8
00FFFFFFFFF0
007FFFFFFFE0
003FFFFFFFC0
000FFFFFFF00
0003FFFFFC00
0000FFFFF000
00000FFF0000
ENDCHAR
STARTCHAR 00E9
ENCODING 233
SWIDTH 604 0
DWIDTH 58 0
BBX 48 72 5 -1
BITMAP
0000003FFF00
0000007FFE00
0000007FFC00
000000FFF800
000001FFF000
000001FFE000
000003FFC000
000007FF8000
000007FF0000
00000FFE0000
00001FFC0000
00001FF80000
00003FF00000
000000000000
000000000000
000000000000
000000000000
000000000000
000000000000
00001FFC0000
0000FFFFC000
0003FFFFF000
000FFFFFFC00
003FFFFFFE00
007FFFFFFF00
00FFFFFFFF80
01FFFFFFFFC0
03FFFFFFFFE0
07FFFFFFFFF0
0FFFFFFFFFF0
0FFFF007FFF8
1FFFE001FFFC
1FFF8000FFFC
3FFF80007FFC
3FFF00003FFE
3FFE00003FFE
7FFE00003FFE
7FFC00001FFE
7FFC00001FFF
FFFC00001FFF
FFFC00001FFF
FFFFFFFFFFFF
FFFFFFFFFFFF
FFFFFFFFFFFF
FFFFFFFFFFFF
FFFFFFFFFFFF
FFFFFFFFFFFF
FFFFFFFFFFFF
FFFFFFFFFFFF
FFFFFFFFFFFF
FFF800000000
FFFC00000000
FFFC00000000
7FFC00000000
7FFE00000000
7FFE00000000
3FFF00000080
3FFF800001C0
1FFFC00007E0
1FFFF0000FF0
0FFFFC007FF8
0FFFFFFFFFFC
07FFFFFFFFFE
03FFFFFFFFFC
01FFFFFFFFF8
00FFFFFFFFF0
007FFFFFFFE0
003FFFFFFFC0
000FFFFFFF00
0003FFFFFC00
0000FFFFF000
00000FFF0000
ENDCHAR
STARTCHAR 00EA
ENCODING 234
SWIDTH 604 0
DWIDTH 58 0
BBX 48 74 5 -1
BITMAP
00001FF00000
00003FF80000
00007FFC0000
0001FFFE0000
0003FFFF0000
0007FFFFC000
000FFFFFE000
001FFEFFF000
003FF87FF800
00FFF03FFC00
01FFE01FFF00
03FFC007FF80
03FF8003FF80
000000000000
000000000000
000000000000
000000000000
000000000000
000000000000
000000000000
000000000000
00000FFC0000
0000FFFFC000
0003FFFFF000
000FFFFFFC00
001FFFFFFE00
007FFFFFFF80
00FFFFFFFFC0
01FFFFFFFFC0
03FFFFFFFFE0
03FFFFFFFFF0
07FFFFFFFFF8
0FFFF007FFF8
0FFFE001FFF8
1FFFC000FFFC
1FFF80007FFC
3FFF00003FFE
3FFF00003FFE
3FFE00003FFE
7FFE00001FFE
7FFC00001FFF
7FFC00001FFF
7FFC00001FFF
7FFFFFFFFFFF
7FFFFFFFFFFF
7FFFFFFFFFFF
FFFFFFFFFFFF
FFFFFFFFFFFF
FFFFFFFFFFFF
FFFFFFFFFFFF
7FFFFFFFFFFF
7FFFFFFFFFFF
7FFC00000000
7FFC00000000
7FFC00000000
7FFE00000000
7FFE00000000
3FFF00000000
3FFF00000080
1FFF800001C0
1FFFC00007E0
0FFFF0000FF0
0FFFFC007FF8
07FFFFFFFFFC
03FFFFFFFFFE
03FFFFFFFFFC
01FFFFFFFFFC
00FFFFFFFFF0
003FFFFFFFE0
001FFFFFFFC0
0007FFFFFF00
0003FFFFFC00
00007FFFF000
000007FF0000
ENDCHAR
STARTCHAR 00EB
ENCODING 235
SWIDTH 604 0
DWIDTH 58 0
BBX 48 73 5 -1
BITMAP
007C0001F000
01FF0007FC00
03FF800FFE00
03FF801FFE00
07FFC01FFF00
07FFC01FFF00
07FFC01FFF00
07FFC01FFF00
03FFC00FFE00
03FF800FFE00
01FF0007FC00
007C0001F000
000000000000
000000000000
000000000000
000000000000
000000000000
000000000000
000000000000
000000000000
00001FFC0000
0000FFFFC000
0003FFFFF000
000FFFFFFC00
003FFFFFFE00
007FFFFFFF00
00FFFFFFFF80
01FFFFFFFFC0
03FFFFFFFFE0
07FFFFFFFFF0
0FFFFFFFFFF0
0FFFF007FFF8
1FFFE001FFF8
1FFFC000FFFC
3FFF80007FFC
3FFF00003FFE
3FFE00003FFE
7FFE00003FFE
7FFE00001FFE
7FFC00001FFF
FFFC00001FFF
FFFC00001FFF
FFFFFFFFFFFF
FFFFFFFFFFFF
FFFFFFFFFFFF
FFFFFFFFFFFF
FFFFFFFFFFFF
FFFFFFFFFFFF
FFFFFFFFFFFF
FFFFFFFFFFFF
FFFFFFFFFFFF
FFF800000000
FFFC00000000
FFFC00000000
7FFC00000000
7FFE00000000
7FFE00000000
3FFF00000180
3FFF800003C0
1FFFC00007E0
1FFFF0001FF0
0FFFFC007FF8
0FFFFFFFFFFC
07FFFFFFFFFE
03FFFFFFFFFC
01FFFFFFFFF8
00FFFFFFFFF0
007FFFFFFFE0
003FFFFFFFC0
000FFFFFFF00
0003FFFFFC00
0000FFFFF000
00000FFF0000
ENDCHAR
STARTCHAR 00EC
ENCODING 236
SWIDTH 593 0
DWIDTH 57 0
BBX 43 70 9 0
BITMAP
07FFE0000000
03FFF0000000
01FFF0000000
00FFF8000000
007FFC000000
003FFC000000
001FFE000000
000FFE000000
0007FF000000
0007FF800000
0003FF800000
0001FFC00000
0000FFE00000
000000000000
000000000000
000000000000
000000000000
000000000000
000000000000
FFFFFFF00000
FFFFFFF00000
FFFFFFF00000
FFFFFFF00000
FFFFFFF00000
FFFFFFF00000
FFFFFFF00000
FFFFFFF00000
FFFFFFF00000
FFFFFFF00000
FFFFFFF00000
0001FFF00000
0001FFF00000
0001FFF00000
0001FFF00000
0001FFF00000
0001FFF00000
0001FFF00000
0001FFF00000
0001FFF00000
0001FFF00000
0001FFF00000
0001FFF00000
0001FFF00000
0001FFF00000
0001FFF00000
0001FFF00000
0001FFF00000
0001FFF00000
0001FFF00000
0001FFF00000
0001FFF00000
0001FFF00000
0001FFF00000
0001FFF00000
0001FFF00000
0001FFF00000
0001FFF00000
0001FFF00000
0001FFF00000
FFFFFFFFFFE0
FFFFFFFFFFE0
FFFFFFFFFFE0
FFFFFFFFFFE0
FFFFFFFFFFE0
FFFFFFFFFFE0
FFFFFFFFFFE0
FFFFFFFFFFE0
FFFFFFFFFFE0
FFFFFFFFFFE0
FFFFFFFFFFE0
ENDCHAR
STARTCHAR 00ED
ENCODING 237
SWIDTH 593 0
DWIDTH 57 0
BBX 43 70 9 0
BITMAP
0000007FFE00
000000FFFC00
000001FFF800
000001FFF000
000003FFE000
000007FFC000
000007FF8000
00000FFF0000
00001FFE0000
00001FFC0000
00003FF80000
00007FF00000
00007FE00000
000000000000
000000000000
000000000000
000000000000
000000000000
000000000000
FFFFFFF00000
FFFFFFF00000
FFFFFFF00000
FFFFFFF00000
FFFFFFF00000
FFFFFFF00000
FFFFFFF00000
FFFFFFF00000
FFFFFFF00000
FFFFFFF00000
FFFFFFF00000
0001FFF00000
0001FFF00000
0001FFF00000
0001FFF00000
0001FFF00000
0001FFF00000
0001FFF00000
0001FFF00000
0001FFF00000
0001FFF00000
0001FFF00000
0001FFF00000
0001FFF00000
0001FFF00000
0001FFF00000
0001FFF00000
0001FFF00000
0001FFF00000
0001FFF00000
0001FFF00000
0001FFF00000
0001FFF00000
0001FFF00000
0001FFF00000
0001FFF00000
0001FFF00000
0001FFF00000
0001FFF00000
0001FFF00000
FFFFFFFFFFE0
FFFFFFFFFFE0
FFFFFFFFFFE0
FFFFFFFFFFE0
FFFFFFFFFFE0
FFFFFFFFFFE0
FFFFFFFFFFE0
FFFFFFFFFFE0
FFFFFFFFFFE0
FFFFFFFFFFE0
FFFFFFFFFFE0
ENDCHAR
STARTCHAR 00EE
ENCODING 238
SWIDTH 593 0
DWIDTH 57 0
BBX 43 72 9 0
BITMAP
00007FC00000
0000FFE00000
0001FFF80000
0003FFFC0000
0007FFFE0000
000FFFFF0000
001FFFFFC000
007FF9FFE000
00FFF0FFF000
01FFC07FFC00
03FF803FFE00
07FF001FFF00
07FE0007FF00
000000000000
000000000000
000000000000
000000000000
000000000000
000000000000
000000000000
FFFFFFF00000
FFFFFFF00000
FFFFFFF00000
FFFFFFF00000
FFFFFFF00000
FFFFFFF00000
FFFFFFF00000
FFFFFFF00000
FFFFFFF00000
FFFFFFF00000
FFFFFFF00000
0001FFF00000
0001FFF00000
0001FFF00000
0001FFF00000
0001FFF00000
0001FFF00000
0001FFF00000
0001FFF00000
0001FFF00000
0001FFF00000
0001FFF00000
0001FFF00000
0001FFF00000
0001FFF00000
0001FFF00000
0001FFF00000
0001FFF00000
0001FFF00000
0001FFF00000
0001FFF00000
0001FFF00000
0001FFF00000
0001FFF00000
0001FFF00000
0001FFF00000
0001FFF00000
0001FFF00000
0001FFF00000
0001FFF00000
0001FFF00000
FFFFFFFFFFE0
FFFFFFFFFFE0
FFFFFFFFFFE0
FFFFFFFFFFE0
FFFFFFFFFFE0
FFFFFFFFFFE0
FFFFFFFFFFE0
FFFFFFFFFFE0
FFFFFFFFFFE0
FFFFFFFFFFE0
FFFFFFFFFFE0
ENDCHAR
STARTCHAR 00EF
ENCODING 239
SWIDTH 593 0
DWIDTH 57 0
BBX 43 70 9 0
BITMAP
00F80003E000
03FE000FF800
07FF001FFC00
0FFF003FFC00
0FFF803FFE00
0FFF803FFE00
0FFF803FFE00
0FFF803FFE00
0FFF003FFC00
07FF001FFC00
03FE000FF800
00F80003E000
000000000000
000000000000
000000000000
000000000000
000000000000
000000000000
000000000000
FFFFFFF00000
FFFFFFF00000
FFFFFFF00000
FFFFFFF00000
FFFFFFF00000
FFFFFFF00000
FFFFFFF00000
FFFFFFF00000
FFFFFFF00000
FFFFFFF00000
FFFFFFF00000
0001FFF00000
0001FFF00000
0001FFF00000
0001FFF00000
0001FFF00000
0001FFF00000
0001FFF00000
0001FFF00000
0001FFF00000
0001FFF00000
0001FFF00000
0001FFF00000
0001FFF00000
0001FFF00000
0001FFF00000
0001FFF00000
0001FFF00000
0001FFF00000
0001FFF00000
0001FFF00000
0001FFF00000
0001FFF00000
0001FFF00000
0001FFF00000
0001FFF00000
0001FFF00000
0001FFF00000
0001FFF00000
0001FFF00000
FFFFFFFFFFE0
FFFFFFFFFFE0
FFFFFFFFFFE0
FFFFFFFFFFE0
FFFFFFFFFFE0
FFFFFFFFFFE0
FFFFFFFFFFE0
FFFFFFFFFFE0
FFFFFFFFFFE0
FFFFFFFFFFE0
FFFFFFFFFFE0
ENDCHAR
STARTCHAR 00F0
ENCODING 240
SWIDTH 604 0
DWIDTH 58 0
BBX 50 73 2 -1
BITMAP
00000200000000
000007C0000000
000007F0000C00
00000FFC001C00
00000FFF007E00
00000FFFC1FF00
00001FFFE7FF00
00001FFFFFFF80
00003FFFFFFE00
00003FFFFFF800
00003FFFFFE000
00000FFFFF8000
000003FFFF8000
000000FFFFC000
000001FFFFC000
000007FFFFE000
00001FFFFFF000
00007FFFFFF000
0001FFFBFFF800
0003FFE3FFF800
0001FF81FFFC00
0000FE00FFFC00
00007800FFFE00
000070007FFE00
000000003FFE00
000000003FFF00
00003FF03FFF00
0003FFFE1FFF00
000FFFFF9FFF80
003FFFFFDFFF80
00FFFFFFFFFF80
01FFFFFFFFFF80
03FFFFFFFFFF80
07FFFFFFFFFF80
07FFFFFFFFFFC0
0FFFFFFFFFFFC0
1FFFFFFFFFFFC0
1FFFF001FFFFC0
3FFFC0003FFFC0
3FFF80001FFFC0
7FFF00000FFFC0
7FFE000007FFC0
7FFE000007FFC0
7FFC000007FFC0
FFFC000007FFC0
FFFC000007FFC0
FFF8000007FFC0
FFF8000007FFC0
FFF8000007FFC0
FFF8000007FFC0
FFF8000007FFC0
FFF800000FFF80
FFF800000FFF80
FFF800000FFF80
FFFC00001FFF80
7FFC00001FFF00
7FFE00001FFF00
7FFE00003FFF00
3FFF00007FFE00
3FFF8000FFFE00
1FFFC001FFFC00
1FFFF007FFFC00
0FFFFFFFFFF800
0FFFFFFFFFF000
07FFFFFFFFE000
03FFFFFFFFC000
01FFFFFFFF8000
00FFFFFFFF0000
007FFFFFFE0000
001FFFFFF80000
0007FFFFF00000
0001FFFF800000
00001FFC000000
ENDCHAR
STARTCHAR 00F1
ENCODING 241
SWIDTH 604 0
DWIDTH 58 0
BBX 45 74 7 0
BITMAP
000FC000F800
003FF000FE00
007FFC01FE00
00FFFF83FC00
01FFFFFFFC00
03FFFFFFFC00
03FFFFFFF800
07FFFFFFF800
07FC7FFFF000
07F80FFFE000
07F003FFC000
07E000FF8000
006000000000
000000000000
000000000000
000000000000
000000000000
000000000000
000000000000
000000000000
000000000000
000000000000
000001FF0000
FFF00FFFF000
FFF03FFFF800
FFF07FFFFE00
FFF0FFFFFF00
FFF1FFFFFF80
FFF3FFFFFFC0
FFFFFFFFFFC0
FFFFFFFFFFE0
FFFFFFFFFFE0
FFFFFFFFFFF0
FFFFC01FFFF0
FFFF0007FFF0
FFFE0003FFF0
FFFC0001FFF8
FFF80001FFF8
FFF80000FFF8
FFF80000FFF8
FFF80000FFF8
FFF80000FFF8
FFF80000FFF8
FFF80000FFF8
FFF80000FFF8
FFF80000FFF8
FFF80000FFF8
FFF80000FFF8
FFF80000FFF8
FFF80000FFF8
FFF80000FFF8
FFF80000FFF8
FFF80000FFF8
FFF80000FFF8
FFF80000FFF8
FFF80000FFF8
FFF80000FFF8
FFF80000FFF8
FFF80000FFF8
FFF80000FFF8
FFF80000FFF8
FFF80000FFF8
FFF80000FFF8
FFF80000FFF8
FFF80000FFF8
FFF80000FFF8
FFF80000FFF8
FFF80000FFF8
FFF80000FFF8
FFF80000FFF8
FFF80000FFF8
FFF80000FFF8
FFF80000FFF8
FFF80000FFF8
ENDCHAR
STARTCHAR 00F2
ENCODING 242
SWIDTH 604 0
DWIDTH 58 0
BBX 48 72 5 -1
BITMAP
01FFFC000000
00FFFC000000
007FFE000000
003FFF000000
001FFF000000
000FFF800000
0007FFC00000
0003FFC00000
0001FFE00000
0000FFE00000
00007FF00000
00003FF80000
00001FF80000
000000000000
000000000000
000000000000
000000000000
000000000000
000000000000
00003FF80000
0001FFFF8000
0007FFFFE000
001FFFFFF800
007FFFFFFC00
00FFFFFFFF00
01FFFFFFFF80
03FFFFFFFFC0
07FFFFFFFFE0
07FFFFFFFFE0
0FFFFFFFFFF0
1FFFF007FFF8
1FFFC003FFF8
3FFF8001FFFC
3FFF0000FFFC
3FFE00007FFC
7FFE00007FFE
7FFC00003FFE
7FFC00003FFE
7FFC00003FFE
FFFC00003FFF
FFF800001FFF
FFF800001FFF
FFF800001FFF
FFF800001FFF
FFF800001FFF
FFF800001FFF
FFF800001FFF
FFF800001FFF
FFF800001FFF
FFF800001FFF
FFF800001FFF
FFFC00003FFF
7FFC00003FFE
7FFC00003FFE
7FFC00003FFE
7FFE00007FFE
3FFE00007FFC
3FFF0000FFFC
3FFF8001FFFC
1FFFC003FFF8
1FFFF007FFF8
0FFFFFFFFFF0
07FFFFFFFFE0
07FFFFFFFFE0
03FFFFFFFFC0
01FFFFFFFF80
00FFFFFFFF00
007FFFFFFE00
001FFFFFF800
0007FFFFE000
0001FFFF8000
00003FFC0000
ENDCHAR
STARTCHAR 00F3
ENCODING 243
SWIDTH 604 0
DWIDTH 58 0
BBX 48 72 5 -1
BITMAP
0000001FFFC0
0000001FFF80
0000003FFF00
0000007FFE00
0000007FFC00
000000FFF800
000001FFF000
000001FFE000
000003FFC000
000007FF8000
00000FFF0000
00000FFE0000
00001FFC0000
000000000000
000000000000
000000000000
000000000000
000000000000
000000000000
00003FF80000
0001FFFF8000
0007FFFFE000
001FFFFFF800
007FFFFFFC00
00FFFFFFFF00
01FFFFFFFF80
03FFFFFFFFC0
07FFFFFFFFE0
07FFFFFFFFE0
0FFFFFFFFFF0
1FFFF007FFF8
1FFFC003FFF8
3FFF8001FFFC
3FFF0000FFFC
3FFE00007FFC
7FFE00007FFE
7FFC00003FFE
7FFC00003FFE
7FFC00003FFE
FFFC00003FFF
FFF800001FFF
FFF800001FFF
FFF800001FFF
FFF800001FFF
FFF800001FFF
FFF800001FFF
FFF800001FFF
FFF800001FFF
FFF800001FFF
FFF800001FFF
FFF800001FFF
FFFC00003FFF
7FFC00003FFE
7FFC00003FFE
7FFC00003FFE
7FFE00007FFE
3FFE00007FFC
3FFF0000FFFC
3FFF8001FFFC
1FFFC003FFF8
1FFFF007FFF8
0FFFFFFFFFF0
07FFFFFFFFE0
07FFFFFFFFE0
03FFFFFFFFC0
01FFFFFFFF80
00FFFFFFFF00
007FFFFFFE00
001FFFFFF800
0007FFFFE000
0001FFFF8000
00003FFC0000
ENDCHAR
STARTCHAR 00F4
ENCODING 244
SWIDTH 604 0
DWIDTH 58 0
BBX 48 74 5 -1
BITMAP
00000FF80000
00001FFC0000
00003FFE0000
0000FFFF0000
0001FFFFC000
0003FFFFE000
0007FFFFF000
000FFF7FF800
001FFC3FFC00
007FF81FFE00
00FFF007FF80
01FFE003FFC0
01FFC001FFC0
000000000000
000000000000
000000000000
000000000000
000000000000
000000000000
000000000000
000000000000
00003FF80000
0001FFFF8000
0007FFFFE000
001FFFFFF800
007FFFFFFC00
00FFFFFFFF00
01FFFFFFFF80
03FFFFFFFFC0
07FFFFFFFFE0
07FFFFFFFFE0
0FFFFFFFFFF0
1FFFF007FFF8
1FFFC003FFF8
3FFF8001FFFC
3FFF0000FFFC
3FFE00007FFC
7FFE00007FFE
7FFC00003FFE
7FFC00003FFE
7FFC00003FFE
FFFC00003FFF
FFF800001FFF
FFF800001FFF
FFF800001FFF
FFF800001FFF
FFF800001FFF
FFF800001FFF
FFF800001FFF
FFF800001FFF
FFF800001FFF
FFF800001FFF
FFF800001FFF
FFFC00003FFF
7FFC00003FFE
7FFC00003FFE
7FFC00003FFE
7FFE00007FFE
3FFE00007FFC
3FFF0000FFFC
3FFF8001FFFC
1FFFC003FFF8
1FFFF007FFF8
0FFFFFFFFFF0
07FFFFFFFFE0
07FFFFFFFFE0
03FFFFFFFFC0
01FFFFFFFF80
00FFFFFFFF00
007FFFFFFE00
001FFFFFF800
0007FFFFE000
0001FFFF8000
00003FFC0000
ENDCHAR
STARTCHAR 00F5
ENCODING 245
SWIDTH 604 0
DWIDTH 58 0
BBX 48 75 5 -1
BITMAP
0003F8001E00
000FFE001F80
001FFF803F80
003FFFE07F80
007FFFFFFF80
007FFFFFFF80
00FFFFFFFF00
00FFFFFFFF00
00FF9FFFFE00
01FE03FFFC00
01FC00FFF800
01FC003FE000
001C00000000
000000000000
000000000000
000000000000
000000000000
000000000000
000000000000
000000000000
000000000000
000000000000
00003FF80000
0001FFFF8000
0007FFFFE000
001FFFFFF800
007FFFFFFC00
00FFFFFFFF00
01FFFFFFFF80
03FFFFFFFFC0
07FFFFFFFFE0
07FFFFFFFFE0
0FFFFFFFFFF0
1FFFF007FFF8
1FFFC003FFF8
3FFF8001FFFC
3FFF0000FFFC
3FFE00007FFC
7FFE00007FFE
7FFC00003FFE
7FFC00003FFE
7FFC00003FFE
FFFC00003FFF
FFF800001FFF
FFF800001FFF
FFF800001FFF
FFF800001FFF
FFF800001FFF
FFF800001FFF
FFF800001FFF
FFF800001FFF
FFF800001FFF
FFF800001FFF
FFF800001FFF
FFFC00003FFF
7FFC00003FFE
7FFC00003FFE
7FFC00003FFE
7FFE00007FFE
3FFE00007FFC
3FFF0000FFFC
3FFF8001FFFC
1FFFC003FFF8
1FFFF007FFF8
0FFFFFFFFFF0
07FFFFFFFFE0
07FFFFFFFFE0
03FFFFFFFFC0
01FFFFFFFF80
00FFFFFFFF00
007FFFFFFE00
001FFFFFF800
0007FFFFE000
0001FFFF8000
00003FFC0000
ENDCHAR
STARTCHAR 00F6
ENCODING 246
SWIDTH 604 0
DWIDTH 58 0
BBX 48 73 5 -1
BITMAP
003E00007C00
00FF8001FF00
01FFC003FF80
01FFC007FF80
03FFE007FFC0
03FFE007FFC0
03FFE007FFC0
03FFE007FFC0
01FFE003FF80
01FFC003FF80
00FF8001FF00
003E00007C00
000000000000
000000000000
000000000000
000000000000
000000000000
000000000000
000000000000
000000000000
00003FF80000
0001FFFF8000
0007FFFFE000
001FFFFFF800
007FFFFFFC00
00FFFFFFFF00
01FFFFFFFF80
03FFFFFFFFC0
07FFFFFFFFE0
07FFFFFFFFE0
0FFFFFFFFFF0
1FFFF007FFF8
1FFFC003FFF8
3FFF8001FFFC
3FFF0000FFFC
3FFE00007FFC
7FFE00007FFE
7FFC00003FFE
7FFC00003FFE
7FFC00003FFE
FFFC00003FFF
FFF800001FFF
FFF800001FFF
FFF800001FFF
FFF800001FFF
FFF800001FFF
FFF800001FFF
FFF800001FFF
FFF800001FFF
FFF800001FFF
FFF800001FFF
FFF800001FFF
FFFC00003FFF
7FFC00003FFE
7FFC00003FFE
7FFC00003FFE
7FFE00007FFE
3FFE00007FFC
3FFF0000FFFC
3FFF8001FFFC
1FFFC003FFF8
1FFFF007FFF8
0FFFFFFFFFF0
07FFFFFFFFE0
07FFFFFFFFE0
03FFFFFFFFC0
01FFFFFFFF80
00FFFFFFFF00
007FFFFFFE00
001FFFFFF800
0007FFFFE000
0001FFFF8000
00003FFC0000
ENDCHAR
STARTCHAR 00F7
ENCODING 247
SWIDTH 604 0
DWIDTH 58 0
BBX 48 51 5 6
BITMAP
000007E00000
00001FF80000
00003FFC0000
00003FFC0000
00007FFE0000
00007FFE0000
00007FFE0000
00007FFE0000
00007FFE0000
00003FFC0000
00003FFC0000
00001FF80000
000007E00000
000000000000
000000000000
000000000000
000000000000
000000000000
000000000000
000000000000
FFFFFFFFFFFF
FFFFFFFFFFFF
FFFFFFFFFFFF
FFFFFFFFFFFF
FFFFFFFFFFFF
FFFFFFFFFFFF
FFFFFFFFFFFF
FFFFFFFFFFFF
FFFFFFFFFFFF
FFFFFFFFFFFF
FFFFFFFFFFFF
000000000000
000000000000
000000000000
000000000000
000000000000
000000000000
000000000000
000007E00000
00001FF80000
00003FFC0000
00003FFC0000
00007FFE0000
00007FFE0000
00007FFE0000
00007FFE0000
00007FFE0000
00003FFC0000
00003FFC0000
00001FF80000
000007E00000
ENDCHAR
STARTCHAR 00F8
ENCODING 248
SWIDTH 604 0
DWIDTH 58 0
BBX 48 65 5 -7
BITMAP
000000000FF0
000000000FE0
000000001FE0
000000001FC0
000000003FC0
000000003F80
00003FF83F80
0001FFFFFF00
0007FFFFFF00
001FFFFFFE00
007FFFFFFE00
00FFFFFFFF00
01FFFFFFFF80
03FFFFFFFFC0
07FFFFFFFFE0
07FFFFFFFFE0
0FFFFFFFFFF0
1FFFF00FFFF8
1FFFC00FFFF8
3FFF801FFFFC
3FFF001FFFFC
3FFE003FFFFC
7FFE003FFFFE
7FFC007FBFFE
7FFC007F3FFE
7FFC00FF3FFE
FFFC00FE3FFF
FFF801FE1FFF
FFF801FC1FFF
FFF803FC1FFF
FFF803F81FFF
FFF807F81FFF
FFF807F01FFF
FFF80FF01FFF
FFF80FE01FFF
FFF81FE01FFF
FFF81FC01FFF
FFF83FC01FFF
FFF83F803FFF
7FFC7F803FFE
7FFC7F003FFE
7FFCFF003FFE
7FFEFE007FFE
3FFFFE007FFC
3FFFFC00FFFC
3FFFFC01FFFC
1FFFF803FFF8
1FFFF807FFF8
0FFFFFFFFFF0
07FFFFFFFFE0
07FFFFFFFFE0
03FFFFFFFFC0
01FFFFFFFF80
00FFFFFFFF00
007FFFFFFE00
003FFFFFF800
007FFFFFE000
007FFFFF8000
00FE1FFC0000
00FE00000000
01FC00000000
01FC00000000
03F800000000
03F800000000
07F000000000
ENDCHAR
STARTCHAR 00F9
ENCODING 249
SWIDTH 593 0
DWIDTH 57 0
BBX 44 71 7 -1
BITMAP
07FFE0000000
03FFF0000000
01FFF8000000
00FFF8000000
007FFC000000
003FFC000000
001FFE000000
000FFF000000
0007FF000000
0003FF800000
0001FFC00000
0000FFC00000
00007FE00000
000000000000
000000000000
000000000000
000000000000
000000000000
000000000000
FFF80001FFF0
FFF80001FFF0
FFF80001FFF0
FFF80001FFF0
FFF80001FFF0
FFF80001FFF0
FFF80001FFF0
FFF80001FFF0
FFF80001FFF0
FFF80001FFF0
FFF80001FFF0
FFF80001FFF0
FFF80001FFF0
FFF80001FFF0
FFF80001FFF0
FFF80001FFF0
FFF80001FFF0
FFF80001FFF0
FFF80001FFF0
FFF80001FFF0
FFF80001FFF0
FFF80001FFF0
FFF80001FFF0
FFF80001FFF0
FFF80001FFF0
FFF80001FFF0
FFF80001FFF0
FFF80001FFF0
FFF80001FFF0
FFF80001FFF0
FFF80001FFF0
FFF80001FFF0
FFF80001FFF0
FFF80001FFF0
FFF80001FFF0
FFF80001FFF0
FFFC0001FFF0
7FFC0003FFF0
7FFE0007FFF0
7FFE000FFFF0
7FFF803FFFF0
3FFFFFFFFFF0
3FFFFFFFFFF0
1FFFFFFFFFF0
1FFFFFFEFFF0
0FFFFFFCFFF0
07FFFFFCFFF0
07FFFFF0FFF0
01FFFFE0FFF0
00FFFFC0FFF0
003FFF00FFF0
0007FC000000
ENDCHAR
STARTCHAR 00FA
ENCODING 250
SWIDTH 593 0
DWIDTH 57 0
BBX 44 71 7 -1
BITMAP
0000007FFE00
000000FFFC00
000001FFF800
000001FFF000
000003FFE000
000007FFC000
000007FF8000
00000FFF0000
00000FFE0000
00001FFC0000
00003FF80000
00003FF00000
00007FE00000
000000000000
000000000000
000000000000
000000000000
000000000000
000000000000
FFF80001FFF0
FFF80001FFF0
FFF80001FFF0
FFF80001FFF0
FFF80001FFF0
FFF80001FFF0
FFF80001FFF0
FFF80001FFF0
FFF80001FFF0
FFF80001FFF0
FFF80001FFF0
FFF80001FFF0
FFF80001FFF0
FFF80001FFF0
FFF80001FFF0
FFF80001FFF0
FFF80001FFF0
FFF80001FFF0
FFF80001FFF0
FFF80001FFF0
FFF80001FFF0
FFF80001FFF0
FFF80001FFF0
FFF80001FFF0
FFF80001FFF0
FFF80001FFF0
FFF80001FFF0
FFF80001FFF0
FFF80001FFF0
FFF80001FFF0
FFF80001FFF0
FFF80001FFF0
FFF80001FFF0
FFF80001FFF0
FFF80001FFF0
FFF80001FFF0
FFFC0001FFF0
7FFC0003FFF0
7FFE0007FFF0
7FFE000FFFF0
7FFF803FFFF0
3FFFFFFFFFF0
3FFFFFFFFFF0
1FFFFFFFFFF0
1FFFFFFEFFF0
0FFFFFFCFFF0
07FFFFFCFFF0
07FFFFF0FFF0
01FFFFE0FFF0
00FFFFC0FFF0
003FFF00FFF0
0007FC000000
ENDCHAR
STARTCHAR 00FB
ENCODING 251
SWIDTH 593 0
DWIDTH 57 0
BBX 44 73 7 -1
BITMAP
00003FC00000
00007FF00000
0001FFF80000
0003FFFC0000
0007FFFE0000
000FFFFF0000
001FFFFFC000
003FF9FFE000
00FFF0FFF000
01FFE07FF800
03FFC03FFE00
07FF801FFF00
07FE000FFF00
000000000000
000000000000
000000000000
000000000000
000000000000
000000000000
000000000000
000000000000
FFF80001FFF0
FFF80001FFF0
FFF80001FFF0
FFF80001FFF0
FFF80001FFF0
FFF80001FFF0
FFF80001FFF0
FFF80001FFF0
FFF80001FFF0
FFF80001FFF0
FFF80001FFF0
FFF80001FFF0
FFF80001FFF0
FFF80001FFF0
FFF80001FFF0
FFF80001FFF0
FFF80001FFF0
FFF80001FFF0
FFF80001FFF0
FFF80001FFF0
FFF80001FFF0
FFF80001FFF0
FFF80001FFF0
FFF80001FFF0
FFF80001FFF0
FFF80001FFF0
FFF80001FFF0
FFF80001FFF0
FFF80001FFF0
FFF80001FFF0
FFF80001FFF0
FFF80001FFF0
FFF80001FFF0
FFF80001FFF0
FFF80001FFF0
FFFC0001FFF0
FFFC0003FFF0
7FFC0003FFF0
7FFE0007FFF0
7FFF001FFFF0
3FFFC07FFFF0
3FFFFFFFFFF0
3FFFFFFFFFF0
1FFFFFFFFFF0
1FFFFFFEFFF0
0FFFFFFCFFF0
07FFFFF8FFF0
03FFFFF0FFF0
01FFFFE0FFF0
007FFF80FFF0
001FFE00FFF0
0001E0000000
ENDCHAR
STARTCHAR 00FC
ENCODING 252
SWIDTH 593 0
DWIDTH 57 0
BBX 44 72 7 -1
BITMAP
00F80001F000
03FE0007FC00
07FF000FFE00
07FF001FFE00
0FFF801FFF00
0FFF801FFF00
0FFF801FFF00
0FFF801FFF00
0FFF801FFE00
07FF000FFE00
03FE0007FC00
00F80001F000
000000000000
000000000000
000000000000
000000000000
000000000000
000000000000
000000000000
000000000000
FFF80001FFF0
FFF80001FFF0
FFF80001FFF0
FFF80001FFF0
FFF80001FFF0
FFF80001FFF0
FFF80001FFF0
FFF80001FFF0
FFF80001FFF0
FFF80001FFF0
FFF80001FFF0
FFF80001FFF0
FFF80001FFF0
FFF80001FFF0
FFF80001FFF0
FFF80001FFF0
FFF80001FFF0
FFF80001FFF0
FFF80001FFF0
FFF80001FFF0
FFF80001FFF0
FFF80001FFF0
FFF80001FFF0
FFF80001FFF0
FFF80001FFF0
FFF80001FFF0
FFF80001FFF0
FFF80001FFF0
FFF80001FFF0
FFF80001FFF0
FFF80001FFF0
FFF80001FFF0
FFF80001FFF0
FFF80001FFF0
FFF80001FFF0
FFF80001FFF0
FFFC0001FFF0
7FFC0003FFF0
7FFE0007FFF0
7FFE000FFFF0
7FFF803FFFF0
3FFFFFFFFFF0
3FFFFFFFFFF0
1FFFFFFFFFF0
1FFFFFFEFFF0
0FFFFFFCFFF0
07FFFFFCFFF0
07FFFFF8FFF0
01FFFFE0FFF0
00FFFFC0FFF0
003FFF00FFF0
0007FC000000
ENDCHAR
STARTCHAR 00FD
ENCODING 253
SWIDTH 604 0
DWIDTH 58 0
BBX 54 90 3 -21
BITMAP
00000003FFF000
00000003FFE000
00000007FFC000
0000000FFF8000
0000000FFF0000
0000001FFE0000
0000003FFC0000
0000007FF80000
0000007FF00000
000000FFE00000
000001FFC00000
000001FF800000
000003FF000000
00000000000000
00000000000000
00000000000000
00000000000000
00000000000000
00000000000000
FFFC000000FFFC
FFFC000001FFFC
7FFE000001FFF8
7FFE000001FFF8
3FFF000003FFF0
3FFF000003FFF0
3FFF000003FFF0
1FFF800007FFE0
1FFF800007FFE0
0FFFC0000FFFC0
0FFFC0000FFFC0
07FFC0000FFF80
07FFE0001FFF80
03FFE0001FFF80
03FFE0003FFF00
03FFF0003FFF00
01FFF0003FFE00
01FFF8007FFE00
00FFF8007FFC00
00FFF8007FFC00
007FFC00FFF800
007FFC00FFF800
007FFE01FFF800
003FFE01FFF000
003FFE01FFF000
001FFF03FFE000
001FFF03FFE000
000FFF87FFC000
000FFF87FFC000
0007FF87FF8000
0007FFCFFF8000
0007FFCFFF8000
0003FFCFFF0000
0003FFDFFF0000
0001FFFFFE0000
0001FFFFFE0000
0000FFFFFC0000
0000FFFFFC0000
0000FFFFF80000
00007FFFF80000
00007FFFF80000
00003FFFF00000
00003FFFF00000
00001FFFE00000
00001FFFE00000
00000FFFC00000
00000FFFC00000
00000FFFC00000
000007FF800000
00000FFF800000
00000FFF000000
00001FFF000000
00001FFE000000
00003FFE000000
00003FFC000000
00007FFC000000
0000FFFC000000
0000FFF8000000
0001FFF8000000
0003FFF0000000
01FFFFF0000000
01FFFFE0000000
01FFFFE0000000
03FFFFC0000000
03FFFF80000000
03FFFF00000000
03FFFE00000000
03FFFC00000000
03FFF800000000
07FFE000000000
01FF0000000000
ENDCHAR
STARTCHAR 00FE
ENCODING 254
SWIDTH 593 0
DWIDTH 57 0
BBX 45 92 7 -20
BITMAP
FFF800000000
FFF800000000
FFF800000000
FFF800000000
FFF800000000
FFF800000000
FFF800000000
FFF800000000
FFF800000000
FFF800000000
FFF800000000
FFF800000000
FFF800000000
FFF800000000
FFF800000000
FFF800000000
FFF800000000
FFF800000000
FFF800000000
FFF800000000
FFF800E00000
FFF81FFF0000
FFF87FFFC000
FFF9FFFFF000
FFFBFFFFF800
FFFFFFFFFC00
FFFFFFFFFE00
FFFFFFFFFF00
FFFFFFFFFF80
FFFFFFFFFF80
FFFFFFFFFFC0
FFFFC07FFFC0
FFFF001FFFE0
FFFE000FFFE0
FFFC0007FFE0
FFF80003FFF0
FFF80003FFF0
FFF80001FFF0
FFF80001FFF0
FFF80001FFF0
FFF80001FFF8
FFF80000FFF8
FFF80000FFF8
FFF80000FFF8
FFF80000FFF8
FFF80000FFF8
FFF80000FFF8
FFF80000FFF8
FFF80000FFF8
FFF80000FFF8
FFF80000FFF8
FFF80000FFF8
FFF80000FFF8
FFF80001FFF8
FFF80001FFF0
FFF80001FFF0
FFF80001FFF0
FFF80003FFF0
FFFC0003FFF0
FFFC0007FFE0
FFFE000FFFE0
FFFF001FFFE0
FFFFE07FFFC0
FFFFFFFFFFC0
FFFFFFFFFF80
FFFFFFFFFF00
FFFFFFFFFF00
FFFFFFFFFE00
FFFFFFFFFC00
FFFBFFFFF800
FFF8FFFFF000
FFF87FFFC000
FFF81FFF0000
FFF801E00000
FFF800000000
FFF800000000
FFF800000000
FFF800000000
FFF800000000
FFF800000000
FFF800000000
FFF800000000
FFF800000000
FFF800000000
FFF800000000
FFF800000000
FFF800000000
FFF800000000
FFF800000000
FFF800000000
FFF800000000
FFF800000000
ENDCHAR
STARTCHAR 00FF
ENCODING 255
SWIDTH 593 0
DWIDTH 57 0
BBX 55 91 2 -21
BITMAP
0003E0000F8000
000FF8003FE000
001FFC007FF000
001FFC00FFF000
003FFE00FFF800
003FFE00FFF800
003FFE00FFF800
003FFE00FFF800
003FFE00FFF000
001FFC007FF000
000FF8003FE000
0003E0000F8000
00000000000000
00000000000000
00000000000000
00000000000000
00000000000000
00000000000000
00000000000000
00000000000000
FFFE000000FFFE
7FFE000000FFFC
7FFE000001FFFC
3FFF000001FFF8
3FFF000001FFF8
1FFF800003FFF0
1FFF800003FFF0
1FFF800003FFF0
0FFFC00007FFE0
0FFFC00007FFE0
07FFC0000FFFC0
07FFE0000FFFC0
03FFE0000FFF80
03FFF0001FFF80
01FFF0001FFF00
01FFF0003FFF00
01FFF8003FFF00
00FFF8003FFE00
00FFFC007FFE00
007FFC007FFC00
007FFC007FFC00
003FFE00FFF800
003FFE00FFF800
001FFE01FFF800
001FFF01FFF000
001FFF01FFF000
000FFF83FFE000
000FFF83FFE000
0007FF83FFC000
0007FFC7FFC000
0003FFC7FF8000
0003FFCFFF8000
0001FFEFFF8000
0001FFEFFF0000
0001FFFFFF0000
0000FFFFFE0000
0000FFFFFE0000
00007FFFFC0000
00007FFFFC0000
00003FFFF80000
00003FFFF80000
00001FFFF80000
00001FFFF00000
00001FFFF00000
00000FFFE00000
00000FFFE00000
000007FFC00000
000007FFC00000
000003FFC00000
000007FF800000
000007FF800000
00000FFF000000
00000FFF000000
00001FFE000000
00003FFE000000
00003FFC000000
00007FFC000000
0000FFFC000000
0001FFF8000000
0003FFF8000000
01FFFFF0000000
01FFFFF0000000
01FFFFE0000000
01FFFFC0000000
01FFFFC0000000
01FFFF80000000
03FFFF00000000
03FFFE00000000
03FFF800000000
03FFE000000000
01FF8000000000
ENDCHAR
STARTCHAR 0100
ENCODING 256
SWIDTH 604 0
DWIDTH 58 0
BBX 56 85 2 -1
BITMAP
001FFFFFFFF800
001FFFFFFFF800
001FFFFFFFF800
001FFFFFFFF800
001FFFFFFFF800
001FFFFFFFF800
001FFFFFFFF800
001FFFFFFFF800
00000000000000
00000000000000
00000000000000
00000000000000
00000000000000
00000000000000
00000000000000
00000000000000
000003FFC00000
000007FFC00000
000007FFE00000
000007FFE00000
00000FFFE00000
00000FFFF00000
00000FFFF00000
00001FFFF00000
00001FFFF80000
00001FFFF80000
00003FFFF80000
00003FFFFC0000
00003FFFFC0000
00007FFFFC0000
00007FFFFE0000
00007FFFFE0000
0000FFFFFE0000
0000FFFFFE0000
0000FFFFFF0000
0001FFEFFF0000
0001FFE7FF0000
0001FFE7FF8000
0003FFC7FF8000
0003FFC7FF8000
0003FFC3FFC000
0003FFC3FFC000
0007FF83FFC000
0007FF81FFE000
0007FF81FFE000
000FFF01FFE000
000FFF01FFF000
000FFF00FFF000
001FFF00FFF000
001FFE00FFF800
001FFE00FFF800
003FFE007FF800
003FFE007FFC00
003FFC007FFC00
007FFC003FFC00
007FFC003FFC00
007FF8003FFE00
00FFF8003FFE00
00FFF8001FFE00
00FFFFFFFFFF00
01FFFFFFFFFF00
01FFFFFFFFFF00
01FFFFFFFFFF80
03FFFFFFFFFF80
03FFFFFFFFFF80
03FFFFFFFFFFC0
07FFFFFFFFFFC0
07FFFFFFFFFFC0
07FFFFFFFFFFE0
0FFFFFFFFFFFE0
0FFF800003FFE0
0FFF800003FFF0
1FFF800003FFF0
1FFF800001FFF0
1FFF000001FFF0
1FFF000001FFF8
3FFF000000FFF8
3FFE000000FFF8
3FFE000000FFFC
7FFE000000FFFC
7FFE0000007FFC
7FFC0000007FFE
FFFC0000007FFE
FFFC0000007FFE
FFF80000003FFF
ENDCHAR
STARTCHAR 0101
ENCODING 257
SWIDTH 593 0
DWIDTH 57 0
BBX 46 70 5 -1
BITMAP
03FFFFFFFF00
03FFFFFFFF00
03FFFFFFFF00
03FFFFFFFF00
03FFFFFFFF00
03FFFFFFFF00
03FFFFFFFF00
03FFFFFFFF00
000000000000
000000000000
000000000000
000000000000
000000000000
000000000000
000000000000
000000000000
000000000000
0000FFF00000
0007FFFF0000
003FFFFFE000
007FFFFFF000
01FFFFFFFC00
03FFFFFFFE00
07FFFFFFFF00
0FFFFFFFFF80
1FFFFFFFFF80
1FFFFFFFFFC0
3FFFC03FFFE0
3FFF000FFFE0
7FFE0007FFE0
7FFE0003FFF0
7FFC0003FFF0
7FFC0001FFF0
00000001FFF0
00000001FFF0
00000001FFF0
00000001FFF0
00000001FFF0
0000FFFFFFF0
000FFFFFFFF0
007FFFFFFFF0
01FFFFFFFFF0
03FFFFFFFFF0
0FFFFFFFFFF0
1FFFFFFFFFF0
1FFFFFFFFFF0
3FFFE001FFF0
3FFF8001FFF0
7FFE0001FFF0
7FFC0001FFF0
FFFC0001FFF0
FFF80001FFF0
FFF80001FFF0
FFF80001FFF0
FFF80001FFF0
FFF80003FFF0
FFFC0007FFF0
FFFE000FFFF0
FFFF003FFFF0
7FFFFFFFFFF0
7FFFFFFFFFF0
3FFFFFFFFFF0
3FFFFFFFFFF0
1FFFFFFFFFF8
0FFFFFFEFFF8
07FFFFFCFFF8
03FFFFF8FFF8
01FFFFE0FFFC
007FFF807FFC
0007FC000000
ENDCHAR
STARTCHAR 0102
ENCODING 258
SWIDTH 604 0
DWIDTH 58 0
BBX 56 89 2 -1
BITMAP
000FF8001FF000
000FF8001FF000
000FF8001FF000
000FFC003FF000
000FFC003FF000
0007FE007FE000
0007FF81FFE000
0003FFFFFFC000
0003FFFFFFC000
0001FFFFFF8000
0000FFFFFF0000
00007FFFFE0000
00003FFFFC0000
00000FFFF00000
000001FF800000
00000000000000
00000000000000
00000000000000
00000000000000
00000000000000
000007FFC00000
000007FFE00000
000007FFE00000
00000FFFE00000
00000FFFF00000
00000FFFF00000
00000FFFF00000
00001FFFF80000
00001FFFF80000
00001FFFF80000
00003FFFFC0000
00003FFFFC0000
00003FFFFC0000
00007FFFFE0000
00007FFFFE0000
00007FFFFE0000
0000FFFFFF0000
0000FFFFFF0000
0000FFFFFF0000
0001FFEFFF0000
0001FFE7FF8000
0001FFE7FF8000
0003FFE7FF8000
0003FFC3FFC000
0003FFC3FFC000
0007FFC3FFC000
0007FF83FFE000
0007FF81FFE000
000FFF81FFE000
000FFF01FFF000
000FFF00FFF000
001FFF00FFF000
001FFF00FFF800
001FFE007FF800
001FFE007FF800
003FFE007FFC00
003FFC007FFC00
003FFC003FFC00
007FFC003FFC00
007FF8003FFE00
007FF8001FFE00
00FFF8001FFE00
00FFF8001FFF00
00FFFFFFFFFF00
01FFFFFFFFFF00
01FFFFFFFFFF80
01FFFFFFFFFF80
03FFFFFFFFFF80
03FFFFFFFFFFC0
03FFFFFFFFFFC0
07FFFFFFFFFFC0
07FFFFFFFFFFE0
07FFFFFFFFFFE0
0FFFFFFFFFFFE0
0FFF800003FFF0
0FFF800001FFF0
1FFF800001FFF0
1FFF000001FFF0
1FFF000001FFF8
3FFF000000FFF8
3FFF000000FFF8
3FFE000000FFFC
3FFE0000007FFC
7FFE0000007FFC
7FFC0000007FFE
7FFC0000007FFE
FFFC0000003FFE
FFFC0000003FFF
FFF80000003FFF
ENDCHAR
STARTCHAR 0103
ENCODING 259
SWIDTH 593 0
DWIDTH 57 0
BBX 46 74 5 -1
BITMAP
01FF0007FC00
01FF0007FC00
01FF0007FC00
01FF800FFC00
00FF800FF800
00FFC01FF800
00FFF07FF800
007FFFFFF000
007FFFFFF000
003FFFFFE000
001FFFFFC000
000FFFFF8000
0007FFFF0000
0001FFFC0000
00003FE00000
000000000000
000000000000
000000000000
000000000000
000000000000
000000000000
0000FFF00000
0007FFFF0000
003FFFFFE000
00FFFFFFF000
01FFFFFFFC00
03FFFFFFFE00
07FFFFFFFF00
0FFFFFFFFF80
1FFFFFFFFF80
1FFFFFFFFFC0
3FFFC03FFFE0
3FFF000FFFE0
7FFE0007FFE0
7FFC0003FFF0
7FFC0003FFF0
7FFC0001FFF0
00000001FFF0
00000001FFF0
00000001FFF0
00000001FFF0
00000001FFF0
0000FFFFFFF0
000FFFFFFFF0
007FFFFFFFF0
01FFFFFFFFF0
03FFFFFFFFF0
0FFFFFFFFFF0
1FFFFFFFFFF0
1FFFFFFFFFF0
3FFFE001FFF0
3FFF8001FFF0
7FFE0001FFF0
7FFC0001FFF0
FFFC0001FFF0
FFF80001FFF0
FFF80001FFF0
FFF80001FFF0
FFF80001FFF0
FFF80003FFF0
FFFC0007FFF0
FFFE000FFFF0
FFFF003FFFF0
7FFFFFFFFFF0
7FFFFFFFFFF0
3FFFFFFFFFF0
3FFFFFFFFFF0
1FFFFFFFFFF8
0FFFFFFEFFF8
07FFFFFCFFF8
03FFFFF8FFF8
01FFFFE0FFFC
003FFF80FFFC
0007FC000000
ENDCHAR
STARTCHAR 0104
ENCODING 260
SWIDTH 604 0
DWIDTH 58 0
BBX 56 89 1 -20
BITMAP
000001FFE00000
000003FFE00000
000003FFE00000
000003FFE00000
000007FFF00000
000007FFF00000
000007FFF00000
00000FFFF80000
00000FFFF80000
00000FFFF80000
00001FFFFC0000
00001FFFFC0000
00001FFFFC0000
00003FFFFE0000
00003FFFFE0000
00003FFFFE0000
00007FFFFF0000
00007FFFFF0000
00007FFFFF0000
0000FFF7FF8000
0000FFF7FF8000
0000FFF7FF8000
0001FFE3FFC000
0001FFE3FFC000
0001FFE3FFC000
0003FFE3FFE000
0003FFC1FFE000
0003FFC1FFE000
0007FFC1FFE000
0007FF80FFF000
0007FF80FFF000
000FFF80FFF000
000FFF80FFF800
000FFF007FF800
000FFF007FF800
001FFF007FFC00
001FFE007FFC00
001FFE003FFC00
003FFE003FFE00
003FFE003FFE00
003FFC001FFE00
007FFC001FFF00
007FFC001FFF00
007FF8001FFF00
00FFFFFFFFFF80
00FFFFFFFFFF80
00FFFFFFFFFF80
01FFFFFFFFFFC0
01FFFFFFFFFFC0
01FFFFFFFFFFC0
03FFFFFFFFFFE0
03FFFFFFFFFFE0
03FFFFFFFFFFE0
07FFFFFFFFFFE0
07FFFFFFFFFFF0
07FFC00001FFF0
0FFFC00001FFF0
0FFF800001FFF8
0FFF800000FFF8
1FFF800000FFF8
1FFF800000FFFC
1FFF000000FFFC
3FFF0000007FFC
3FFF0000007FFE
3FFE0000007FFE
7FFE0000003FFE
7FFE0000003FFF
7FFE0000003FFF
FFFC0000003FFF
00000000007FF8
0000000000FFE0
0000000001FF80
0000000003FF00
0000000003FE00
0000000007FE00
0000000007FC00
000000000FFC00
000000000FFC00
000000000FFC00
000000000FFC00
000000000FFE08
000000000FFFFC
000000000FFFFC
0000000007FFFC
0000000007FFFC
0000000003FFFE
0000000001FFFE
0000000000FFFC
00000000001FE0
ENDCHAR
STARTCHAR 0105
ENCODING 261
SWIDTH 593 0
DWIDTH 57 0
BBX 46 72 5 -20
BITMAP
0000FFF00000
0007FFFF0000
003FFFFFE000
007FFFFFF000
01FFFFFFFC00
03FFFFFFFE00
07FFFFFFFF00
0FFFFFFFFF80
1FFFFFFFFF80
1FFFFFFFFFC0
3FFFC07FFFE0
3FFF000FFFE0
7FFE0007FFE0
7FFE0003FFF0
7FFC0003FFF0
7FFC0001FFF0
00000001FFF0
00000001FFF0
00000001FFF0
00000001FFF0
00000001FFF0
0000FFFFFFF0
000FFFFFFFF0
007FFFFFFFF0
01FFFFFFFFF0
03FFFFFFFFF0
0FFFFFFFFFF0
0FFFFFFFFFF0
1FFFFFFFFFF0
3FFFE001FFF0
3FFF8001FFF0
7FFE0001FFF0
7FFC0001FFF0
FFFC0001FFF0
FFF80001FFF0
FFF80001FFF0
FFF80001FFF0
FFF80001FFF0
FFF80003FFF0
FFFC0007FFF0
FFFE000FFFF0
FFFF003FFFF0
7FFFFFFFFFF0
7FFFFFFFFFF0
3FFFFFFFFFF0
3FFFFFFFFFF0
1FFFFFFFFFF8
0FFFFFFEFFF8
07FFFFFCFFF8
03FFFFF8FFF8
01FFFFE0FFFC
003FFF80FFFC
0007FC01FFE0
00000003FF80
00000007FE00
0000000FFC00
0000000FF800
0000001FF800
0000001FF000
0000003FF000
0000003FF000
0000003FF000
0000003FF000
0000003FF830
0000003FFFF0
0000003FFFF0
0000001FFFF0
0000001FFFF8
0000000FFFF8
00000007FFF8
00000001FFF8
000000007FC0
ENDCHAR
STARTCHAR 0106
ENCODING 262
SWIDTH 604 0
DWIDTH 58 0
BBX 50 87 4 -1
BITMAP
00000001FFFC00
00000001FFF800
00000003FFF000
00000007FFE000
00000007FFC000
0000000FFF8000
0000001FFF0000
0000001FFE0000
0000003FFC0000
0000007FF80000
0000007FF00000
000000FFE00000
000001FFC00000
00000000000000
00000000000000
00000000000000
000001F0000000
00003FFFC00000
0001FFFFF80000
0007FFFFFE0000
000FFFFFFF0000
003FFFFFFFC000
007FFFFFFFE000
00FFFFFFFFF000
01FFFFFFFFF800
03FFFFFFFFFC00
03FFFFFFFFFC00
07FFFC03FFFE00
0FFFF000FFFE00
0FFFC0007FFF00
1FFF80003FFF00
1FFF80001FFF80
1FFF00000FFF80
3FFE00000FFF80
3FFE00000FFF80
3FFE000007FFC0
7FFC000007FFC0
7FFC000007FFC0
7FFC000007FFC0
7FFC0000000000
FFF80000000000
FFF80000000000
FFF80000000000
FFF80000000000
FFF80000000000
FFF80000000000
FFF80000000000
FFF80000000000
FFF80000000000
FFF80000000000
FFF80000000000
FFF80000000000
FFF80000000000
FFF80000000000
FFF80000000000
FFF80000000000
FFF80000000000
FFF80000000000
FFF80000000000
FFF80000000000
FFF80000000000
FFF80000000000
FFF80000000000
FFF80000000000
7FFC0000000000
7FFC000007FFC0
7FFC000007FFC0
7FFC000007FFC0
3FFE000007FFC0
3FFE00000FFFC0
3FFE00000FFF80
1FFF00001FFF80
1FFF80001FFF80
1FFF80003FFF00
0FFFE0007FFF00
07FFF001FFFE00
07FFFFFFFFFE00
03FFFFFFFFFC00
01FFFFFFFFF800
01FFFFFFFFF000
00FFFFFFFFE000
003FFFFFFFC000
001FFFFFFF8000
000FFFFFFE0000
0003FFFFFC0000
0000FFFFE00000
00000FFE000000
ENDCHAR
STARTCHAR 0107
ENCODING 263
SWIDTH 593 0
DWIDTH 57 0
BBX 45 72 5 -1
BITMAP
0000001FFF80
0000003FFF00
0000003FFE00
0000007FFC00
000000FFF800
000000FFF000
000001FFE000
000003FFC000
000007FF8000
000007FF0000
00000FFE0000
00001FFC0000
00001FF80000
000000000000
000000000000
000000000000
000000000000
000000000000
000000000000
00003FF80000
0001FFFF0000
000FFFFFE000
001FFFFFF800
007FFFFFFC00
00FFFFFFFE00
01FFFFFFFF00
03FFFFFFFF80
07FFFFFFFFC0
0FFFFFFFFFC0
0FFFFFFFFFE0
1FFFE00FFFE0
1FFFC003FFF0
3FFF0001FFF0
3FFF0001FFF0
3FFE0000FFF8
7FFE0000FFF8
7FFC00007FF8
7FFC00007FF8
7FFC00007FF8
FFF800000000
FFF800000000
FFF800000000
FFF800000000
FFF800000000
FFF800000000
FFF800000000
FFF800000000
FFF800000000
FFF800000000
FFF800000000
FFF800000000
FFF800000000
7FFC00000000
7FFC00000000
7FFC00007FF8
7FFE00007FF8
3FFE0000FFF8
3FFF0000FFF8
3FFF0001FFF0
1FFF8003FFF0
1FFFE00FFFE0
0FFFFFFFFFE0
0FFFFFFFFFC0
07FFFFFFFFC0
03FFFFFFFF80
01FFFFFFFF00
00FFFFFFFE00
007FFFFFFC00
001FFFFFF000
000FFFFFC000
0001FFFF0000
00003FF80000
ENDCHAR
STARTCHAR 0108
ENCODING 264
SWIDTH 604 0
DWIDTH 58 0
BBX 50 89 4 -1
BITMAP
000000FF800000
000001FFC00000
000003FFE00000
00000FFFF00000
00001FFFFC0000
00003FFFFE0000
00007FFFFF0000
0000FFF7FF8000
0001FFE3FFC000
0007FF80FFE000
000FFF007FF800
001FFE003FFC00
001FFC001FFC00
00000000000000
00000000000000
00000000000000
00000000000000
00000000000000
000001F0000000
00003FFFC00000
0001FFFFF80000
0007FFFFFE0000
000FFFFFFF0000
003FFFFFFFC000
007FFFFFFFE000
00FFFFFFFFF000
01FFFFFFFFF800
03FFFFFFFFFC00
03FFFFFFFFFC00
07FFFC03FFFE00
0FFFF000FFFE00
0FFFC0007FFF00
1FFF80003FFF00
1FFF80001FFF80
1FFF00000FFF80
3FFE00000FFF80
3FFE00000FFF80
3FFE000007FFC0
7FFC000007FFC0
7FFC000007FFC0
7FFC000007FFC0
7FFC0000000000
FFF80000000000
FFF80000000000
FFF80000000000
FFF80000000000
FFF80000000000
FFF80000000000
FFF80000000000
FFF80000000000
FFF80000000000
FFF80000000000
FFF80000000000
FFF80000000000
FFF80000000000
FFF80000000000
FFF80000000000
FFF80000000000
FFF80000000000
FFF80000000000
FFF80000000000
FFF80000000000
FFF80000000000
FFF80000000000
FFF80000000000
FFF80000000000
7FFC0000000000
7FFC000007FFC0
7FFC000007FFC0
7FFC000007FFC0
3FFE000007FFC0
3FFE00000FFFC0
3FFE00000FFF80
1FFF00001FFF80
1FFF80001FFF80
1FFF80003FFF00
0FFFE0007FFF00
07FFF001FFFE00
07FFFFFFFFFE00
03FFFFFFFFFC00
01FFFFFFFFF800
01FFFFFFFFF000
00FFFFFFFFE000
003FFFFFFFC000
001FFFFFFF8000
000FFFFFFE0000
0003FFFFFC0000
0000FFFFE00000
00000FFE000000
ENDCHAR
STARTCHAR 0109
ENCODING 265
SWIDTH 593 0
DWIDTH 57 0
BBX 45 74 5 -1
BITMAP
00000FF00000
00003FFC0000
00007FFE0000
0000FFFF0000
0001FFFF8000
0003FFFFC000
0007FFFFF000
000FFE7FF800
003FFC3FFC00
007FF81FFE00
00FFF00FFF80
01FFE007FFC0
01FF8001FFC0
000000000000
000000000000
000000000000
000000000000
000000000000
000000000000
000000000000
000000000000
00003FF80000
0001FFFF0000
000FFFFFE000
001FFFFFF800
007FFFFFFC00
00FFFFFFFE00
01FFFFFFFF00
03FFFFFFFF80
07FFFFFFFFC0
0FFFFFFFFFC0
0FFFFFFFFFE0
1FFFE00FFFE0
1FFFC003FFF0
3FFF0001FFF0
3FFF0001FFF0
3FFE0000FFF8
7FFE0000FFF8
7FFC00007FF8
7FFC00007FF8
7FFC00007FF8
FFF800000000
FFF800000000
FFF800000000
FFF800000000
FFF800000000
FFF800000000
FFF800000000
FFF800000000
FFF800000000
FFF800000000
FFF800000000
FFF800000000
FFF800000000
7FFC00000000
7FFC00000000
7FFC00007FF8
7FFE00007FF8
3FFE0000FFF8
3FFF0000FFF8
3FFF0001FFF0
1FFF8003FFF0
1FFFE00FFFE0
0FFFFFFFFFE0
0FFFFFFFFFC0
07FFFFFFFFC0
03FFFFFFFF80
01FFFFFFFF00
00FFFFFFFE00
007FFFFFFC00
001FFFFFF000
000FFFFFC000
0001FFFF0000
00003FF80000
ENDCHAR
STARTCHAR 010A
ENCODING 266
SWIDTH 604 0
DWIDTH 58 0
BBX 50 89 4 -1
BITMAP
0000007E000000
000001FF800000
000003FFC00000
000003FFC00000
000007FFE00000
000007FFE00000
000007FFE00000
000007FFE00000
000007FFE00000
000003FFC00000
000003FFC00000
000001FF800000
0000007E000000
00000000000000
00000000000000
00000000000000
00000000000000
00000000000000
000001F0000000
00003FFFC00000
0001FFFFF80000
0007FFFFFE0000
000FFFFFFF0000
003FFFFFFFC000
007FFFFFFFE000
00FFFFFFFFF000
01FFFFFFFFF800
03FFFFFFFFFC00
03FFFFFFFFFC00
07FFFC03FFFE00
0FFFF000FFFE00
0FFFC0007FFF00
1FFF80003FFF00
1FFF80001FFF80
1FFF00000FFF80
3FFE00000FFF80
3FFE00000FFF80
3FFE000007FFC0
7FFC000007FFC0
7FFC000007FFC0
7FFC000007FFC0
7FFC0000000000
FFF80000000000
FFF80000000000
FFF80000000000
FFF80000000000
FFF80000000000
FFF80000000000
FFF80000000000
FFF80000000000
FFF80000000000
FFF80000000000
FFF80000000000
FFF80000000000
FFF80000000000
FFF80000000000
FFF80000000000
FFF80000000000
FFF80000000000
FFF80000000000
FFF80000000000
FFF80000000000
FFF80000000000
FFF80000000000
FFF80000000000
FFF80000000000
7FFC0000000000
7FFC000007FFC0
7FFC000007FFC0
7FFC000007FFC0
3FFE000007FFC0
3FFE00000FFFC0
3FFE00000FFF80
1FFF00001FFF80
1FFF80001FFF80
1FFF80003FFF00
0FFFE0007FFF00
07FFF001FFFE00
07FFFFFFFFFE00
03FFFFFFFFFC00
01FFFFFFFFF800
01FFFFFFFFF000
00FFFFFFFFE000
003FFFFFFFC000
001FFFFFFF8000
000FFFFFFE0000
0003FFFFFC0000
0000FFFFE00000
00000FFE000000
ENDCHAR
STARTCHAR 010B
ENCODING 267
SWIDTH 593 0
DWIDTH 57 0
BBX 45 74 5 -1
BITMAP
000007E00000
00001FF80000
00003FFC0000
00003FFC0000
00007FFE0000
00007FFE0000
00007FFE0000
00007FFE0000
00007FFE0000
00003FFC0000
00003FFC0000
00001FF80000
000007E00000
000000000000
000000000000
000000000000
000000000000
000000000000
000000000000
000000000000
000000000000
00003FF80000
0001FFFF0000
000FFFFFE000
001FFFFFF800
007FFFFFFC00
00FFFFFFFE00
01FFFFFFFF00
03FFFFFFFF80
07FFFFFFFFC0
0FFFFFFFFFC0
0FFFFFFFFFE0
1FFFE00FFFE0
1FFFC003FFF0
3FFF0001FFF0
3FFF0001FFF0
3FFE0000FFF8
7FFE0000FFF8
7FFC00007FF8
7FFC00007FF8
7FFC00007FF8
FFF800000000
FFF800000000
FFF800000000
FFF800000000
FFF800000000
FFF800000000
FFF800000000
FFF800000000
FFF800000000
FFF800000000
FFF800000000
FFF800000000
FFF800000000
7FFC00000000
7FFC00000000
7FFC00007FF8
7FFE00007FF8
3FFE0000FFF8
3FFF0000FFF8
3FFF0001FFF0
1FFF8003FFF0
1FFFE00FFFE0
0FFFFFFFFFE0
0FFFFFFFFFC0
07FFFFFFFFC0
03FFFFFFFF80
01FFFFFFFF00
00FFFFFFFE00
007FFFFFFC00
001FFFFFF000
000FFFFFC000
0001FFFF0000
00003FF80000
ENDCHAR
STARTCHAR 010C
ENCODING 268
SWIDTH 604 0
DWIDTH 58 0
BBX 50 89 4 -1
BITMAP
003FFC001FFE00
001FFE003FFC00
000FFF00FFF800
0007FF81FFF000
0003FFE3FFE000
0001FFF7FF8000
00007FFFFF0000
00003FFFFE0000
00001FFFFC0000
00000FFFF80000
000007FFF00000
000003FFC00000
000000FF800000
00000000000000
00000000000000
00000000000000
00000000000000
00000000000000
000001F0000000
00003FFFC00000
0001FFFFF80000
0007FFFFFE0000
000FFFFFFF0000
003FFFFFFFC000
007FFFFFFFE000
00FFFFFFFFF000
01FFFFFFFFF800
03FFFFFFFFFC00
03FFFFFFFFFC00
07FFFC03FFFE00
0FFFF000FFFE00
0FFFC0007FFF00
1FFF80003FFF00
1FFF80001FFF80
1FFF00000FFF80
3FFE00000FFF80
3FFE00000FFF80
3FFE000007FFC0
7FFC000007FFC0
7FFC000007FFC0
7FFC000007FFC0
7FFC0000000000
FFF80000000000
FFF80000000000
FFF80000000000
FFF80000000000
FFF80000000000
FFF80000000000
FFF80000000000
FFF80000000000
FFF80000000000
FFF80000000000
FFF80000000000
FFF80000000000
FFF80000000000
FFF80000000000
FFF80000000000
FFF80000000000
FFF80000000000
FFF80000000000
FFF80000000000
FFF80000000000
FFF80000000000
FFF80000000000
FFF80000000000
FFF80000000000
7FFC0000000000
7FFC000007FFC0
7FFC000007FFC0
7FFC000007FFC0
3FFE000007FFC0
3FFE00000FFFC0
3FFE00000FFF80
1FFF00001FFF80
1FFF80001FFF80
1FFF80003FFF00
0FFFE0007FFF00
07FFF001FFFE00
07FFFFFFFFFE00
03FFFFFFFFFC00
01FFFFFFFFF800
01FFFFFFFFF000
00FFFFFFFFE000
003FFFFFFFC000
001FFFFFFF8000
000FFFFFFE0000
0003FFFFFC0000
0000FFFFE00000
00000FFE000000
ENDCHAR
STARTCHAR 010D
ENCODING 269
SWIDTH 593 0
DWIDTH 57 0
BBX 45 74 5 -1
BITMAP
03FFC003FFC0
01FFE007FF80
00FFF00FFF00
007FF81FFE00
003FFC3FFC00
001FFEFFF800
000FFFFFE000
0003FFFFC000
0001FFFF8000
0000FFFF0000
00007FFE0000
00003FFC0000
00001FF80000
000000000000
000000000000
000000000000
000000000000
000000000000
000000000000
000000000000
000000000000
00003FF80000
0001FFFF0000
000FFFFFE000
001FFFFFF800
007FFFFFFC00
00FFFFFFFE00
01FFFFFFFF00
03FFFFFFFF80
07FFFFFFFFC0
0FFFFFFFFFC0
0FFFFFFFFFE0
1FFFE00FFFE0
1FFFC003FFF0
3FFF0001FFF0
3FFF0001FFF0
3FFE0000FFF8
7FFE0000FFF8
7FFC00007FF8
7FFC00007FF8
7FFC00007FF8
FFF800000000
FFF800000000
FFF800000000
FFF800000000
FFF800000000
FFF800000000
FFF800000000
FFF800000000
FFF800000000
FFF800000000
FFF800000000
FFF800000000
FFF800000000
7FFC00000000
7FFC00000000
7FFC00007FF8
7FFE00007FF8
3FFE0000FFF8
3FFF0000FFF8
3FFF0001FFF0
1FFF8003FFF0
1FFFE00FFFE0
0FFFFFFFFFE0
0FFFFFFFFFC0
07FFFFFFFFC0
03FFFFFFFF80
01FFFFFFFF00
00FFFFFFFE00
007FFFFFFC00
001FFFFFF000
000FFFFFC000
0001FFFF0000
00003FF80000
ENDCHAR
STARTCHAR 010E
ENCODING 270
SWIDTH 593 0
DWIDTH 57 0
BBX 47 88 6 0
BITMAP
7FF0003FF800
7FF8007FF800
1FFE00FFF000
0FFF01FFE000
07FF87FF8000
03FFCFFF0000
01FFFFFE0000
007FFFFC0000
003FFFF80000
001FFFE00000
000FFFC00000
0007FF800000
0003FF000000
000000000000
000000000000
000000000000
000000000000
000000000000
000000000000
FFFFE0000000
FFFFFFC00000
FFFFFFF80000
FFFFFFFE0000
FFFFFFFF8000
FFFFFFFFE000
FFFFFFFFF000
FFFFFFFFF800
FFFFFFFFFC00
FFFFFFFFFE00
FFFFFFFFFF00
FFF803FFFF80
FFF800FFFF80
FFF8003FFFC0
FFF8000FFFE0
FFF80007FFE0
FFF80003FFF0
FFF80003FFF0
FFF80001FFF8
FFF80001FFF8
FFF80000FFF8
FFF80000FFFC
FFF800007FFC
FFF800007FFC
FFF800007FFC
FFF800007FFE
FFF800003FFE
FFF800003FFE
FFF800003FFE
FFF800003FFE
FFF800003FFE
FFF800003FFE
FFF800003FFE
FFF800003FFE
FFF800003FFE
FFF800003FFE
FFF800003FFE
FFF800003FFE
FFF800003FFE
FFF800003FFE
FFF800003FFE
FFF800003FFE
FFF800003FFE
FFF800003FFE
FFF800007FFC
FFF800007FFC
FFF800007FFC
FFF800007FFC
FFF80000FFF8
FFF80000FFF8
FFF80001FFF8
FFF80001FFF0
FFF80003FFF0
FFF80007FFF0
FFF8000FFFE0
FFF8001FFFC0
FFF8003FFFC0
FFF800FFFF80
FFFFFFFFFF00
FFFFFFFFFF00
FFFFFFFFFE00
FFFFFFFFFC00
FFFFFFFFF800
FFFFFFFFE000
FFFFFFFFC000
FFFFFFFF0000
FFFFFFFC0000
FFFFFFF00000
FFFFFF000000
ENDCHAR
STARTCHAR 010F
ENCODING 271
SWIDTH 604 0
DWIDTH 58 0
BBX 64 75 2 -1
BITMAP
00000000000003FF
00000000000003FF
00000000FFF803FF
00000000FFF803FF
00000000FFF803FF
00000000FFF803FF
00000000FFF803FF
00000000FFF803FF
00000000FFF803FF
00000000FFF803FF
00000000FFF803FF
00000000FFF803FF
00000000FFF803FF
00000000FFF803FE
00000000FFF807FE
00000000FFF807FE
00000000FFF807FC
00000000FFF80FFC
00000000FFF80FFC
00000000FFF81FF8
00000000FFF81FF8
00000000FFF83FF0
0001FF00FFF83FE0
000FFFE0FFF83FE0
003FFFF8FFF80FC0
007FFFFCFFF80780
00FFFFFEFFF80100
01FFFFFFFFF80000
03FFFFFFFFF80000
07FFFFFFFFF80000
0FFFFFFFFFF80000
0FFFFFFFFFF80000
1FFFFFFFFFF80000
1FFFE00FFFF80000
3FFF8007FFF80000
3FFF0003FFF80000
3FFF0001FFF80000
7FFE0000FFF80000
7FFE0000FFF80000
7FFC0000FFF80000
7FFC0000FFF80000
FFFC0000FFF80000
FFFC0000FFF80000
FFF80000FFF80000
FFF80000FFF80000
FFF80000FFF80000
FFF80000FFF80000
FFF80000FFF80000
FFF80000FFF80000
FFF80000FFF80000
FFF80000FFF80000
FFF80000FFF80000
FFF80000FFF80000
FFF80000FFF80000
FFF80000FFF80000
FFFC0000FFF80000
7FFC0000FFF80000
7FFC0000FFF80000
7FFE0000FFF80000
7FFE0000FFF80000
3FFF0001FFF80000
3FFF0003FFF80000
3FFF8007FFF80000
1FFFE00FFFF80000
1FFFFFFFFFF80000
0FFFFFFFFFF80000
0FFFFFFFFFF80000
07FFFFFFFFF80000
03FFFFFFFFF80000
01FFFFFF7FF80000
00FFFFFE7FF80000
007FFFFC7FF80000
003FFFF87FF80000
000FFFE07FF80000
0001FF0000000000
ENDCHAR
STARTCHAR 0110
ENCODING 272
SWIDTH 593 0
DWIDTH 57 0
BBX 56 69 -2 0
BITMAP
007FFFF8000000
007FFFFFE00000
007FFFFFFC0000
007FFFFFFF0000
007FFFFFFFC000
007FFFFFFFF000
007FFFFFFFF800
007FFFFFFFFC00
007FFFFFFFFE00
007FFFFFFFFF00
007FFFFFFFFF80
007FFC01FFFFC0
007FFC007FFFC0
007FFC001FFFE0
007FFC0007FFF0
007FFC0003FFF0
007FFC0001FFF8
007FFC0001FFF8
007FFC0000FFFC
007FFC0000FFFC
007FFC00007FFC
007FFC00007FFE
007FFC00003FFE
007FFC00003FFE
007FFC00003FFE
007FFC00003FFE
007FFC00001FFF
007FFC00001FFF
007FFC00001FFF
007FFC00001FFF
FFFFFFFF001FFF
FFFFFFFF001FFF
FFFFFFFF001FFF
FFFFFFFF001FFF
FFFFFFFF001FFF
FFFFFFFF001FFF
FFFFFFFF001FFF
FFFFFFFF001FFF
007FFC00001FFF
007FFC00001FFF
007FFC00001FFF
007FFC00001FFF
007FFC00001FFF
007FFC00003FFF
007FFC00003FFE
007FFC00003FFE
007FFC00003FFE
007FFC00007FFE
007FFC00007FFC
007FFC00007FFC
007FFC0000FFFC
007FFC0000FFF8
007FFC0001FFF8
007FFC0003FFF8
007FFC0007FFF0
007FFC000FFFE0
007FFC001FFFE0
007FFC007FFFC0
007FFFFFFFFF80
007FFFFFFFFF80
007FFFFFFFFF00
007FFFFFFFFE00
007FFFFFFFFC00
007FFFFFFFF000
007FFFFFFFE000
007FFFFFFF8000
007FFFFFFE0000
007FFFFFF80000
007FFFFF800000
ENDCHAR
STARTCHAR 0111
ENCODING 273
SWIDTH 604 0
DWIDTH 58 0
BBX 53 73 5 -1
BITMAP
00000000FFF800
00000000FFF800
00000000FFF800
00000000FFF800
00000000FFF800
00000000FFF800
000007FFFFFFF8
000007FFFFFFF8
000007FFFFFFF8
000007FFFFFFF8
000007FFFFFFF8
000007FFFFFFF8
000007FFFFFFF8
000007FFFFFFF8
000007FFFFFFF8
00000000FFF800
00000000FFF800
00000000FFF800
00000000FFF800
00000000FFF800
0001FF00FFF800
000FFFE0FFF800
003FFFF8FFF800
007FFFFCFFF800
00FFFFFEFFF800
01FFFFFFFFF800
03FFFFFFFFF800
07FFFFFFFFF800
0FFFFFFFFFF800
0FFFFFFFFFF800
1FFFFFFFFFF800
1FFFE00FFFF800
3FFF8007FFF800
3FFF0003FFF800
3FFF0001FFF800
7FFE0000FFF800
7FFE0000FFF800
7FFC0000FFF800
7FFC0000FFF800
FFFC0000FFF800
FFFC0000FFF800
FFF80000FFF800
FFF80000FFF800
FFF80000FFF800
FFF80000FFF800
FFF80000FFF800
FFF80000FFF800
FFF80000FFF800
FFF80000FFF800
FFF80000FFF800
FFF80000FFF800
FFF80000FFF800
FFF80000FFF800
FFFC0000FFF800
7FFC0000FFF800
7FFC0000FFF800
7FFE0000FFF800
7FFE0000FFF800
3FFF0001FFF800
3FFF0003FFF800
3FFF8007FFF800
1FFFE00FFFF800
1FFFFFFFFFF800
0FFFFFFFFFF800
0FFFFFFFFFF800
07FFFFFFFFF800
03FFFFFFFFF800
01FFFFFF7FF800
00FFFFFE7FF800
007FFFFC7FF800
003FFFF87FF800
000FFFE07FF800
0001FF00000000
ENDCHAR
ENDFONT
